<?xml version="1.0" encoding="utf-8"?>
<svg version="1.1" xmlns:xlink="http://www.w3.org/1999/xlink" width="193px" height="40px" xmlns="http://www.w3.org/2000/svg">
  <g transform="matrix(1 0 0 1 -1790 -808 )">
    <path d="M 1790.5 828  A 19.5 19.5 0 0 1 1810 808.5 L 1963 808.5  A 19.5 19.5 0 0 1 1982.5 828 A 19.5 19.5 0 0 1 1963 847.5 L 1810 847.5  A 19.5 19.5 0 0 1 1790.5 828 Z " fill-rule="nonzero" fill="#02a7f0" stroke="none" />
    <path d="M 1790.5 828  A 19.5 19.5 0 0 1 1810 808.5 L 1963 808.5  A 19.5 19.5 0 0 1 1982.5 828 A 19.5 19.5 0 0 1 1963 847.5 L 1810 847.5  A 19.5 19.5 0 0 1 1790.5 828 Z " stroke-width="1" stroke="#027db4" fill="none" />
  </g>
</svg>