<?xml version="1.0" encoding="utf-8"?>
<svg version="1.1" xmlns:xlink="http://www.w3.org/1999/xlink" width="30px" height="57px" xmlns="http://www.w3.org/2000/svg">
  <g transform="matrix(1 0 0 1 -1384 -888 )">
    <path d="M 28.85 31.00625  C 29.875 29.7625  29.85625 27.91875  28.73125 26.69375  L 6.1625 2.05  C 4.93125 0.70625  2.85 0.61875  1.5125 1.84375  C 0.168750000000003 3.075  0.0812500000000043 5.15625  1.30625 6.49375  L 21.84375 28.91875  L 1.325 51.40625  C 0.0999999999999979 52.75  0.193749999999998 54.83125  1.5375 56.05625  C 2.88125 57.28125  4.9625 57.1875  6.1875 55.84375  L 28.71875 31.1625  C 28.7625 31.1125  28.8125 31.05625  28.85 31.00625  Z " fill-rule="nonzero" fill="#ffffff" stroke="none" transform="matrix(1 0 0 1 1384 888 )" />
  </g>
</svg>