<?xml version="1.0" encoding="utf-8"?>
<svg version="1.1" xmlns:xlink="http://www.w3.org/1999/xlink" width="58px" height="51px" xmlns="http://www.w3.org/2000/svg">
  <g transform="matrix(1 0 0 1 -2048 -739 )">
    <path d="M 57.32 47.27  C 57.32 46.49  56.6 45.89  55.73 45.89  L 48 45.89  L 48 13.25  C 48.41 12.86  48.17 12.47  47.81 12.23  L 31.25 1.1  C 30.11 0.35  28.49 0.35  27.35 1.1  L 10.76 12.08  C 10.37 12.32  10.16 12.71  11 13.16  L 11 45.98  L 2.48 45.98  C 1.58 45.98  0.890000000000002 46.58  0.890000000000002 47.33  L 0.890000000000002 48.71  C 0.890000000000002 49.46  1.58 50.06  2.48 50  L 55.73 50  C 56.63 50.06  57.32 49.46  57.32 48.71  L 57.32 47.27  Z M 32.51 18.2  L 32.51 12.71  C 32.51 12.08  33.02 11.6  34.28 11.6  L 39.8 11.6  C 39.77 11.6  40.22 12.11  40.22 12.71  L 40.22 18.2  C 40.22 18.83  39.74 19.31  39.11 19.31  L 33.62 19.31  C 32.99 19.31  32.51 18.8  32.51 18.2  Z M 18.17 18.2  L 18.17 12.71  C 18.17 12.08  18.68 11.6  19.28 11.6  L 24.77 11.6  C 25.4 11.6  25.88 12.11  25.88 12.71  L 25.88 18.2  C 25.88 18.83  25.4 19.31  24.77 19.31  L 19.28 19.31  C 18.65 19.31  18.17 18.8  18.17 18.2  Z M 20.75 40.67  C 20.36 40.67  20.09 40.4  20.09 40.01  L 20.09 39.08  L 18.26 39.08  C 18.02 39.08  17.84 38.9  17.84 38.66  L 17.84 36.92  C 17.84 36.68  18.02 36.5  18.26 36.5  L 20.09 36.5  L 20.09 35.57  C 20.09 35.18  20.36 34.91  20.75 34.91  L 23.33 34.91  L 23.33 40.67  L 20.75 40.67  Z M 35.27 44.9  C 35.69 44.93  35.99 45.32  35.93 45.74  C 35.87 46.16  35.51 46.43  35.09 46  L 22.91 46  C 22.49 46.34  22.22 45.98  22.25 45.56  C 22.28 45.14  22.67 44.87  23.09 44.9  L 25 44.9  L 25 31.01  L 23.93 31.01  C 23.42 31.01  23 30.59  23 30.08  L 23 27.83  C 23 27.32  23.42 26.9  23.93 26.9  L 24.17 26.9  C 24.41 24.65  26.15 22.88  28.34 22.55  L 28.34 21.89  C 28.34 21.47  28.67 21.14  29.09 21.14  C 29.51 21.14  29.84 21.47  29.84 21.89  L 29.84 22.55  C 32.09 22.88  33.83 24.65  34.07 26.9  L 34.31 26.9  C 34.82 26.9  35.21 27.32  35.21 27.83  L 35.21 30.08  C 35.21 30.59  34.82 31.01  34.31 31.01  L 34 31.01  L 34 44.9  L 35.27 44.9  Z M 41 36.98  L 41 38.66  C 41 38.9  40.82 39.08  40.58 39.08  L 38.75 39.08  L 38.75 40.01  C 38.75 40.4  38.48 40.67  38.09 40.67  L 35.57 40.67  L 35.57 34.94  L 38.09 34.94  C 38.48 34.94  38.75 35.21  38.75 35.6  L 38.75 36.5  L 40.58 36.5  C 40.82 36.56  41 36.74  41 36.98  Z " fill-rule="nonzero" fill="#ffffff" stroke="none" transform="matrix(1 0 0 1 2048 739 )" />
  </g>
</svg>