<?xml version="1.0" encoding="utf-8"?>
<svg version="1.1" xmlns:xlink="http://www.w3.org/1999/xlink" width="31px" height="23px" xmlns="http://www.w3.org/2000/svg">
  <g transform="matrix(1 0 0 1 -2059 -519 )">
    <path d="M 12.4 19  L 12.4 19.1625  C 11.91875 19.1625  11.53125 18.775  11.53125 18.3  C 11.53125 17.825  11.91875 17.4375  12.4 17.4375  L 14 17.4375  L 14 0.606249999999999  C 7.18125 3.80625  2.1 9.975  0.399999999999999 17.43125  L 7.76875 17.43125  C 8.25 17.43125  8.6375 17.81875  8.6375 18.29375  C 8.6375 18.76875  8.25 19.15625  7.76875 19.15625  L 7.76875 22  L 30.04375 22  L 30.04375 19  L 12.4 19  Z " fill-rule="nonzero" fill="#ffffff" stroke="none" transform="matrix(1 0 0 1 2059 519 )" />
  </g>
</svg>