<?xml version="1.0" encoding="utf-8"?>
<svg version="1.1" xmlns:xlink="http://www.w3.org/1999/xlink" width="57px" height="48px" xmlns="http://www.w3.org/2000/svg">
  <g transform="matrix(1 0 0 1 -2048 -664 )">
    <path d="M 28.4567463125 9.1822624375  C 31.795844875 9.4510801875  34.7755121875 10.4770345625  36.771334 13.3815278125  C 37.849353125 14.9498645  38.067267875 16.7297826875  37.7933285625 18.586049125  C 37.7698445 18.7466901875  37.7559164375 18.9121030625  37.708636 19.0664109375  C 37.610015375 19.3892795625  37.741988375 19.5276856875  38.0494049375 19.6040464375  C 39.1648361875 19.88238275  39.3716334375 20.1607565  39.3775669375 21.293263625  C 39.3827509375 22.3414904375  39.100379875 23.335628875  38.77235225 24.3154520625  C 38.51346525 25.0884904375  37.9961285 25.57840825  37.1487030625 25.624502  C 36.8190515625 25.642052625  36.6953854375 25.7899523125  36.6158768125 26.1064876875  C 35.773198125 29.4722556875  33.6147365625 31.7452770625  30.5711126875 33.235641625  C 29.18086775 33.9164300625  27.8073615 33.6444269375  26.5141883125 32.9064273125  C 24.241978875 31.608432375  22.51497475 29.8062916875  21.5276066875 27.35195575  C 21.3728990625 26.9685906875  21.2484459375 26.5646145625  21.1748833125 26.1573906875  C 21.1120509375 25.813811125  20.9501856875 25.667472875  20.621346125 25.6006431875  C 19.9194845 25.4527434375  19.414851625 25.0375874375  19.123774 24.3774725  C 18.659313875 23.319727125  18.3893094375 22.217412  18.4246855 21.054675375  C 18.4513299375 20.187800625  18.77978225 19.7758299375  19.6168771875 19.6342384375  C 19.9767206875 19.5738044375  19.9926474375 19.40520625  19.973947625 19.115715  C 19.882884375 17.6873459375  19.8228625625 16.257353  20.1521018125 14.8464595625  C 20.744200375 12.3110285625  22.10499025 11.0623751875  24.682205375 10.6917514375  C 24.8973345 10.6599605  25.1156365 10.6090575  25.3295789375 10.616989625  C 25.850101 10.642434875  26.215166 10.5772415625  26.40362575 9.947356125  C 26.5643043125 9.414504875  27.1544291875 9.2490795625  27.6960245 9.1886205625  C 27.94652975 9.158403625  28.2034180625 9.1822624375  28.4567463125 9.1822624375  Z M 32.941880375 44.5545050625  C 33.1753470625 43.929428875  33.4115619375 43.3074755625  33.6374088125 42.6839608125  C 34.3675388125 40.6733865  35.1023530625 38.662887125  35.81379575 36.6459420625  C 35.9724381875 36.19580975  36.1446339375 36.0653981875  36.64048525 36.2482741875  C 38.47530375 36.929062625  40.3510195 37.496927625  42.1699113125 38.2222483125  C 43.740221625 38.8489484375  45.122472 39.6983725  45.8505908125 41.3271306875  C 46.1746835625 42.05089  46.3373233125 42.8064401875  46.3465045625 43.5954053125  C 46.3524380625 44.1584610625  46.346067375 44.719955375  46.34331925 45.2814496875  C 46.336136625 46.5810060625  45.3710409375 47.5369704375  44.0682991875 47.538531875  C 34.0561124375 47.54015575  24.0439631875 47.5353465625  14.032588375 47.5544585625  C 12.9203425 47.55602  12.090842375 47.193390875  11.6188249375 46.1562815  C 11.559577625 46.024246  11.482817125 45.882717  11.4816304375 45.74587225  C 11.47007575 44.49884275  11.3293211875 43.2454550625  11.6868038125 42.01428975  C 12.2574419375 40.0530569375  13.688596625 38.9571125  15.4959586875 38.2795219375  C 17.3963576875 37.5669425625  19.324575375 36.9258771875  21.2317448125 36.230786  C 21.6647886875 36.07333025  21.8318005 36.1958096875  21.978551 36.6093418125  C 22.8605405 39.1050746875  23.76877475 41.591201625  24.668277375 44.080501375  C 24.7227404375 44.230025  24.7839739375 44.379548625  24.841247625 44.525886875  C 25.059574625 44.5418135625  25.0913905 44.368431125  25.1573708125 44.2555076875  C 25.8747594375 43.03708375  26.5738104375 41.805931  27.305127125 40.5954391875  C 27.5111124375 40.255045  27.3945914375 40.084847875  27.13093275 39.876489125  C 26.3364464375 39.2482275625  25.899018 38.421100875  25.830227125 37.4062889375  C 25.7809105625 36.6682268125  26.1209050625 36.1289674375  26.7511901875 35.8076853125  C 28.123135 35.1109701875  29.5375385625 35.04894975  30.9365275 35.7218060625  C 31.8296095 36.151264875  32.109981875 36.8081945  31.929854 37.78640625  C 31.7664023125 38.6676213125  31.299156625 39.3611510625  30.6275494375 39.9273921875  C 30.408448 40.113516  30.2835326875 40.2773424375  30.45891375 40.566833625  C 31.2462549375 41.8711368125  32.023290625 43.18023675  32.805885 44.486101375  C 32.8213995625 44.50997275  32.865931875 44.5179673125  32.941880375 44.5545050625  Z M 41.6398331875 0.4370291875  C 44.378476375 0.640641125  46.8952575 1.5679749375  48.77615725 3.79165475  C 49.901894 5.1214031875  50.3138646875 6.724753625  50.1925719375 8.4569541875  C 50.16115575 8.9071115  50.1564089375 9.3636145  50.021188125 9.801042875  C 49.949611625 10.031699  50.045858875 10.1112075625  50.2812618125 10.1525545625  C 51.3259285 10.333894125  51.5533993125 10.612267875  51.5668901875 11.6684268125  C 51.5800063125 12.7564016875  51.28732975 13.7823685625  50.9211405 14.7908348125  C 50.6984165 15.403232125  50.21649325 15.7038408125  49.5849839375 15.7308849375  C 49.224291 15.7467741875  49.1069955 15.9026684375  49.02111625 16.2398773125  C 48.215475 19.389292  46.210097125 21.520746875  43.3115623125 22.877552  C 43.294886125 22.885521625  43.2781474375 22.8918548125  43.26147125 22.8982255  C 42.14048125 23.33882675  42.053352875 23.2592931875  42.2001283125 22.0981429375  C 42.391373625 20.5806718125  42.1400440625 19.169790875  41.0572781875 18.0038938125  C 40.84848225 17.779608375  40.7451148125 17.5457669375  40.739118875 17.2308304375  C 40.6584235625 12.84390475  38.4215651875 9.8519458125  34.6363315625 7.88594125  C 33.68984825 7.3928380625  33.6799175 7.41988225  33.8381851875 6.352580875  C 34.0660931875 4.8128498125  34.577434 3.432198375  35.9911005 2.570095375  C 36.8997344375 2.0165331875  37.9161703125 1.839965375  38.9556405625 1.793871625  C 39.312711 1.7779449375  39.49964675 1.692065625  39.6014526875 1.31507125  C 39.7457923125 0.7758493125  40.2269660625 0.5913494375  40.7251908125 0.499099500000002  C 40.989649 0.449770562499999  41.266024125 0.459289125  41.6398331875 0.4370291875  Z M 15.49001275 0.444986312499999  C 18.549176125 0.744033562499999  21.2536175 1.72383175  23.06376525 4.3992678125  C 23.6654198125 5.2868535  23.953312125 6.288924125  24.0515330625 7.3578119375  C 24.0901069375 7.779338625  23.9481406875 7.941603625  23.5564686875 8.0195133125  C 22.06963925 8.3153751875  20.7223651875 8.907099  19.611306 9.9664433125  C 18.0743855625 11.4330115  17.418230375 13.30358075  17.172497 15.35071775  C 17.094137625 15.9964924375  17.0849938125 16.6518355625  17.0571626875 17.3039809375  C 17.0468196875 17.5314516875  16.9963289375 17.7191369375  16.8316905625 17.8909205  C 15.69281275 19.0854855625  15.380649375 20.5202253125  15.6168641875 22.11401975  C 15.780290875 23.221106625  15.632765875 23.35151825  14.5980549375 22.9109419375  C 11.656212 21.65751675  9.67586718750001 19.5229015  8.79984862500001 16.4243898125  C 8.67778137500001 15.99012175  8.51632837500001 15.729273625  8.04548506250001 15.6465421875  C 7.55637918750001 15.5590765  7.21002650000001 15.2202686875  6.98336768750001 14.78285275  C 6.41950000000001 13.694877875  6.18488406250001 12.53212875  6.24611756250001 11.31530375  C 6.27672181250001 10.70132  6.60877168750001 10.3132081875  7.23547175000001 10.184358  C 7.58619643750001 10.1127815  7.68085725000001 9.9521404375  7.65895962500001 9.6308333125  C 7.60012450000001 8.7448465  7.57149393750001 7.8668418125  7.63032906250001 6.9744843125  C 7.84945550000001 3.6437175625  9.45003281250001 1.9990201875  12.7970885 1.7954206875  C 13.1664880625 1.7731483125  13.375259 1.7047571875  13.4878076875 1.29757075  C 13.64330225 0.739261812499999  14.157853375 0.569064687499999  14.675215125 0.486345749999998  C 14.9428086875 0.444998812499998  15.2187840625 0.457715187499998  15.4896005 0.444998812499998  Z M 8.8149509375 35.346398125  C 6.85727825 35.346398125  4.8992433125 35.3495834375  2.9415705625 35.3448366875  C 1.956588375 35.34327525  1.140604125 34.671980375  1.0427704375 33.6858365  C 0.954480312500001 32.806182875  0.937779125000001 31.9106650625  1.0705890625 31.02945  C 1.393495125 28.8789080625  2.722056875 27.52689975  4.6490878125 26.7284410625  C 6.1208399375 26.1176051875  7.6315281875 25.6006431875  9.12710175 25.0487174375  C 9.78640475 24.8037585  9.7923631875 24.80856775  10.0086915625 25.45750275  C 10.74952675 27.674874375  11.4867769375 29.8921710625  12.2284365625 32.1095426875  C 12.2837115625 32.2749305625  12.27018325 32.5405629375  12.4542834375 32.569231  C 12.6817541875 32.60576875  12.7362173125 32.3258335  12.8396096875 32.171563125  C 13.4205908125 31.2935334375  13.9745276875 30.4012009375  14.56662625 29.53272725  C 14.7813556875 29.2177533125  14.726105625 29.0571121875  14.442560375 28.82808  C 13.727982375 28.250659  13.2492194375 27.5189675625  13.1923455 26.5678  C 13.158930625 26.0063056875  13.403102625 25.584779  13.8786926875 25.3016584375  C 14.5220939375 24.915108  15.22596675 24.7942524375  15.9695875625 24.8435315625  C 16.2041785 24.85945825  16.32628325 24.988308375  16.409389375 25.1854871875  C 16.766897 26.0333498125  17.2818603125 26.772960875  17.9769515625 27.377363625  C 18.183748875 27.5555553125  18.183748875 27.727313875  18.0449429375 27.945228625  C 17.817909375 28.3015495625  17.5550625625 28.63238775  17.2122575 28.8694145  C 16.91243575 29.07777325  16.9168078125 29.2511556875  17.1064916875 29.5295294375  C 17.9097595625 30.7160999375  18.694727375 31.9122889375  19.490050625 33.1036561875  C 19.860636875 33.6587798125  19.85270475 33.708058875  19.23394925 33.9259736875  C 18.004008125 34.36024175  16.7458361875 34.713314875  15.5433015 35.2270915  C 15.27011175 35.34326275  14.98022075 35.3480095  14.6879439375 35.3480095  C 12.730258875 35.3448366875  10.7726236875 35.346398125  8.8149509375 35.346398125  Z M 48.9722118125 35.3480220625  C 47.06820275 35.3480220625  45.1650555625 35.336904625  43.2614711875 35.3559541875  C 42.7548146875 35.3607634375  42.2979369375 35.2159865625  41.8366871875 35.0569069375  C 40.7570441875 34.6863456875  39.6781506875 34.31091275  38.6001440625 33.9371036875  C 38.0195376875 33.7367395625  37.99886425 33.6778419375  38.33732225 33.151386375  C 39.1154821875 31.9488266875  39.88377375 30.7399588125  40.677110875 29.5485915625  C 40.8771003125 29.247982875  40.9037696875 29.04755625  40.5773035625 28.840759  C 40.42659325 28.7453236875  40.30486325 28.60217075  40.181197125 28.4701353125  C 39.6416254375 27.89277675  39.6531176875 27.8386884375  40.205867875 27.2803794375  C 40.747875375 26.7316265  41.179332875 26.100117125  41.4239170625 25.370049625  C 41.565071375 24.9485229375  41.802472875 24.813302125  42.2291835625 24.8339755625  C 43.1501216875 24.878507875  44.1017265 24.9914313125  44.4838299375 25.9362906875  C 44.88824325 26.9336145  44.3895813125 27.808458875  43.694115375 28.54169925  C 43.0375605 29.2352290625  43.0232576875 29.23048225  43.5434050625 30.0305648125  C 44.0360710625 30.7908618125  44.539105 31.544850625  45.042576125 32.2972155  C 45.118524625 32.411700375  45.164243625 32.6057563125  45.3332540625 32.578712125  C 45.4950818125 32.553291875  45.4958938125 32.357612  45.539614125 32.225639  C 46.2931656875 29.9748525625  47.059895875 27.727326375  47.7840299375 25.4670463125  C 47.953040375 24.9421521875  48.1442856875 24.8244195  48.6668064375 25.034402125  C 50.297201 25.688146375  51.99597425 26.165322875  53.5770273125 26.9495286875  C 55.646062 27.9738966875  56.7809675625 29.6011059375  56.790086375 31.9488141875  C 56.792085 32.421243875  56.800017125 32.8936735625  56.78733825 33.364479375  C 56.7562968125 34.5494884375  55.9773249375 35.3368920625  54.7918786875 35.346385625  C 52.8521313125 35.360750875  50.91275875 35.351194875  48.9722119375 35.351194875  C 48.9722118125 35.3495835  48.9722118125 35.3495835  48.9722118125 35.3480220625  Z " fill-rule="nonzero" fill="#ffffff" stroke="none" transform="matrix(1 0 0 1 2048 664 )" />
  </g>
</svg>