<?xml version="1.0" encoding="utf-8"?>
<svg version="1.1" xmlns:xlink="http://www.w3.org/1999/xlink" width="61px" height="60px" xmlns="http://www.w3.org/2000/svg">
  <g transform="matrix(1 0 0 1 -2046 -966 )">
    <path d="M 4 1  L 4 53.54  L 0.0600000000000001 53.54  L 0.0600000000000001 59  L 38 59  L 38 1  L 4 1  Z M 9.4 40  L 9.4 34  L 22.12 34  L 22.12 40  L 9.4 40  Z M 9.4 49  L 9.4 43  L 22.12 43  L 22.12 49  L 9.4 49  Z M 60.06 53.54  L 56 53.54  L 56 34.3  L 48.54 28.4  L 40 28.4  L 40 59  L 60.06 59  L 60.06 53.54  Z " fill-rule="nonzero" fill="#ffffff" stroke="none" transform="matrix(1 0 0 1 2046 966 )" />
  </g>
</svg>