<?xml version="1.0" encoding="utf-8"?>
<svg version="1.1" xmlns:xlink="http://www.w3.org/1999/xlink" width="44px" height="44px" xmlns="http://www.w3.org/2000/svg">
  <g transform="matrix(1 0 0 1 -2055 -817 )">
    <path d="M 43 43.59375  L 43.3 43  L 26 43  L 26 7.375  C 26.00625 6.21875  27.125 5.3875  28.23125 5.71875  L 42.0625 9.86875  C 42.79375 10.0875  43.29375 10.7625  43 11.525  L 43 43.59375  Z M 37.24375 37.04375  C 37.24375 36.5625  36.85625 36.175  36.38125 36.175  L 32.925 36.175  C 32.45 36.175  32.0625 36.5625  32.0625 37.0375  L 32.0625 40.5  C 32.0625 40.975  32.45 41.3625  32.925 41.3625  L 36.38125 41.3625  C 36.85625 41.3625  37.24375 40.975  37.24375 40.5  L 37.24375 37.04375  Z M 37.24375 29.475  C 37.24375 28.99375  36.85625 28.6125  36.38125 28.6125  L 32.925 28.6125  C 32.45 28.6125  32.0625 29  32.0625 29.475  L 32.0625 32.93125  C 32.0625 33.40625  32.45 33.79375  32.925 33.79375  L 36.38125 33.79375  C 36.85625 33.79375  37.24375 33.40625  37.24375 32.93125  L 37.24375 29.475  Z M 37.24375 21.90625  C 37.24375 21.43125  36.85625 21.04375  36.38125 21.04375  L 32.925 21.04375  C 32.45 21.04375  32.0625 21.43125  32.0625 21.90625  L 32.0625 25.3625  C 32.0625 25.8375  32.45 26.225  32.925 26.225  L 36.38125 26.225  C 36.85625 26.225  37.24375 25.8375  37.24375 25.3625  L 37.24375 21.90625  Z M 37.24375 14.34375  C 37.24375 13.86875  36.85625 13.48125  36.38125 13.48125  L 32.925 13.48125  C 32.45 13.48125  32.0625 13.86875  32.0625 14.34375  L 32.0625 17.8  C 32.0625 18.275  32.45 18.6625  32.925 18.6625  L 36.38125 18.6625  C 36.85625 18.6625  37.24375 18.275  37.24375 17.8  L 37.24375 14.34375  Z M 23 2.20625  C 23.35625 1.0375  22.23125 0.206250000000001  21.11875 0.550000000000001  L 2.1 6.4  C 1.375 6.625  0.881249999999998 7.29375  1 8.05  L 1 43  L 23 43  L 23 2.20625  Z M 11.06875 37.04375  L 11.06875 40.5  C 11.06875 40.975  10.68125 41.3625  10.20625 41.3625  L 6.75 41.3625  C 6.275 41.3625  5.8875 40.975  5.8875 40.5  L 5.8875 37.04375  C 5.8875 36.56875  6.275 36.18125  6.75 36.18125  L 10.20625 36.18125  C 10.68125 36.18125  11.06875 36.56875  11.06875 37.04375  Z M 11.06875 29.475  L 11.06875 32.93125  C 11.06875 33.40625  10.68125 33.79375  10.20625 33.79375  L 6.75 33.79375  C 6.275 33.79375  5.8875 33.40625  5.8875 32.93125  L 5.8875 29.475  C 5.8875 29  6.275 28.6125  6.75 28.6125  L 10.20625 28.6125  C 10.68125 28.6125  11.06875 29  11.06875 29.475  Z M 11.06875 21.9125  L 11.06875 25.36875  C 11.06875 25.84375  10.68125 26.23125  10.20625 26.23125  L 6.75 26.23125  C 6.275 26.23125  5.8875 25.84375  5.8875 25.36875  L 5.8875 21.9125  C 5.8875 21.4375  6.275 21.05  6.75 21.05  L 10.20625 21.05  C 10.68125 21.05  11.06875 21.4375  11.06875 21.9125  Z M 11.06875 14.34375  L 11.06875 17.8  C 11.06875 18.275  10.68125 18.6625  10.20625 18.6625  L 6.75 18.6625  C 6.275 18.6625  5.8875 18.275  5.8875 17.8  L 5.8875 14.34375  C 5.8875 13.86875  6.275 13.48125  6.75 13.48125  L 10.20625 13.48125  C 10.68125 13.48125  11.06875 13.86875  11.06875 14.34375  Z M 18.4125 37.04375  L 18.4125 40.5  C 18.4125 40.975  18.025 41.3625  17.55 41.3625  L 14.09375 41.3625  C 13.61875 41.3625  13.23125 40.975  13.23125 40.5  L 13.23125 37.04375  C 13.23125 36.56875  13.61875 36.18125  14.09375 36.18125  L 17.55 36.18125  C 18.025 36.18125  18.4125 36.56875  18.4125 37.04375  Z M 18.4125 29.475  L 18.4125 32.93125  C 18.4125 33.40625  18.025 33.79375  17.55 33.79375  L 14.09375 33.79375  C 13.61875 33.79375  13.23125 33.40625  13.23125 32.93125  L 13.23125 29.475  C 13.23125 29  13.61875 28.6125  14.09375 28.6125  L 17.55 28.6125  C 18.025 28.6125  18.4125 29  18.4125 29.475  Z M 18.4125 21.9125  L 18.4125 25.36875  C 18.4125 25.84375  18.025 26.23125  17.55 26.23125  L 14.09375 26.23125  C 13.61875 26.23125  13.23125 25.84375  13.23125 25.36875  L 13.23125 21.9125  C 13.23125 21.4375  13.61875 21.05  14.09375 21.05  L 17.55 21.05  C 18.025 21.05  18.4125 21.4375  18.4125 21.9125  Z M 18.4125 14.34375  L 18.4125 17.8  C 18.4125 18.275  18.025 18.6625  17.55 18.6625  L 14.09375 18.6625  C 13.61875 18.6625  13.23125 18.275  13.23125 17.8  L 13.23125 14.34375  C 13.23125 13.86875  13.61875 13.48125  14.09375 13.48125  L 17.55 13.48125  C 18.025 13.48125  18.4125 13.86875  18.4125 14.34375  Z M 19.1125 10.4875  L 12.525 10.4875  L 15.81875 4.78125  L 19.1125 10.4875  Z " fill-rule="nonzero" fill="#ffffff" stroke="none" transform="matrix(1 0 0 1 2055 817 )" />
  </g>
</svg>