<?xml version="1.0" encoding="utf-8"?>
<svg version="1.1" xmlns:xlink="http://www.w3.org/1999/xlink" width="66px" height="40px" xmlns="http://www.w3.org/2000/svg">
  <defs>
    <radialGradient cx="1606" cy="830" r="33" gradientTransform="matrix(-1 0 0 -0.606060606060606 3212 1333.0303030303 )" gradientUnits="userSpaceOnUse" id="RadialGradient364">
      <stop id="Stop365" stop-color="#004959" offset="0" />
      <stop id="Stop366" stop-color="#00396e" offset="1" />
    </radialGradient>
  </defs>
  <g transform="matrix(1 0 0 1 -1573 -810 )">
    <path d="M 1573.5 830  A 19.5 19.5 0 0 1 1593 810.5 L 1619 810.5  A 19.5 19.5 0 0 1 1638.5 830 A 19.5 19.5 0 0 1 1619 849.5 L 1593 849.5  A 19.5 19.5 0 0 1 1573.5 830 Z " fill-rule="nonzero" fill="url(#RadialGradient364)" stroke="none" />
    <path d="M 1573.5 830  A 19.5 19.5 0 0 1 1593 810.5 L 1619 810.5  A 19.5 19.5 0 0 1 1638.5 830 A 19.5 19.5 0 0 1 1619 849.5 L 1593 849.5  A 19.5 19.5 0 0 1 1573.5 830 Z " stroke-width="1" stroke="#027db4" fill="none" />
  </g>
</svg>