<?xml version="1.0" encoding="utf-8"?>
<svg version="1.1" xmlns:xlink="http://www.w3.org/1999/xlink" width="12px" height="21px" xmlns="http://www.w3.org/2000/svg">
  <g transform="matrix(1 0 0 1 -680 -68 )">
    <path d="M 0.591048387096773 1.298671875  L 10.0887096774194 10.43671875  L 0.587177419354838 19.70484375  C 0.443132104255503 19.8453468199269  0.362291006209577 20.0353351027309  0.362291006209577 20.233359375  C 0.362291006209577 20.6475768863386  0.70891256894085 20.9833665252345  1.13649193548387 20.9833665252345  C 1.34274180224881 20.9833665252345  1.54046613425011 20.9036412265485  1.6858064516129 20.761875  L 11.7338709677419 10.96171875  C 12.0350680663123 10.6678041803875  12.0333351009469 10.1930156713324  11.73 9.901171875  L 1.68217741935484 0.234375  C 1.53714199233353 0.0948311009975172  1.34102505524549 0.0165162872655291  1.13661290322581 0.0165162872655291  C 0.709033536682785 0.0165162872655291  0.362411973951513 0.352305926161449  0.362411973951513 0.7665234375  C 0.362411973951513 0.966327995928537  0.444709056466079 1.1578734425548  0.591048387096773 1.298671875  Z " fill-rule="nonzero" fill="#00bfbf" stroke="none" transform="matrix(1 0 0 1 680 68 )" />
  </g>
</svg>