<?xml version="1.0" encoding="utf-8"?>
<svg version="1.1" xmlns:xlink="http://www.w3.org/1999/xlink" width="12px" height="21px" xmlns="http://www.w3.org/2000/svg">
  <g transform="matrix(1 0 0 1 -672 -68 )">
    <path d="M 0.271209677419355 1.298671875  L 9.76887096774193 10.43671875  L 0.267338709677419 19.70484375  C 0.123293394578083 19.8453468199269  0.042452296532159 20.0353351027309  0.042452296532159 20.233359375  C 0.042452296532159 20.6475768863386  0.389073859263431 20.9833665252345  0.816653225806451 20.9833665252345  C 1.02290309257139 20.9833665252345  1.22062742457269 20.9036412265485  1.36596774193548 20.761875  L 11.413064516129 10.96171875  C 11.7142616146994 10.6678041803875  11.712528649334 10.1930156713324  11.4091935483871 9.901171875  L 1.36233870967742 0.234375  C 1.21730328265611 0.0948311009975172  1.02118634556807 0.0165162872655291  0.816774193548387 0.0165162872655291  C 0.389194827005366 0.0165162872655291  0.0425732642740947 0.352305926161449  0.0425732642740947 0.7665234375  C 0.0425732642740947 0.966327995928537  0.124870346788661 1.1578734425548  0.271209677419355 1.298671875  Z " fill-rule="nonzero" fill="#00bfbf" stroke="none" transform="matrix(1 0 0 1 672 68 )" />
  </g>
</svg>