<?xml version="1.0" encoding="utf-8"?>
<svg version="1.1" xmlns:xlink="http://www.w3.org/1999/xlink" width="51px" height="45px" xmlns="http://www.w3.org/2000/svg">
  <g transform="matrix(1 0 0 1 -855 -836 )">
    <path d="M 50.2207333875 37.0498758943966  C 50.4905093463363 29.0617356129348  47.3466838271791 21.3304035299567  41.5596794740385 15.7505119234914  C 38.9533531668323 18.570300665589  35.2681406122727 20.1765183934654  31.4049075980769 20.1765183934654  C 27.5416745838812 20.1765183934654  23.8564620293215 18.570300665589  21.2501357221154 15.7505119234914  C 15.4539119450114 21.3261011709677  12.3007463931676 29.0579910945943  12.5639773038462 37.0498758943966  C 12.5639773038462 47.7243822898707  50.2207333384615 47.5754356842672  50.2207333875 37.0498758943966  Z M 15.0707345366683 18.1833071793789  C 15.0719656030083 18.1833071793789  15.0731966693397 18.1833069306491  15.0744277355769 18.1833064331897  C 15.3921794126008 18.2005366871387  15.7106471922069 18.2005366871387  16.0283988692308 18.1833064331897  C 17.1192958487425 16.6486670433163  18.3825842352306 15.2412407789952  19.7940744923077 13.9879771390086  C 18.3318883184835 11.7656970287871  17.5635588909391 9.16698003130851  17.5848781182692 6.51582266702586  C 17.5875506792588 4.64438425841808  17.9806818546023 2.7936184163324  18.7396852903846 1.07927170797414  C 17.5845769419726 0.571878418237389  16.3346827548247 0.309715088861638  15.0707345366683 0.309715088861638  C 10.0793940425243 0.309715088861638  6.03311310012988 4.31085496597578  6.03311310012988 9.24651113412026  C 6.03311310012988 14.1821673022647  10.0793940425243 18.1833071793789  15.0707345366683 18.1833071793789  Z M 10.0535269211538 37.9187310452586  C 9.99780488609112 31.6983303783015  11.6088904874398 25.5742706852146  14.7229646682692 20.1692610775862  C 11.7575509407294 20.0883738011231  8.95099953797956 18.8260867646818  6.94056842307692 16.6690159428879  C 2.32015096371424 21.1246741392984  -0.194121934752056 27.2951918646863  0.0117252923076923 33.6737529310345  C 0.0117252923076923 37.0498758943966  4.73137204903846 39.0606550215517  10.4300944442308 39.7557391325431  C 10.1877601577458 39.1725991817508  10.0599606377644 38.5491552112283  10.0535269211538 37.9187310452586  Z " fill-rule="nonzero" fill="#2ec7f2" stroke="none" transform="matrix(1 0 0 1 855 836 )" />
  </g>
</svg>