<?xml version="1.0" encoding="utf-8"?>
<svg version="1.1" xmlns:xlink="http://www.w3.org/1999/xlink" width="22px" height="22px" xmlns="http://www.w3.org/2000/svg">
  <g transform="matrix(1 0 0 1 -521 -1139 )">
    <path d="M 532 1143  C 535.92 1143  539 1146.08  539 1150  C 539 1153.92  535.92 1157  532 1157  C 528.08 1157  525 1153.92  525 1150  C 525 1146.08  528.08 1143  532 1143  Z " fill-rule="nonzero" fill="#ffffff" stroke="none" fill-opacity="0" />
    <path d="M 532 1141.5  C 536.76 1141.5  540.5 1145.24  540.5 1150  C 540.5 1154.76  536.76 1158.5  532 1158.5  C 527.24 1158.5  523.5 1154.76  523.5 1150  C 523.5 1145.24  527.24 1141.5  532 1141.5  Z " stroke-width="5" stroke="#0972bf" fill="none" />
  </g>
</svg>