<?xml version="1.0" encoding="utf-8"?>
<svg version="1.1" xmlns:xlink="http://www.w3.org/1999/xlink" width="32px" height="38px" xmlns="http://www.w3.org/2000/svg">
  <g transform="matrix(1 0 0 1 -907 -174 )">
    <path d="M 31.9209284074074 7.08345828125  C 31.9588353703704 6.4187906328125  31.6745330740741 5.77311344726563  31.200695962963 5.3553223359375  C 30.7268588148148 4.91854072460938  30.1203472592593 4.7096451875  29.5138356666667 4.7096451875  L 29.3432542962963 4.7096451875  C 29.3053473333333 4.7096451875  28.9073241111111 4.7476261875  28.3008125555556 4.7476261875  C 27.2583708148148 4.7476261875  25.2872082592593 4.67166415039063  23.3918596296296 4.2158920390625  C 20.9468598888889 3.646176890625  18.1227904444444 0.94952522265625  17.3077905555556 0.417791111328125  C 16.9097673333333 0.170914537109375  16.4169767037037 0.0189905  15.9431395555556 0.0189905  C 15.4693024074074 0.0189905  15.0144187407407 0.170914537109375  14.5784885185185 0.417791111328125  C 14.4647675925926 0.4937531484375  11.5269772222222 3.532233890625  8.66500081481481 4.2158920390625  C 6.76965218518518 4.69065465039063  4.72267566666667 4.7476261875  3.71814092592593 4.7476261875  C 3.07372240740741 4.7476261875  2.67569918518518 4.7096451875  2.63779222222222 4.7096451875  L 2.48616433333333 4.7096451875  C 1.84174581481481 4.7096451875  1.27314122222222 4.91854072460938  0.799304037037037 5.3553223359375  C 0.287559925925926 5.79210394726563  0.00325762962962983 6.43778109570313  0.00325762962962983 7.08345828125  L 0.00325762962962983 13.046476765625  C 0.00325762962962983 35.0184907578125  14.8627908148148 37.8480759628906  15.4693023703704 37.962019  C 15.6209302592593 38  15.7536046666667 38  15.9052325555556 38  C 16.0568604444444 38  16.1895348518518 38  16.3411627407407 37.962019  C 16.9855812592593 37.8480759628906  31.9209284074074 35.0184907578125  31.9209284074074 13.046476765625  L 31.9209284074074 7.08345828125  Z M 29.6654635555556 13.027486265625  L 29.684417037037 13.027486265625  C 29.684417037037 17.718140953125  28.9641845555556 21.8390804550781  27.5426731111111 25.2573713085938  C 26.4244174074074 27.9350324765625  24.8702315555556 30.1759120332031  22.936975962963 31.9610194785156  C 19.5443019259259 35.0754622578125  16.0568604814815 35.68315840625  16.0189534814815 35.7021489433594  L 15.962093037037 35.7021489433594  L 15.9431395555556 35.7021489433594  L 15.9052325555556 35.7021489433594  C 15.8673255925926 35.7021489433594  12.4367445925926 35.0754622949219  9.08197751851852 31.999000515625  C 7.12976844444444 30.2138930703125  5.59453603703704 27.9730135136719  4.47628037037037 25.2953523085937  C 3.05476888888889 21.8770614550781  2.31558292592593 17.7561219160156  2.31558296296296 13.027486265625  L 2.31558296296296 7.06446778125  L 2.33453644444444 7.04547724414063  L 2.37244340740741 7.00749624414063  C 2.41035037037037 6.98850574414063  2.41035037037037 6.96951524414063  2.50511781481481 6.96951524414063  L 2.58093174074074 6.96951524414063  C 2.75151311111111 6.98850574414063  3.14953633333333 7.00749624414063  3.71814092592592 7.00749624414063  C 4.85535011111111 7.00749624414063  7.05395451851852 6.93153420703125  9.19569844444444 6.39980009570313  C 11.2237214814815 5.925037484375  13.5360467777778 4.50074961328125  15.8862790740741 2.29785105664063  C 15.924186037037 2.27886055664063  15.9431395185185 2.27886055664063  15.9431395555556 2.27886055664063  C 15.9810465185185 2.27886055664063  16.037907 2.29785105664063  16.075813962963 2.31684159375  C 16.1895348888889 2.39280363085938  16.4927906666667 2.63968016796875  16.739185962963 2.84857570507813  C 18.1417439259259 3.96901550195313  20.4919762222222 5.86806594726563  22.861162 6.41879059570313  C 25.0029059259259 6.95052474414063  27.1825568518518 7.02648674414063  28.3008125555556 7.02648674414063  C 28.8504636666667 7.02648674414063  29.2484868518518 7.00749624414063  29.4190682592593 6.98850574414063  L 29.5138356666667 6.98850574414063  C 29.5706961111111 6.98850574414063  29.6275565925926 7.00749624414063  29.6465100740741 7.02648674414063  C 29.6654635555556 7.04547724414063  29.6654635555556 7.06446774414063  29.6654635555556 7.08345828125  L 29.6654635555556 13.027486265625  Z " fill-rule="nonzero" fill="#0fe6d5" stroke="none" transform="matrix(1 0 0 1 907 174 )" />
  </g>
</svg>