<?xml version="1.0" encoding="utf-8"?>
<svg version="1.1" xmlns:xlink="http://www.w3.org/1999/xlink" width="73px" height="73px" xmlns="http://www.w3.org/2000/svg">
  <g transform="matrix(1 0 0 1 -886 -156 )">
    <path d="M 922.5 157  C 942.38 157  958 172.62  958 192.5  C 958 212.38  942.38 228  922.5 228  C 902.62 228  887 212.38  887 192.5  C 887 172.62  902.62 157  922.5 157  Z " fill-rule="nonzero" fill="#ffffff" stroke="none" fill-opacity="0" />
    <path d="M 922.5 157  C 942.38 157  958 172.62  958 192.5  C 958 212.38  942.38 228  922.5 228  C 902.62 228  887 212.38  887 192.5  C 887 172.62  902.62 157  922.5 157  Z " stroke-width="2" stroke="#0fe6a4" fill="none" />
  </g>
</svg>