<?xml version="1.0" encoding="utf-8"?>
<svg version="1.1" xmlns:xlink="http://www.w3.org/1999/xlink" width="168px" height="49px" xmlns="http://www.w3.org/2000/svg">
  <defs>
    <radialGradient cx="663.332421340629" cy="318.173333333332" r="84.2681258549928" gradientTransform="matrix(0 0.294753049957319 -1 0 981.505754673961 122.654079007608 )" gradientUnits="userSpaceOnUse" id="RadialGradient3487">
      <stop id="Stop3488" stop-color="#026d9b" offset="0" />
      <stop id="Stop3489" stop-color="#073a4f" offset="1" />
    </radialGradient>
  </defs>
  <g transform="matrix(1 0 0 1 -576 -294 )">
    <path d="M 660 301  C 703.12 301  737 308.7  737 318.5  C 737 328.3  703.12 336  660 336  C 616.88 336  583 328.3  583 318.5  C 583 308.7  616.88 301  660 301  Z " fill-rule="nonzero" fill="url(#RadialGradient3487)" stroke="none" />
    <path d="M 660 298  C 704.8 298  740 307.02  740 318.5  C 740 329.98  704.8 339  660 339  C 615.2 339  580 329.98  580 318.5  C 580 307.02  615.2 298  660 298  Z " stroke-width="8" stroke="#07969f" fill="none" />
  </g>
</svg>