<?xml version="1.0" encoding="utf-8"?>
<svg version="1.1" xmlns:xlink="http://www.w3.org/1999/xlink" width="60px" height="30px" xmlns="http://www.w3.org/2000/svg">
  <defs>
    <radialGradient cx="2054" cy="173" r="30" gradientTransform="matrix(-1 0 0 -0.5 4108 259.5 )" gradientUnits="userSpaceOnUse" id="RadialGradient189">
      <stop id="Stop190" stop-color="#004959" offset="0" />
      <stop id="Stop191" stop-color="#00396e" offset="1" />
    </radialGradient>
  </defs>
  <g transform="matrix(1 0 0 1 -2024 -158 )">
    <path d="M 2024.5 173  A 14.5 14.5 0 0 1 2039 158.5 L 2069 158.5  A 14.5 14.5 0 0 1 2083.5 173 A 14.5 14.5 0 0 1 2069 187.5 L 2039 187.5  A 14.5 14.5 0 0 1 2024.5 173 Z " fill-rule="nonzero" fill="url(#RadialGradient189)" stroke="none" />
    <path d="M 2024.5 173  A 14.5 14.5 0 0 1 2039 158.5 L 2069 158.5  A 14.5 14.5 0 0 1 2083.5 173 A 14.5 14.5 0 0 1 2069 187.5 L 2039 187.5  A 14.5 14.5 0 0 1 2024.5 173 Z " stroke-width="1" stroke="#027db4" fill="none" />
  </g>
</svg>