<?xml version="1.0" encoding="utf-8"?>
<svg version="1.1" xmlns:xlink="http://www.w3.org/1999/xlink" width="193px" height="40px" xmlns="http://www.w3.org/2000/svg">
  <g transform="matrix(1 0 0 1 -1573 -810 )">
    <path d="M 1573.5 830  A 19.5 19.5 0 0 1 1593 810.5 L 1746 810.5  A 19.5 19.5 0 0 1 1765.5 830 A 19.5 19.5 0 0 1 1746 849.5 L 1593 849.5  A 19.5 19.5 0 0 1 1573.5 830 Z " fill-rule="nonzero" fill="#02a7f0" stroke="none" />
    <path d="M 1573.5 830  A 19.5 19.5 0 0 1 1593 810.5 L 1746 810.5  A 19.5 19.5 0 0 1 1765.5 830 A 19.5 19.5 0 0 1 1746 849.5 L 1593 849.5  A 19.5 19.5 0 0 1 1573.5 830 Z " stroke-width="1" stroke="#027db4" fill="none" />
  </g>
</svg>