<?xml version="1.0" encoding="utf-8"?>
<svg version="1.1" xmlns:xlink="http://www.w3.org/1999/xlink" width="55px" height="70px" xmlns="http://www.w3.org/2000/svg">
  <g transform="matrix(1 0 0 1 -633 -249 )">
    <path d="M 2.5 0  L 52.5 0  C 53.1770833333333 0  53.7630208333333 0.247395833333339  54.2578125 0.742187500000002  C 54.7526041666667 1.23697916666666  55 1.82291666666666  55 2.5  L 55 67.5  C 55 68.1770833333333  54.7526041666667 68.7630208333333  54.2578125 69.2578125  C 53.7630208333333 69.7526041666667  53.1770833333333 70  52.5 70  L 2.5 70  C 1.82291666666667 70  1.23697916666667 69.7526041666667  0.7421875 69.2578125  C 0.247395833333333 68.7630208333333  0 68.1770833333333  0 67.5  L 0 2.5  C 0 1.82291666666666  0.247395833333333 1.23697916666666  0.7421875 0.742187500000002  C 1.23697916666667 0.247395833333339  1.82291666666667 0  2.5 0  Z M 20.3515625 10.3515625  C 20.1171875 10.5859375  20 10.8854166666667  20 11.25  L 20 13.75  C 20 14.1145833333333  20.1171875 14.4140625  20.3515625 14.6484375  C 20.5859375 14.8828125  20.8854166666667 15  21.25 15  L 23.75 15  C 24.1145833333333 15  24.4140625 14.8828125  24.6484375 14.6484375  C 24.8828125 14.4140625  25 14.1145833333333  25 13.75  L 25 11.25  C 25 10.8854166666667  24.8828125 10.5859375  24.6484375 10.3515625  C 24.4140625 10.1171875  24.1145833333333 10  23.75 10  L 21.25 10  C 20.8854166666667 10  20.5859375 10.1171875  20.3515625 10.3515625  Z M 20.3515625 20.3515625  C 20.1171875 20.5859375  20 20.8854166666667  20 21.25  L 20 23.75  C 20 24.1145833333333  20.1171875 24.4140625  20.3515625 24.6484375  C 20.5859375 24.8828125  20.8854166666667 25  21.25 25  L 23.75 25  C 24.1145833333333 25  24.4140625 24.8828125  24.6484375 24.6484375  C 24.8828125 24.4140625  25 24.1145833333333  25 23.75  L 25 21.25  C 25 20.8854166666667  24.8828125 20.5859375  24.6484375 20.3515625  C 24.4140625 20.1171875  24.1145833333333 20  23.75 20  L 21.25 20  C 20.8854166666667 20  20.5859375 20.1171875  20.3515625 20.3515625  Z M 20.3515625 30.3515625  C 20.1171875 30.5859375  20 30.8854166666667  20 31.25  L 20 33.75  C 20 34.1145833333333  20.1171875 34.4140625  20.3515625 34.6484375  C 20.5859375 34.8828125  20.8854166666667 35  21.25 35  L 23.75 35  C 24.1145833333333 35  24.4140625 34.8828125  24.6484375 34.6484375  C 24.8828125 34.4140625  25 34.1145833333333  25 33.75  L 25 31.25  C 25 30.8854166666667  24.8828125 30.5859375  24.6484375 30.3515625  C 24.4140625 30.1171875  24.1145833333333 30  23.75 30  L 21.25 30  C 20.8854166666667 30  20.5859375 30.1171875  20.3515625 30.3515625  Z M 20.3515625 40.3515625  C 20.1171875 40.5859375  20 40.8854166666667  20 41.25  L 20 43.75  C 20 44.1145833333333  20.1171875 44.4140625  20.3515625 44.6484375  C 20.5859375 44.8828125  20.8854166666667 45  21.25 45  L 23.75 45  C 24.1145833333333 45  24.4140625 44.8828125  24.6484375 44.6484375  C 24.8828125 44.4140625  25 44.1145833333333  25 43.75  L 25 41.25  C 25 40.8854166666667  24.8828125 40.5859375  24.6484375 40.3515625  C 24.4140625 40.1171875  24.1145833333333 40  23.75 40  L 21.25 40  C 20.8854166666667 40  20.5859375 40.1171875  20.3515625 40.3515625  Z M 14.6484375 54.6484375  C 14.8828125 54.4140625  15 54.1145833333333  15 53.75  L 15 51.25  C 15 50.8854166666667  14.8828125 50.5859375  14.6484375 50.3515625  C 14.4140625 50.1171875  14.1145833333333 50  13.75 50  L 11.25 50  C 10.8854166666667 50  10.5859375 50.1171875  10.3515625 50.3515625  C 10.1171875 50.5859375  10 50.8854166666667  10 51.25  L 10 53.75  C 10 54.1145833333333  10.1171875 54.4140625  10.3515625 54.6484375  C 10.5859375 54.8828125  10.8854166666667 55  11.25 55  L 13.75 55  C 14.1145833333333 55  14.4140625 54.8828125  14.6484375 54.6484375  Z M 14.6484375 44.6484375  C 14.8828125 44.4140625  15 44.1145833333333  15 43.75  L 15 41.25  C 15 40.8854166666667  14.8828125 40.5859375  14.6484375 40.3515625  C 14.4140625 40.1171875  14.1145833333333 40  13.75 40  L 11.25 40  C 10.8854166666667 40  10.5859375 40.1171875  10.3515625 40.3515625  C 10.1171875 40.5859375  10 40.8854166666667  10 41.25  L 10 43.75  C 10 44.1145833333333  10.1171875 44.4140625  10.3515625 44.6484375  C 10.5859375 44.8828125  10.8854166666667 45  11.25 45  L 13.75 45  C 14.1145833333333 45  14.4140625 44.8828125  14.6484375 44.6484375  Z M 14.6484375 34.6484375  C 14.8828125 34.4140625  15 34.1145833333333  15 33.75  L 15 31.25  C 15 30.8854166666667  14.8828125 30.5859375  14.6484375 30.3515625  C 14.4140625 30.1171875  14.1145833333333 30  13.75 30  L 11.25 30  C 10.8854166666667 30  10.5859375 30.1171875  10.3515625 30.3515625  C 10.1171875 30.5859375  10 30.8854166666667  10 31.25  L 10 33.75  C 10 34.1145833333333  10.1171875 34.4140625  10.3515625 34.6484375  C 10.5859375 34.8828125  10.8854166666667 35  11.25 35  L 13.75 35  C 14.1145833333333 35  14.4140625 34.8828125  14.6484375 34.6484375  Z M 14.6484375 24.6484375  C 14.8828125 24.4140625  15 24.1145833333333  15 23.75  L 15 21.25  C 15 20.8854166666667  14.8828125 20.5859375  14.6484375 20.3515625  C 14.4140625 20.1171875  14.1145833333333 20  13.75 20  L 11.25 20  C 10.8854166666667 20  10.5859375 20.1171875  10.3515625 20.3515625  C 10.1171875 20.5859375  10 20.8854166666667  10 21.25  L 10 23.75  C 10 24.1145833333333  10.1171875 24.4140625  10.3515625 24.6484375  C 10.5859375 24.8828125  10.8854166666667 25  11.25 25  L 13.75 25  C 14.1145833333333 25  14.4140625 24.8828125  14.6484375 24.6484375  Z M 14.6484375 14.6484375  C 14.8828125 14.4140625  15 14.1145833333333  15 13.75  L 15 11.25  C 15 10.8854166666667  14.8828125 10.5859375  14.6484375 10.3515625  C 14.4140625 10.1171875  14.1145833333333 10  13.75 10  L 11.25 10  C 10.8854166666667 10  10.5859375 10.1171875  10.3515625 10.3515625  C 10.1171875 10.5859375  10 10.8854166666667  10 11.25  L 10 13.75  C 10 14.1145833333333  10.1171875 14.4140625  10.3515625 14.6484375  C 10.5859375 14.8828125  10.8854166666667 15  11.25 15  L 13.75 15  C 14.1145833333333 15  14.4140625 14.8828125  14.6484375 14.6484375  Z M 34.6484375 64.6484375  C 34.8828125 64.4140625  35 64.1145833333333  35 63.75  L 35 56.25  C 35 55.8854166666667  34.8828125 55.5859375  34.6484375 55.3515625  C 34.4140625 55.1171875  34.1145833333333 55  33.75 55  L 21.25 55  C 20.8854166666667 55  20.5859375 55.1171875  20.3515625 55.3515625  C 20.1171875 55.5859375  20 55.8854166666667  20 56.25  L 20 63.75  C 20 64.1145833333333  20.1171875 64.4140625  20.3515625 64.6484375  C 20.5859375 64.8828125  20.8854166666667 65  21.25 65  L 33.75 65  C 34.1145833333333 65  34.4140625 64.8828125  34.6484375 64.6484375  Z M 34.6484375 44.6484375  C 34.8828125 44.4140625  35 44.1145833333333  35 43.75  L 35 41.25  C 35 40.8854166666667  34.8828125 40.5859375  34.6484375 40.3515625  C 34.4140625 40.1171875  34.1145833333333 40  33.75 40  L 31.25 40  C 30.8854166666667 40  30.5859375 40.1171875  30.3515625 40.3515625  C 30.1171875 40.5859375  30 40.8854166666667  30 41.25  L 30 43.75  C 30 44.1145833333333  30.1171875 44.4140625  30.3515625 44.6484375  C 30.5859375 44.8828125  30.8854166666667 45  31.25 45  L 33.75 45  C 34.1145833333333 45  34.4140625 44.8828125  34.6484375 44.6484375  Z M 34.6484375 34.6484375  C 34.8828125 34.4140625  35 34.1145833333333  35 33.75  L 35 31.25  C 35 30.8854166666667  34.8828125 30.5859375  34.6484375 30.3515625  C 34.4140625 30.1171875  34.1145833333333 30  33.75 30  L 31.25 30  C 30.8854166666667 30  30.5859375 30.1171875  30.3515625 30.3515625  C 30.1171875 30.5859375  30 30.8854166666667  30 31.25  L 30 33.75  C 30 34.1145833333333  30.1171875 34.4140625  30.3515625 34.6484375  C 30.5859375 34.8828125  30.8854166666667 35  31.25 35  L 33.75 35  C 34.1145833333333 35  34.4140625 34.8828125  34.6484375 34.6484375  Z M 34.6484375 24.6484375  C 34.8828125 24.4140625  35 24.1145833333333  35 23.75  L 35 21.25  C 35 20.8854166666667  34.8828125 20.5859375  34.6484375 20.3515625  C 34.4140625 20.1171875  34.1145833333333 20  33.75 20  L 31.25 20  C 30.8854166666667 20  30.5859375 20.1171875  30.3515625 20.3515625  C 30.1171875 20.5859375  30 20.8854166666667  30 21.25  L 30 23.75  C 30 24.1145833333333  30.1171875 24.4140625  30.3515625 24.6484375  C 30.5859375 24.8828125  30.8854166666667 25  31.25 25  L 33.75 25  C 34.1145833333333 25  34.4140625 24.8828125  34.6484375 24.6484375  Z M 34.6484375 14.6484375  C 34.8828125 14.4140625  35 14.1145833333333  35 13.75  L 35 11.25  C 35 10.8854166666667  34.8828125 10.5859375  34.6484375 10.3515625  C 34.4140625 10.1171875  34.1145833333333 10  33.75 10  L 31.25 10  C 30.8854166666667 10  30.5859375 10.1171875  30.3515625 10.3515625  C 30.1171875 10.5859375  30 10.8854166666667  30 11.25  L 30 13.75  C 30 14.1145833333333  30.1171875 14.4140625  30.3515625 14.6484375  C 30.5859375 14.8828125  30.8854166666667 15  31.25 15  L 33.75 15  C 34.1145833333333 15  34.4140625 14.8828125  34.6484375 14.6484375  Z M 44.6484375 54.6484375  C 44.8828125 54.4140625  45 54.1145833333333  45 53.75  L 45 51.25  C 45 50.8854166666667  44.8828125 50.5859375  44.6484375 50.3515625  C 44.4140625 50.1171875  44.1145833333333 50  43.75 50  L 41.25 50  C 40.8854166666667 50  40.5859375 50.1171875  40.3515625 50.3515625  C 40.1171875 50.5859375  40 50.8854166666667  40 51.25  L 40 53.75  C 40 54.1145833333333  40.1171875 54.4140625  40.3515625 54.6484375  C 40.5859375 54.8828125  40.8854166666667 55  41.25 55  L 43.75 55  C 44.1145833333333 55  44.4140625 54.8828125  44.6484375 54.6484375  Z M 44.6484375 44.6484375  C 44.8828125 44.4140625  45 44.1145833333333  45 43.75  L 45 41.25  C 45 40.8854166666667  44.8828125 40.5859375  44.6484375 40.3515625  C 44.4140625 40.1171875  44.1145833333333 40  43.75 40  L 41.25 40  C 40.8854166666667 40  40.5859375 40.1171875  40.3515625 40.3515625  C 40.1171875 40.5859375  40 40.8854166666667  40 41.25  L 40 43.75  C 40 44.1145833333333  40.1171875 44.4140625  40.3515625 44.6484375  C 40.5859375 44.8828125  40.8854166666667 45  41.25 45  L 43.75 45  C 44.1145833333333 45  44.4140625 44.8828125  44.6484375 44.6484375  Z M 44.6484375 34.6484375  C 44.8828125 34.4140625  45 34.1145833333333  45 33.75  L 45 31.25  C 45 30.8854166666667  44.8828125 30.5859375  44.6484375 30.3515625  C 44.4140625 30.1171875  44.1145833333333 30  43.75 30  L 41.25 30  C 40.8854166666667 30  40.5859375 30.1171875  40.3515625 30.3515625  C 40.1171875 30.5859375  40 30.8854166666667  40 31.25  L 40 33.75  C 40 34.1145833333333  40.1171875 34.4140625  40.3515625 34.6484375  C 40.5859375 34.8828125  40.8854166666667 35  41.25 35  L 43.75 35  C 44.1145833333333 35  44.4140625 34.8828125  44.6484375 34.6484375  Z M 44.6484375 24.6484375  C 44.8828125 24.4140625  45 24.1145833333333  45 23.75  L 45 21.25  C 45 20.8854166666667  44.8828125 20.5859375  44.6484375 20.3515625  C 44.4140625 20.1171875  44.1145833333333 20  43.75 20  L 41.25 20  C 40.8854166666667 20  40.5859375 20.1171875  40.3515625 20.3515625  C 40.1171875 20.5859375  40 20.8854166666667  40 21.25  L 40 23.75  C 40 24.1145833333333  40.1171875 24.4140625  40.3515625 24.6484375  C 40.5859375 24.8828125  40.8854166666667 25  41.25 25  L 43.75 25  C 44.1145833333333 25  44.4140625 24.8828125  44.6484375 24.6484375  Z M 44.6484375 14.6484375  C 44.8828125 14.4140625  45 14.1145833333333  45 13.75  L 45 11.25  C 45 10.8854166666667  44.8828125 10.5859375  44.6484375 10.3515625  C 44.4140625 10.1171875  44.1145833333333 10  43.75 10  L 41.25 10  C 40.8854166666667 10  40.5859375 10.1171875  40.3515625 10.3515625  C 40.1171875 10.5859375  40 10.8854166666667  40 11.25  L 40 13.75  C 40 14.1145833333333  40.1171875 14.4140625  40.3515625 14.6484375  C 40.5859375 14.8828125  40.8854166666667 15  41.25 15  L 43.75 15  C 44.1145833333333 15  44.4140625 14.8828125  44.6484375 14.6484375  Z " fill-rule="nonzero" fill="#ffffff" stroke="none" transform="matrix(1 0 0 1 633 249 )" />
  </g>
</svg>