<?xml version="1.0" encoding="utf-8"?>
<svg version="1.1" xmlns:xlink="http://www.w3.org/1999/xlink" width="70px" height="70px" xmlns="http://www.w3.org/2000/svg">
  <g transform="matrix(1 0 0 1 -627 -928 )">
    <path d="M 62.4999999804688 70  L 7.50000001953125 70  C 3.35814402723244 69.9996045756624  0.000716027435854229 66.6418560258229  0.000716027435854229 62.5000000146484  C 0.000716027435854229 58.358144003474  3.35814402723244 55.0003954536344  7.50000001953125 55  L 19.0150000195313 55  L 52.6299999804687 35.595  L 56.7899999707031 55.0000000292969  L 62.4999999804688 55.0000000292969  C 66.6418559727676 55.0003954536344  69.9992839725642 58.358144003474  69.9992839725642 62.5000000146484  C 69.9992839725642 66.6418560258229  66.6418559727676 69.9996045756625  62.4999999804688 70  Z M 18.515 30.2900000292969  L 47.8600000292969 13.3450000195313  L 50.4249999804687 25.3150000195313  L 15.225 45.64  L 18.515 30.2900000292969  Z M 25.0000000195313 0  L 44.9999999804688 0  L 45.6599999707031 3.06999998046875  L 21.3349999707031 17.1099999902344  L 25.0000000195313 0  Z " fill-rule="nonzero" fill="#ffffff" stroke="none" transform="matrix(1 0 0 1 627 928 )" />
  </g>
</svg>