<?xml version="1.0" encoding="utf-8"?>
<svg version="1.1" xmlns:xlink="http://www.w3.org/1999/xlink" width="72px" height="67px" xmlns="http://www.w3.org/2000/svg">
  <g transform="matrix(1 0 0 1 -628 -481 )">
    <path d="M 0 14.3571428571429  L 36 0  L 72 14.3571428571429  L 72 19.1428571428571  L 67.2 19.1428571428571  C 67.2 19.7909226190476  66.94375 20.3517485119048  66.43125 20.8253348214286  C 65.91875 21.2989211309524  65.3125 21.5357142857143  64.6125 22  L 7.3875 22  C 6.6875 21.5357142857143  6.08125 21.2989211309524  5.56875 20.8253348214286  C 5.05625 20.3517485119048  4.8 19.7909226190476  4.8 19.1428571428571  L 0 19.1428571428571  L 0 14.3571428571429  Z M 10 52.6428571428571  L 10 23.9285714285714  L 20 23.9285714285714  L 20 52.6428571428571  L 24 52.6428571428571  L 24 23.9285714285714  L 34 23.9285714285714  L 34 52.6428571428571  L 38 52.6428571428571  L 38 24  L 48 24  L 48 52.6428571428571  L 52 52.6428571428571  L 52 24  L 62 24  L 62 52.6428571428571  L 64.6125 52.6428571428571  C 65.3125 52.6428571428571  65.91875 52.879650297619  66.43125 53.3532366071429  C 66.94375 53.8268229166667  67.2 54.3876488095238  67.2 55.0357142857143  L 67.2 57  L 4.8 57  L 4.8 55.0357142857143  C 4.8 54.3876488095238  5.05625 53.8268229166667  5.56875 53.3532366071429  C 6.08125 52.879650297619  6.6875 52.6428571428571  7.3875 52.6428571428571  L 10 52.6428571428571  Z M 2.5875 59  L 69.4125 59  C 70.1125 59.8214285714286  70.71875 60.0582217261905  71.23125 60.5318080357143  C 71.74375 61.0053943452381  72 61.5662202380952  72 62.2142857142857  L 72 67  L 0 67  L 0 62.2142857142857  C 0 61.5662202380952  0.25625 61.0053943452381  0.76875 60.5318080357143  C 1.28125 60.0582217261905  1.8875 59.8214285714286  2.5875 59  Z " fill-rule="nonzero" fill="#ffffff" stroke="none" transform="matrix(1 0 0 1 628 481 )" />
  </g>
</svg>