<?xml version="1.0" encoding="utf-8"?>
<svg version="1.1" xmlns:xlink="http://www.w3.org/1999/xlink" width="86px" height="70px" xmlns="http://www.w3.org/2000/svg">
  <g transform="matrix(1 0 0 1 -618 -703 )">
    <path d="M 83.4705882352941 45  L 68.2941176470588 17.5  L 53.1176470588235 45  L 83.4705882352941 45  Z M 32.8823529411765 45  L 17.7058823529412 17.5  L 2.52941176470588 45  L 32.8823529411765 45  Z M 69.5588235294118 10  L 50.1534926470588 10  C 49.7846200980392 11.0416666666667  49.1852022058823 11.97265625  48.3552389705882 12.79296875  C 47.5252757352941 13.61328125  46.5833333333333 14.2057291666667  45 14.5703125  L 45 65  L 69.5588235294118 65  C 69.9276960784314 65  70.2306985294118 65.1171875  70.4678308823529 65.3515625  C 70.7049632352941 65.5859375  70.8235294117647 65.8854166666667  70.8235294117647 66.25  L 70.8235294117647 68.75  C 70.8235294117647 69.1145833333333  70.7049632352941 69.4140625  70.4678308823529 69.6484375  C 70.2306985294118 69.8828125  69.9276960784314 70  69.5588235294118 70  L 16.4411764705882 70  C 16.0723039215686 70  15.7693014705882 69.8828125  15.5321691176471 69.6484375  C 15.2950367647059 69.4140625  15.1764705882353 69.1145833333333  15.1764705882353 68.75  L 15.1764705882353 66.25  C 15.1764705882353 65.8854166666667  15.2950367647059 65.5859375  15.5321691176471 65.3515625  C 15.7693014705882 65.1171875  16.0723039215686 65  16.4411764705882 65  L 41 65  L 41 14.5703125  C 39.4166666666667 14.2057291666667  38.4747242647059 13.61328125  37.6447610294118 12.79296875  C 36.8147977941177 11.97265625  36.2153799019608 11.0416666666667  35.8465073529412 10  L 16.4411764705882 10  C 16.0723039215686 10  15.7693014705882 9.8828125  15.5321691176471 9.6484375  C 15.2950367647059 9.4140625  15.1764705882353 9.11458333333333  15.1764705882353 8.75  L 15.1764705882353 6.25  C 15.1764705882353 5.88541666666666  15.2950367647059 5.5859375  15.5321691176471 5.3515625  C 15.7693014705882 5.1171875  16.0723039215686 5  16.4411764705882 5  L 35.8465073529412 5  C 36.3998161764706 3.515625  37.3219975490196 2.31119791666666  38.6130514705882 1.38671875  C 39.9041053921569 0.462239583333337  41.3664215686275 0  43 0  C 44.6335784313726 0  46.0958946078432 0.462239583333337  47.3869485294118 1.38671875  C 48.6780024509804 2.31119791666666  49.6001838235294 3.515625  50.1534926470588 5  L 69.5588235294118 5  C 69.9276960784314 5  70.2306985294118 5.1171875  70.4678308823529 5.3515625  C 70.7049632352941 5.5859375  70.8235294117647 5.88541666666666  70.8235294117647 6.25  L 70.8235294117647 8.75  C 70.8235294117647 9.11458333333333  70.7049632352941 9.4140625  70.4678308823529 9.6484375  C 70.2306985294118 9.8828125  69.9276960784314 10  69.5588235294118 10  Z M 40.7670036764706 9.70703125  C 41.3861825980392 10.3190104166667  42.1305147058823 10.625  43 10.625  C 43.8694852941177 10.625  44.6138174019608 10.3190104166667  45.2329963235294 9.70703125  C 45.852175245098 9.09505208333333  46.1617647058823 8.359375  46.1617647058823 7.5  C 46.1617647058823 6.640625  45.852175245098 5.90494791666666  45.2329963235294 5.29296875  C 44.6138174019608 4.68098958333333  43.8694852941177 4.375  43 4.375  C 42.1305147058823 4.375  41.3861825980392 4.68098958333333  40.7670036764706 5.29296875  C 40.147824754902 5.90494791666666  39.8382352941177 6.640625  39.8382352941177 7.5  C 39.8382352941177 8.359375  40.147824754902 9.09505208333333  40.7670036764706 9.70703125  Z M 84.6167279411765 41.8359375  C 85.5389093137255 43.6588541666667  86 44.7135416666667  86 45  C 86 46.9010416666667  85.3874080882353 48.6067708333333  84.1622242647059 50.1171875  C 82.9370404411765 51.6276041666667  81.3890931372549 52.8125  79.5183823529412 53.671875  C 77.6476715686275 54.53125  75.7440257352941 55.17578125  73.8074448529412 55.60546875  C 71.8708639705882 56.03515625  70.0330882352941 56.25  68.2941176470588 56.25  C 66.5551470588235 56.25  64.7173713235294 56.03515625  62.7807904411765 55.60546875  C 60.8442095588235 55.17578125  58.9405637254902 54.53125  57.0698529411765 53.671875  C 55.1991421568627 52.8125  53.6511948529412 51.6276041666667  52.4260110294118 50.1171875  C 51.2008272058823 48.6067708333333  50.5882352941177 46.9010416666667  50.5882352941177 45  C 50.5882352941177 44.7135416666667  51.0493259803922 43.6588541666667  51.9715073529412 41.8359375  C 52.8936887254902 40.0130208333333  54.1056985294118 37.7408854166667  55.6075367647059 35.01953125  C 57.109375 32.2981770833333  58.5189950980392 29.7526041666667  59.8363970588235 27.3828125  C 61.1537990196079 25.0130208333333  62.4975490196079 22.6171875  63.8676470588235 20.1953125  C 65.2377450980392 17.7734375  65.9754901960784 16.4713541666667  66.0808823529412 16.2890625  C 66.5551470588235 15.4296875  67.2928921568627 15  68.2941176470588 15  C 69.2953431372549 15  70.0330882352941 15.4296875  70.5073529411765 16.2890625  C 70.6127450980392 16.4713541666667  71.3504901960784 17.7734375  72.7205882352941 20.1953125  C 74.0906862745098 22.6171875  75.4344362745098 25.0130208333333  76.7518382352941 27.3828125  C 78.0692401960784 29.7526041666667  79.4788602941177 32.2981770833333  80.9806985294118 35.01953125  C 82.4825367647059 37.7408854166667  83.6945465686275 40.0130208333333  84.6167279411765 41.8359375  Z M 34.0284926470588 41.8359375  C 34.9506740196078 43.6588541666667  35.4117647058823 44.7135416666667  35.4117647058823 45  C 35.4117647058823 46.9010416666667  34.7991727941177 48.6067708333333  33.5739889705882 50.1171875  C 32.3488051470588 51.6276041666667  30.8008578431373 52.8125  28.9301470588235 53.671875  C 27.0594362745098 54.53125  25.1557904411765 55.17578125  23.2192095588235 55.60546875  C 21.2826286764706 56.03515625  19.4448529411765 56.25  17.7058823529412 56.25  C 15.9669117647059 56.25  14.1291360294118 56.03515625  12.1925551470588 55.60546875  C 10.2559742647059 55.17578125  8.35232843137255 54.53125  6.48161764705882 53.671875  C 4.6109068627451 52.8125  3.06295955882353 51.6276041666667  1.83777573529412 50.1171875  C 0.612591911764706 48.6067708333333  0 46.9010416666667  0 45  C 0 44.7135416666667  0.46109068627451 43.6588541666667  1.38327205882353 41.8359375  C 2.30545343137255 40.0130208333333  3.51746323529412 37.7408854166667  5.01930147058824 35.01953125  C 6.52113970588235 32.2981770833333  7.93075980392157 29.7526041666667  9.24816176470588 27.3828125  C 10.5655637254902 25.0130208333333  11.9093137254902 22.6171875  13.2794117647059 20.1953125  C 14.6495098039216 17.7734375  15.3872549019608 16.4713541666667  15.4926470588235 16.2890625  C 15.9669117647059 15.4296875  16.7046568627451 15  17.7058823529412 15  C 18.7071078431373 15  19.4448529411765 15.4296875  19.9191176470588 16.2890625  C 20.0245098039216 16.4713541666667  20.7622549019608 17.7734375  22.1323529411765 20.1953125  C 23.5024509803922 22.6171875  24.8462009803922 25.0130208333333  26.1636029411765 27.3828125  C 27.4810049019608 29.7526041666667  28.890625 32.2981770833333  30.3924632352941 35.01953125  C 31.8943014705882 37.7408854166667  33.1063112745098 40.0130208333333  34.0284926470588 41.8359375  Z " fill-rule="nonzero" fill="#ffffff" stroke="none" transform="matrix(1 0 0 1 618 703 )" />
  </g>
</svg>