<?xml version="1.0" encoding="utf-8"?>
<svg version="1.1" xmlns:xlink="http://www.w3.org/1999/xlink" width="21px" height="8px" xmlns="http://www.w3.org/2000/svg">
  <g transform="matrix(1 0 0 1 -1121 -259 )">
    <path d="M 11.165 6.79166666666667  C 11.165 7.45  10.605 7.98333333333333  9.91375 7.98333333333333  C 9.2225 7.98333333333333  8.66249999999999 7.45  8.66249999999999 6.79166666666667  L 8.66249999999999 2.30833333333333  C 8.66249999999999 1.65  9.22249999999999 1.11666666666666  9.91375 1.11666666666666  C 10.605 1.11666666666666  11.165 1.65  11.165 2.30833333333333  L 11.165 6.79166666666667  Z M 2.56375 6.79166666666667  C 2.5725 7.45  2.0125 7.98333333333333  1.3125 7.98333333333333  C 0.621250000000002 7.98333333333333  0.061249999999999 7.45  0.061249999999999 6.79166666666667  L 0.061249999999999 4.28333333333333  C 0.061249999999999 3.625  0.621249999999997 3.09166666666667  1.3125 3.09166666666667  C 2.00375 3.09166666666667  2.56375 3.625  2.56375 4.28333333333333  L 2.56375 6.79166666666667  Z M 19.7575 6.79166666666667  C 19.76625 7.45  19.1975 7.98333333333333  18.50625 7.98333333333333  C 17.815 7.98333333333333  17.255 7.45  17.255 6.79166666666667  L 17.255 4.28333333333333  C 17.255 3.625  17.815 3.09166666666667  18.50625 3.09166666666667  C 19.1975 3.09166666666667  19.7575 3.625  19.7575 4.28333333333333  L 19.7575 6.79166666666667  Z " fill-rule="nonzero" fill="#ffffff" stroke="none" transform="matrix(1 0 0 1 1121 259 )" />
  </g>
</svg>