<?xml version="1.0" encoding="utf-8"?>
<svg version="1.1" xmlns:xlink="http://www.w3.org/1999/xlink" width="48px" height="7px" xmlns="http://www.w3.org/2000/svg">
  <g transform="matrix(1 0 0 1 -1106 -264 )">
    <path d="M 47.6166666666667 5.46  C 47.6166666666667 6.15125  47.0833333333333 6.71125  46.425 6.71125  C 45.7666666666667 6.71125  45.2333333333333 6.15125  45.2333333333333 5.46  L 45.2333333333333 1.54875  C 45.2333333333333 0.857499999999998  45.7666666666667 0.297499999999998  46.425 0.297499999999998  C 47.0833333333333 0.297499999999998  47.6166666666667 0.857499999999998  47.6166666666667 1.54875  L 47.6166666666667 5.46  Z M 2.73333333333333 5.46  C 2.74166666666667 6.15125  2.2 6.71125  1.54166666666667 6.71125  C 0.883333333333333 6.71125  0.349999999999999 6.15125  0.349999999999999 5.46  L 0.349999999999999 1.54875  C 0.349999999999999 0.857499999999998  0.883333333333333 0.297499999999998  1.54166666666667 0.297499999999998  C 2.2 0.297499999999998  2.73333333333333 0.857499999999998  2.73333333333333 1.54875  L 2.73333333333333 5.46  Z " fill-rule="nonzero" fill="#ffffff" stroke="none" transform="matrix(1 0 0 1 1106 264 )" />
  </g>
</svg>