<?xml version="1.0" encoding="utf-8"?>
<svg version="1.1" xmlns:xlink="http://www.w3.org/1999/xlink" width="64px" height="47px" xmlns="http://www.w3.org/2000/svg">
  <g transform="matrix(1 0 0 1 -1099 -271 )">
    <path d="M 54.4166666666667 37.9944642857143  L 54.4166666666667 34.6541071428571  L 61.3166666666667 34.6541071428571  L 61.3166666666667 37.9944642857143  L 54.4166666666667 37.9944642857143  Z M 2.00833333333333 46.0767857142857  L 2.00833333333333 42.7364285714286  L 8.90833333333333 42.7364285714286  L 8.90833333333333 46.0767857142857  L 2.00833333333333 46.0767857142857  Z M 0.599999999999999 32.1278571428571  L 0.599999999999999 28.7875  L 7.5 28.7875  L 7.5 32.1278571428571  L 0.599999999999999 32.1278571428571  Z M 12.0833333333333 24.2721428571429  L 12.0833333333333 20.9317857142857  L 18.9833333333333 20.9317857142857  L 18.9833333333333 24.2721428571429  L 12.0833333333333 24.2721428571429  Z M 7.31666666666667 14.4944642857143  L 7.31666666666667 11.1541071428571  L 14.2166666666667 11.1541071428571  L 14.2166666666667 14.4944642857143  L 7.31666666666667 14.4944642857143  Z M 41.5833333333333 10.4239285714286  L 41.5833333333333 7.08357142857143  L 48.4833333333333 7.08357142857143  L 48.4833333333333 10.4239285714286  L 41.5833333333333 10.4239285714286  Z M 35.5166666666667 22.1403571428571  L 35.5166666666667 18.8  L 42.4166666666667 18.8  L 42.4166666666667 22.1403571428571  L 35.5166666666667 22.1403571428571  Z M 43 30.4576785714286  L 43 27.1173214285714  L 49.9 27.1173214285714  L 49.9 30.4576785714286  L 43 30.4576785714286  Z M 59.4583333333333 19.2783928571429  L 59.4583333333333 15.9380357142857  L 62.9083333333333 15.9380357142857  L 62.9083333333333 19.2783928571429  L 59.4583333333333 19.2783928571429  Z M 43 46.0767857142857  L 43 42.7364285714286  L 49.9 42.7364285714286  L 49.9 46.0767857142857  L 43 46.0767857142857  Z M 11.0833333333333 6  L 11.0833333333333 1  L 50.2083333333333 1  L 50.2083333333333 6  L 11.0833333333333 6  Z " fill-rule="nonzero" fill="#ffffff" stroke="none" transform="matrix(1 0 0 1 1099 271 )" />
  </g>
</svg>