<?xml version="1.0" encoding="utf-8"?>
<svg version="1.1" xmlns:xlink="http://www.w3.org/1999/xlink" width="15px" height="13px" xmlns="http://www.w3.org/2000/svg">
  <g transform="matrix(1 0 0 1 -1144 -285 )">
    <path d="M 11.9232954545455 4.01736111111111  L 3.43465909090909 4.01736111111111  C 3.21306818181818 4.01736111111111  3.02556818181818 4.21597222222222  3.02556818181818 4.45069444444444  L 3.02556818181818 8.82013888888888  C 3.02556818181818 9.05486111111111  3.21306818181819 9.25347222222221  3.43465909090909 9.25347222222221  L 11.9232954545455 9.25347222222221  C 12.1448863636364 9.25347222222221  12.3323863636364 9.0548611111111  12.3323863636364 8.82013888888888  L 12.3323863636364 4.45069444444444  C 12.3323863636364 4.21597222222222  12.1448863636364 4.01736111111111  11.9232954545455 4.01736111111111  Z M 14.7698863636364 8.82013888888889  C 14.7698863636364 10.48125  13.4914772727273 11.8354166666667  11.9232954545455 11.8354166666667  L 3.43465909090909 11.8354166666667  C 1.86647727272727 11.8354166666667  0.58806818181818 10.48125  0.58806818181818 8.82013888888889  L 0.58806818181818 4.45069444444445  C 0.58806818181818 2.78958333333334  1.86647727272727 1.43541666666668  3.43465909090909 1.43541666666668  L 11.9232954545455 1.43541666666668  C 13.4914772727273 1.43541666666668  14.7698863636364 2.78958333333334  14.7698863636364 4.45069444444445  L 14.7698863636364 8.82013888888889  Z " fill-rule="nonzero" fill="#ffffff" stroke="none" transform="matrix(1 0 0 1 1144 285 )" />
  </g>
</svg>