<?xml version="1.0" encoding="utf-8"?>
<svg version="1.1" xmlns:xlink="http://www.w3.org/1999/xlink" width="67px" height="69px" xmlns="http://www.w3.org/2000/svg">
  <g transform="matrix(1 0 0 1 -1099 -480 )">
    <path d="M 66 55.0043973214286  C 66.5317023462604 51.9069236848487  65.9758880478605 48.8344964119651  64.8930671296296 45.9296651785714  C 61.8913166033199 37.8803085196981  55.1714799647509 31.7579130627615  46.837962962963 29.4797879464286  L 46.837962962963 25.7209821428571  L 51.1270486111111 25.7209821428571  C 52.6601696346717 25.730561587775  54.1327048577054 25.1272008391236  55.212962962963 24.0468080357143  C 55.6039249918863 23.6568242333374  55.8234192321655 23.1289305553233  55.8234192321655 22.5786328125  C 55.8234192321655 21.4293575132988  54.8852463224914 20.4976858018261  53.7279513888889 20.4976858018261  C 53.1705834960123 20.4976858018261  52.6361808374546 20.7182004954652  52.2429398148148 21.1104575892857  C 51.9475479935007 21.4043631396764  51.5451664427516 21.5673660611296  51.1270486111111 21.5625  L 48.6215277777778 21.5625  L 48.6215277777778 15.1160825892857  C 48.6215277777778 6.82256550337799  41.8513891858094 0.0993415178571433  33.5 0.0993415178571433  C 25.1486108141906 0.0993415178571433  18.3784722222222 6.82256550337799  18.3784722222222 15.1160825892857  L 18.3784722222222 21.5625  L 15.8651967592593 21.5625  C 15.4488494244353 21.5691938785595  15.0472800703424 21.4093462129787  14.7508564814815 21.1189285714286  C 14.3617146959338 20.7517143797402  13.8454098927828 20.5469583165795  13.3085988736748 20.5469583165795  C 12.1522526787166 20.5469583165795  11.2148488736748 21.4778662530363  11.2148488736748 22.6261993880081  C 11.2148488736748 23.1574078274144  11.4195834957709 23.6684712026249  11.787037037037 24.0545089285714  C 12.8670840231689 25.1295796866681  14.3360187356834 25.7298358116552  15.8651967592593 25.7209821428571  L 20.162037037037 25.7209821428571  L 20.162037037037 29.4790178571429  C 8.68518518518519 32.5840178571429  0.465277777777778 43.0572321428571  1 55.0043973214286  L 1 66.8191071428571  C 0.480021575157939 67.9791263066838  1.42652520389486 68.9142788649388  2.59469907407407 69  L 64.4053009259259 69  C 65.5734747961051 68.9142788649387  66.5199784248421 67.9791263066838  66 66.8191071428571  L 66 55.0043973214286  Z M 22.7613888888889 13.0915178571429  C 23.1669560185185 10.9352678571429  24.204525462963 9.02082589285714  25.7810416666667 7.45446428571429  C 27.8224988413977 5.41104468252331  30.6010628911605 4.26169959803029  33.4996122685185 4.26169959803029  C 36.3981616458766 4.26169959803029  39.1767256956394 5.41104468252332  41.2181828703704 7.45446428571429  C 42.795474537037 9.02159598214286  43.8330439814815 10.9352678571429  44.2386111111111 13.0915178571429  L 38.9476273148148 13.0915178571429  C 38.0814624444777 10.8524362208849  35.9157428644375 9.37469939889814  33.5003877314815 9.37469939889814  C 31.0850325985255 9.37469939889814  28.9193130184853 10.8524362208849  28.0531481481481 13.0915178571429  L 22.7613888888889 13.0915178571429  Z M 33.5 13.525078125  C 34.4104125464474 13.526350616288  35.1481283514996 14.2589543182135  35.1494097222222 15.1630580357143  C 35.1494097222222 16.067689360931  34.410943835806 16.8010379464286  33.5 16.8010379464286  C 32.589056164194 16.8010379464286  31.8505902777778 16.067689360931  31.8505902777778 15.1630580357143  C 31.8505902777778 14.2584267104976  32.589056164194 13.525078125  33.5 13.525078125  Z M 22.5659722222222 22  L 22.5659722222222 17.25  L 28.0523726851852 17.25  C 28.9185375555223 19.489081636258  31.0842571355625 20.9668184582447  33.4996122685185 20.9668184582447  C 35.9149674014745 20.9668184582447  38.0806869815147 19.489081636258  38.9468518518519 17.25  L 44.4340277777778 17.25  L 44.4340277777778 22  L 22.5659722222222 22  Z M 24.349537037037 26  L 42.650462962963 26  L 42.650462962963 31.7161272321429  C 42.650462962963 36.7347683405383  38.5536611483359 40.8031808035714  33.5 40.8031808035714  C 28.4463388516641 40.8031808035714  24.349537037037 36.7347683405383  24.349537037037 31.7161272321429  L 24.349537037037 26  Z M 4.75668981481482 53  C 5.46158564814815 44.2693526785714  11.6792476851852 36.5130133928571  20.3279861111111 33.766875  C 21.3252314814815 40.0970089285714  26.8511805555556 44.9562723214286  33.5 44.9562723214286  C 40.1488194444444 44.9562723214286  45.6747685185185 40.0977790178571  46.6720138888889 33.7676450892857  C 55.317650462963 36.5145535714286  61.5376388888889 44.2762834821429  62.2433101851852 53  L 4.75668981481482 53  Z M 62.3472222222222 64  L 4.65277777777778 64  L 4.65277777777778 57  L 62.3472222222222 57  L 62.3472222222222 64  Z " fill-rule="nonzero" fill="#ffffff" stroke="none" transform="matrix(1 0 0 1 1099 480 )" />
  </g>
</svg>