<?xml version="1.0" encoding="utf-8"?>
<svg version="1.1" xmlns:xlink="http://www.w3.org/1999/xlink" width="47px" height="34px" xmlns="http://www.w3.org/2000/svg">
  <g transform="matrix(1 0 0 1 -1107 -949 )">
    <path d="M 44.44555 5  L 2.35 5  C 2.35 4.68965517241379  2.35 4.68965517241379  2.35 4.68965517241379  C 1.05213083789764 4.68965517241379  0 3.63984010305152  0 2.3448275862069  C 0 1.04981506936228  1.05213083789764 0  2.35 0  L 44.44555 0  C 45.7434191621024 0  46.79555 1.04981506936228  46.79555 2.3448275862069  C 46.79555 3.63984010305152  45.7434191621024 4.68965517241379  44.44555 4.68965517241379  C 44.44555 4.68965517241379  44.44555 4.68965517241379  44.44555 5  Z M 7 31.416  C 7.05 32.7110125168446  5.99786916210236 33.7608275862069  4.7 33.7608275862069  L 2.35 33.7608275862069  C 1.05213083789764 33.7608275862069  0 32.7110125168446  0 31.416  L 0 19.9310344827586  C 0 18.636021965914  1.05213083789764 17.5862068965517  2.35 17.5862068965517  L 4.7 17.5862068965517  C 5.99786916210236 17.5862068965517  7.05 18.636021965914  7 19.9310344827586  L 7 31.416  Z M 47 31.416  C 47 32.7110125168446  45.9478691621024 33.7608275862069  44.65 33.7608275862069  L 42.3 33.7608275862069  C 41.0021308378976 33.7608275862069  39.95 32.7110125168446  40 31.416  L 40 19.9310344827586  C 39.95 18.636021965914  41.0021308378976 17.5862068965517  42.3 17.5862068965517  L 44.65 17.5862068965517  C 45.9478691621024 17.5862068965517  47 18.636021965914  47 19.9310344827586  L 47 31.416  Z " fill-rule="nonzero" fill="#ffffff" stroke="none" transform="matrix(1 0 0 1 1107 949 )" />
  </g>
</svg>