<?xml version="1.0" encoding="utf-8"?>
<svg version="1.1" xmlns:xlink="http://www.w3.org/1999/xlink" width="15px" height="13px" xmlns="http://www.w3.org/2000/svg">
  <g transform="matrix(1 0 0 1 -1102 -285 )">
    <path d="M 11.53125 4.01736111111111  L 3.04261363636364 4.01736111111111  C 2.82102272727273 4.01736111111111  2.63352272727273 4.21597222222222  2.63352272727273 4.45069444444444  L 2.63352272727273 8.82013888888888  C 2.63352272727273 9.05486111111111  2.82102272727272 9.25347222222221  3.04261363636364 9.25347222222221  L 11.53125 9.25347222222221  C 11.7528409090909 9.25347222222221  11.9403409090909 9.0548611111111  11.9403409090909 8.82013888888888  L 11.9403409090909 4.45069444444444  C 11.9403409090909 4.21597222222222  11.7528409090909 4.01736111111111  11.53125 4.01736111111111  Z M 14.3778409090909 8.82013888888889  C 14.3778409090909 10.48125  13.0994318181818 11.8354166666667  11.53125 11.8354166666667  L 3.04261363636363 11.8354166666667  C 1.47443181818181 11.8354166666667  0.196022727272723 10.48125  0.196022727272723 8.82013888888889  L 0.196022727272723 4.45069444444445  C 0.196022727272723 2.78958333333334  1.47443181818181 1.43541666666668  3.04261363636363 1.43541666666668  L 11.53125 1.43541666666668  C 13.0994318181818 1.43541666666668  14.3778409090909 2.78958333333334  14.3778409090909 4.45069444444445  L 14.3778409090909 8.82013888888889  Z " fill-rule="nonzero" fill="#ffffff" stroke="none" transform="matrix(1 0 0 1 1102 285 )" />
  </g>
</svg>