<?xml version="1.0" encoding="utf-8"?>
<svg version="1.1" xmlns:xlink="http://www.w3.org/1999/xlink" width="37px" height="54px" xmlns="http://www.w3.org/2000/svg">
  <g transform="matrix(1 0 0 1 -1112 -950 )">
    <path d="M 0 54  L 0 0  L 37 0  L 37 54  L 0 54  Z M 18.5 37.5652173913043  C 24.8857924199185 37.5652173913043  30.0625 32.3094296719267  30.0625 25.8260869565217  C 30.0625 19.3427442411168  24.8857924199185 14.0869565217391  18.5 14.0869565217391  C 12.1142075800814 14.0869565217391  6.9375 19.3427442411168  6.9375 25.8260869565217  C 6.9375 32.3094296719267  12.1142075800814 37.5652173913043  18.5 37.5652173913043  Z M 18.5 32.8695652173913  C 14.6685245480489 32.8695652173913  11.5625 29.7160925857647  11.5625 25.8260869565217  C 11.5625 21.9360813272788  14.6685245480489 18.7826086956522  18.5 18.7826086956522  C 22.3314754519511 18.7826086956522  25.4375 21.9360813272788  25.4375 25.8260869565217  C 25.4375 29.7160925857647  22.3314754519511 32.8695652173913  18.5 32.8695652173913  Z " fill-rule="nonzero" fill="#ffffff" stroke="none" transform="matrix(1 0 0 1 1112 950 )" />
  </g>
</svg>