<?xml version="1.0" encoding="utf-8"?>
<svg version="1.1" xmlns:xlink="http://www.w3.org/1999/xlink" width="13px" height="12px" xmlns="http://www.w3.org/2000/svg">
  <g transform="matrix(1 0 0 1 -1548 -305 )">
    <path d="M 6.42890625 0.225000000000002  C 5.53515624999999 0.235714285714291  4.8140625 0.557142857142862  4.8140625 0.953571428571426  C 4.8140625 1.35  5.53515625 1.68214285714285  6.41875 1.68214285714285  C 7.3125 1.68214285714285  8.03359375 1.36071428571428  8.03359375 0.953571428571426  C 8.03359375 0.55714285714285  7.31249999999999 0.225000000000002  6.42890625 0.225000000000002  Z M 1.421875 4.15714285714285  C 1.14765625 5.04642857142856  1.21875 5.88214285714285  1.584375 5.98928571428571  C 1.95 6.10714285714286  2.46796875 5.50714285714285  2.7421875 4.60714285714286  C 3.01640625 3.71785714285715  2.9453125 2.88214285714285  2.5796875 2.76428571428571  L 2.5796875 2.775  C 2.2140625 2.65714285714285  1.69609375 3.25714285714285  1.421875 4.15714285714285  Z M 10.115625 4.60714285714286  C 10.4 5.475  10.9078125 6.10714285714286  11.26328125 5.98928571428571  C 11.62890625 5.87142857142857  11.7 5.04642857142857  11.42578125 4.15714285714285  C 11.1515625 3.26785714285713  10.63359375 2.64642857142856  10.278125 2.775  C 9.9125 2.89285714285714  9.84140625 3.71785714285714  10.115625 4.60714285714286  Z M 10.3390625 8.64642857142858  C 10.32890625 8.63571428571429  10.32890625 8.625  10.31875 8.625  C 10.0546875 8.33571428571428  9.33359375 8.63571428571429  8.7140625 9.28928571428572  C 8.084375 9.95357142857144  7.78984375 10.725  8.05390625 11.0142857142857  C 8.05390625 11.025  8.0640625 11.025  8.07421875 11.0357142857143  C 8.33828125 11.325  9.059375 11.025  9.67890625 10.3714285714286  C 10.2984375 9.71785714285715  10.603125 8.9357142857143  10.3390625 8.64642857142858  Z M 4.39765625 9.375  C 3.82890625 8.65714285714285  3.128125 8.28214285714285  2.83359375 8.53928571428572  C 2.54921875 8.79642857142857  2.77265625 9.58928571428572  3.3515625 10.2964285714286  C 3.9203125 11.0035714285714  4.62109375 11.3785714285714  4.915625 11.1321428571429  C 5.2 10.875  4.9765625 10.0821428571429  4.39765625 9.375  Z " fill-rule="nonzero" fill="#ffffff" stroke="none" transform="matrix(1 0 0 1 1548 305 )" />
  </g>
</svg>