<?xml version="1.0" encoding="utf-8"?>
<svg version="1.1" xmlns:xlink="http://www.w3.org/1999/xlink" width="101px" height="47px" xmlns="http://www.w3.org/2000/svg">
  <g transform="matrix(1 0 0 1 -1529 -264 )">
    <path d="M 99.7161016949153 21.3784722222222  C 99.5342161016949 21.1173611111111  99.3737288135593 20.7474537037037  99.3737288135593 20.355787037037  L 99.3737288135593 10.5641203703704  C 99.3737288135593 10.1615740740741  99.5342161016949 9.8025462962963  99.7802966101695 9.53055555555556  C 100.315254237288 8.97569444444444  100.572033898305 8.23587962962963  100.572033898305 7.46342592592593  C 100.572033898305 4.04722222222223  98.014936440678 1.24027777777778  94.8693855932203 2  L 6.3873940677966 2  C 3.25254237288135 1.24027777777778  0.684745762711857 4.03634259259259  1 7.46342592592593  L 1 46  L 11.6727754237288 46  C 12.0258474576271 46.8912037037037  12.3147245762712 46.619212962963  12.3575211864407 46.2819444444444  C 13.25625 39.8303240740741  18.7342161016949 34.8583333333333  25.3248940677966 34.8583333333333  C 31.9155720338983 34.8583333333333  37.3935381355932 39.8303240740741  38.2922669491525 46.2819444444444  C 38.3457627118644 46.6409722222222  38.6346398305085 46.8912037037037  38.9770127118644 46  L 61.9801906779661 46  C 62.3332627118644 46.8912037037037  62.6221398305085 46.619212962963  62.664936440678 46.2819444444444  C 63.5636652542373 39.8303240740741  69.0416313559322 34.8583333333333  75.6323093220339 34.8583333333333  C 82.2229872881356 34.8583333333333  87.7009533898305 39.8303240740741  88.5996822033898 46.2819444444444  C 88.6531779661017 46.6409722222222  88.9420550847458 46.8912037037037  89.2844279661017 46  L 100 46  L 100 23.4456018518519  C 100.507838983051 22.6731481481481  100.240360169492 21.9224537037037  99.7161016949153 21.3784722222222  Z " fill-rule="nonzero" fill="#ffffff" stroke="none" transform="matrix(1 0 0 1 1529 264 )" />
  </g>
</svg>