<?xml version="1.0" encoding="utf-8"?>
<svg version="1.1" xmlns:xlink="http://www.w3.org/1999/xlink" width="12px" height="12px" xmlns="http://www.w3.org/2000/svg">
  <g transform="matrix(1 0 0 1 -1599 -305 )">
    <path d="M 5.66785714285714 0.471428571428581  C 4.725 0.471428571428581  3.96428571428571 0.803571428571441  3.96428571428571 1.2  C 3.96428571428571 1.59642857142858  4.725 1.92857142857143  5.65714285714285 1.92857142857143  C 6.59999999999999 1.92857142857143  7.36071428571428 1.60714285714286  7.36071428571428 1.2  C 7.36071428571428 0.803571428571429  6.59999999999999 0.471428571428581  5.66785714285714 0.471428571428581  Z M 0.385714285714288 4.38214285714285  C 0.107142857142857 5.27142857142856  0.160714285714286 6.09642857142857  0.546428571428574 6.21428571428572  C 0.932142857142862 6.33214285714286  1.47857142857144 5.73214285714286  1.76785714285714 4.83214285714286  C 2.05714285714286 3.94285714285715  1.98214285714286 3.10714285714286  1.59642857142857 3  C 1.21071428571428 2.88214285714285  0.674999999999995 3.49285714285715  0.385714285714288 4.38214285714285  Z M 9.56785714285715 4.84285714285715  C 9.85714285714287 5.73214285714286  10.4035714285714 6.36428571428572  10.7785714285714 6.225  C 11.1642857142857 6.10714285714286  11.2392857142857 5.28214285714286  10.95 4.39285714285714  C 10.6607142857143 3.50357142857143  10.1142857142857 2.88214285714285  9.73928571428572 3.01071428571429  C 9.36428571428572 3.13928571428572  9.27857142857144 3.95357142857143  9.56785714285715 4.84285714285715  Z M 9.09642857142857 10.575  C 9.75 9.91071428571428  10.05 9.13928571428572  9.76071428571429 8.86071428571429  C 9.47142857142857 8.58214285714286  8.71071428571429 8.89285714285714  8.05714285714286 9.55714285714286  C 7.40357142857143 10.2214285714286  7.10357142857143 10.9928571428571  7.39285714285714 11.2714285714286  C 7.68214285714286 11.55  8.44285714285714 11.2392857142857  9.09642857142857 10.575  Z M 3.54642857142857 9.61071428571429  C 2.93571428571428 8.89285714285714  2.19642857142857 8.52857142857143  1.89642857142858 8.78571428571428  C 1.59642857142858 9.04285714285714  1.83214285714286 9.83571428571428  2.44285714285715 10.5428571428571  C 3.04285714285715 11.25  3.78214285714286 11.625  4.09285714285715 11.3678571428571  C 4.39285714285714 11.1107142857143  4.15714285714286 10.3178571428572  3.54642857142857 9.61071428571429  Z " fill-rule="nonzero" fill="#ffffff" stroke="none" transform="matrix(1 0 0 1 1599 305 )" />
  </g>
</svg>