<?xml version="1.0" encoding="utf-8"?>
<svg version="1.1" xmlns:xlink="http://www.w3.org/1999/xlink" width="32px" height="9px" xmlns="http://www.w3.org/2000/svg">
  <g transform="matrix(1 0 0 1 -1552 -274 )">
    <path d="M 31.5052631578947 7.12125  L 31.5052631578947 1.2375  C 31.5052631578947 0.61875  31.1473684210526 0.1125  30.7157894736842 0.1125  L 27.9894736842105 0.1125  C 27.5473684210526 0.1125  27.2 0.61875  27.2 1.2375  L 27.2 7.12125  C 27.2 7.74  27.5578947368421 8.24625  27.9894736842105 8.24625  L 30.7157894736842 8.24625  C 31.1578947368421 8.24625  31.5052631578947 7.74  31.5052631578947 7.12125  Z M 5.18947368421052 7.12125  L 5.18947368421052 1.2375  C 5.18947368421052 0.61875  4.83157894736842 0.1125  4.4 0.1125  L 1.67368421052631 0.1125  C 1.23157894736842 0.1125  0.884210526315787 0.61875  0.884210526315787 1.2375  L 0.884210526315787 7.12125  C 0.884210526315787 7.74  1.24210526315789 8.24625  1.67368421052631 8.24625  L 4.4 8.24625  C 4.84210526315789 8.24625  5.18947368421052 7.74  5.18947368421052 7.12125  Z " fill-rule="nonzero" fill="#ffffff" stroke="none" transform="matrix(1 0 0 1 1552 274 )" />
  </g>
</svg>