<?xml version="1.0" encoding="utf-8"?>
<svg version="1.1" xmlns:xlink="http://www.w3.org/1999/xlink" width="92px" height="13px" xmlns="http://www.w3.org/2000/svg">
  <g transform="matrix(1 0 0 1 -1535 -272 )">
    <path d="M 74.6009259259259 2.2953125  L 74.6009259259259 10.34921875  C 74.6009259259259 11.375  75.3675925925926 12.19765625  76.3152777777778 12  L 88.7949074074074 12  C 89.7425925925926 12.19765625  90.5092592592593 11.36484375  90.5092592592593 10.34921875  L 90.5092592592593 2.2953125  C 90.5092592592593 1.26953124999999  89.7425925925926 0.446874999999998  88.7949074074074 0.446874999999998  L 76.3152777777778 0.446874999999998  C 75.3675925925926 0.446874999999998  74.6009259259259 1.2796875  74.6009259259259 2.2953125  Z M 57.9472222222222 2.2953125  L 57.9472222222222 10.34921875  C 57.9472222222222 11.375  58.4583333333333 12.19765625  59.0972222222222 12.19765625  L 67.4773148148148 12.19765625  C 68.1162037037037 12.19765625  68.6273148148148 11.36484375  68.6273148148148 10.34921875  L 68.6273148148148 2.2953125  C 68.6273148148148 1.26953124999999  68.1162037037037 0.446874999999998  67.4773148148148 0.446874999999998  L 59.0972222222222 0.446874999999998  C 58.4583333333333 0.446874999999998  57.9472222222222 1.2796875  57.9472222222222 2.2953125  Z M 1.03287037037037 2.2953125  L 1.03287037037037 10.34921875  C 1.03287037037037 11.375  1.54398148148148 12.19765625  2.18287037037037 12.19765625  L 10.562962962963 12.19765625  C 11.2018518518519 12.19765625  11.712962962963 11.36484375  11.712962962963 10.34921875  L 11.712962962963 2.2953125  C 11.712962962963 1.26953124999999  11.2018518518519 0.446874999999998  10.562962962963 0.446874999999998  L 2.18287037037037 0.446874999999998  C 1.54398148148148 0.446874999999998  1.03287037037037 1.2796875  1.03287037037037 2.2953125  Z " fill-rule="nonzero" fill="#ffffff" stroke="none" transform="matrix(1 0 0 1 1535 272 )" />
  </g>
</svg>