<?xml version="1.0" encoding="utf-8"?>
<svg version="1.1" xmlns:xlink="http://www.w3.org/1999/xlink" width="27px" height="10px" xmlns="http://www.w3.org/2000/svg">
  <g transform="matrix(1 0 0 1 -1563 -744 )">
    <path d="M 26.3556818181818 9.03906249999999  L 25.4428977272727 3.8046875  C 25.3355113636364 3.171875  24.8829545454546 2.65625  24.2769886363636 2.48437500000001  L 19.321875 1.015625  C 19.1914772727273 0.968749999999998  19.0610795454545 0.929687499999998  18.9306818181818 0.890624999999998  C 18.5088068181818 0.750000000000002  18.05625 0.8984375  17.7877840909091 1.25  C 15.6017045454545 4.1640625  11.1758522727273 4.09375  9.05880681818181 1.1171875  C 8.85937499999999 0.843749999999996  8.50653409090909 0.7421875  8.184375 0.843749999999996  C 6.33579545454545 1.45312499999999  4.47954545454545 2.03125  2.62329545454545 2.609375  C 1.940625 2.8203125  1.54943181818182 3.33593749999999  1.41903409090909 3.9765625  C 1.11988636363637 5.421875  0.866761363636364 6.875  0.659659090909093 8.33593749999999  C 0.529261363636366 9.25  1.15823863636364 9.99999999999999  2.06335227272728 10  L 24.9213068181818 10  C 25.8340909090909 9.99999999999999  26.2866477272727 9.71093749999999  26.3556818181818 9.03906249999999  Z " fill-rule="nonzero" fill="#ffffff" stroke="none" transform="matrix(1 0 0 1 1563 744 )" />
  </g>
</svg>