<?xml version="1.0" encoding="utf-8"?>
<svg version="1.1" xmlns:xlink="http://www.w3.org/1999/xlink" width="6px" height="12px" xmlns="http://www.w3.org/2000/svg">
  <g transform="matrix(1 0 0 1 -1618 -272 )">
    <path d="M 4.28749999999999 7.44642857142857  C 4.3625 7.61785714285715  4.22499999999999 7.8  4 7.85357142857143  C 3.77500000000001 7.90714285714286  3.53749999999999 7.8  3.47499999999999 7.63928571428572  L 1.32499999999999 1.96071428571429  C 1.24999999999999 1.78928571428571  1.39999999999999 1.59642857142858  1.61249999999998 1.55357142857143  C 1.83749999999998 1.5  2.07499999999999 1.60714285714286  2.13749999999999 1.76785714285714  L 4.28749999999999 7.44642857142857  Z M 3.58750000000001 11.0571428571429  C 3.66250000000001 11.2392857142857  3.52500000000001 11.4214285714286  3.3 11.4642857142857  C 3.075 11.5178571428571  2.83749999999999 11.4107142857143  2.77499999999999 11.25  L 0.625 5.57142857142857  C 0.549999999999997 5.4  0.700000000000003 5.20714285714286  0.912499999999994 5.16428571428571  C 1.13749999999999 5.11071428571428  1.375 5.21785714285714  1.4375 5.37857142857143  L 3.58750000000001 11.0571428571429  Z " fill-rule="nonzero" fill="#ffffff" stroke="none" transform="matrix(1 0 0 1 1618 272 )" />
  </g>
</svg>