<?xml version="1.0" encoding="utf-8"?>
<svg version="1.1" xmlns:xlink="http://www.w3.org/1999/xlink" width="84px" height="70px" xmlns="http://www.w3.org/2000/svg">
  <g transform="matrix(1 0 0 1 -1544 -476 )">
    <path d="M 39 2.99869791666667  C 38.3894736842105 1.43098958333333  37.1 0.154947916666668  35.525 1  L 2.87368421052632 1  C 1.29868421052632 0.154947916666666  0 1.43098958333333  0 2.99869791666666  L 0 64.1666666666667  C 0 67.29296875  2.58815789473684 69.8450520833333  5.73815789473684 69  L 32.6513157894737 69  C 35.8105263157895 69.8450520833333  38.3894736842105 67.2838541666667  39 64.1666666666667  L 39 2.99869791666667  Z M 16.1 43.2942708333333  L 16.1 47.4140625  C 16.1 48.97265625  14.8105263157895 50.2578125  13.2263157894737 50.2578125  L 9.06315789473685 50.2578125  C 7.48815789473685 50.2578125  6.18947368421053 48.9817708333333  6.18947368421053 47.4140625  L 6.18947368421053 43.2942708333333  C 6.18947368421053 41.7356770833333  7.47894736842106 40.4505208333333  9.06315789473685 40.4505208333333  L 13.2263157894737 40.4505208333333  C 14.8013157894737 40.4505208333333  16.1 41.7265625  16.1 43.2942708333333  Z M 16.1 27.3619791666667  L 16.1 31.4817708333333  C 16.1 33.0403645833333  14.8105263157895 34.3255208333333  13.2263157894737 34.3255208333333  L 9.06315789473685 34.3255208333333  C 7.48815789473685 34.3255208333333  6.18947368421053 33.0494791666667  6.18947368421053 31.4817708333333  L 6.18947368421053 27.3619791666667  C 6.18947368421053 25.8033854166667  7.47894736842106 24.5182291666667  9.06315789473685 24.5182291666667  L 13.2263157894737 24.5182291666667  C 14.8013157894737 24.5182291666667  16.1 25.7942708333333  16.1 27.3619791666667  Z M 16.1 11.4296875  L 16.1 15.5494791666667  C 16.1 17.1080729166667  14.8105263157895 18.3932291666667  13.2263157894737 18.3932291666667  L 9.06315789473685 18.3932291666667  C 7.48815789473685 18.3932291666667  6.18947368421053 17.1171875  6.18947368421053 15.5494791666667  L 6.18947368421053 11.4296875  C 6.18947368421053 9.87109375  7.47894736842106 8.58593750000001  9.06315789473685 8.58593750000001  L 13.2263157894737 8.58593750000001  C 14.8013157894737 8.58593750000001  16.1 9.86197916666667  16.1 11.4296875  Z M 32.2 43.2942708333333  L 32.2 47.4140625  C 32.2 48.97265625  30.9105263157895 50.2578125  29.3263157894737 50.2578125  L 25.1631578947368 50.2578125  C 23.5881578947368 50.2578125  22.2894736842105 48.9817708333333  22.2894736842105 47.4140625  L 22.2894736842105 43.2942708333333  C 22.2894736842105 41.7356770833333  23.5789473684211 40.4505208333333  25.1631578947368 40.4505208333333  L 29.3263157894737 40.4505208333333  C 30.9013157894737 40.4505208333333  32.2 41.7265625  32.2 43.2942708333333  Z M 32.2 27.3619791666667  L 32.2 31.4817708333333  C 32.2 33.0403645833333  30.9105263157895 34.3255208333333  29.3263157894737 34.3255208333333  L 25.1631578947368 34.3255208333333  C 23.5881578947368 34.3255208333333  22.2894736842105 33.0494791666667  22.2894736842105 31.4817708333333  L 22.2894736842105 27.3619791666667  C 22.2894736842105 25.8033854166667  23.5789473684211 24.5182291666667  25.1631578947368 24.5182291666667  L 29.3263157894737 24.5182291666667  C 30.9013157894737 24.5182291666667  32.2 25.7942708333333  32.2 27.3619791666667  Z M 32.2 11.4296875  L 32.2 15.5494791666667  C 32.2 17.1080729166667  30.9105263157895 18.3932291666667  29.3263157894737 18.3932291666667  L 25.1631578947368 18.3932291666667  C 23.5881578947368 18.3932291666667  22.2894736842105 17.1171875  22.2894736842105 15.5494791666667  L 22.2894736842105 11.4296875  C 22.2894736842105 9.87109375  23.5789473684211 8.58593750000001  25.1631578947368 8.58593750000001  L 29.3263157894737 8.58593750000001  C 30.9013157894737 8.58593750000001  32.2 9.86197916666667  32.2 11.4296875  Z M 82 64.1666666666667  C 82.5263157894737 67.3020833333333  79.9565789473684 69.8450520833333  76.7881578947368 69.8450520833333  L 75.8855263157895 69.8450520833333  C 72.7171052631579 69.8450520833333  70.1473684210526 67.3020833333333  70.1473684210526 64.1666666666667  L 70.1473684210526 57.1484375  C 70.1473684210526 54.0130208333333  67.5776315789474 51.4700520833333  64.4092105263158 51.4700520833333  L 62.8894736842105 51.4700520833333  C 59.721052631579 51.4700520833333  57.1513157894737 54.0130208333333  57.1513157894737 57.1484375  L 57.1513157894737 64.1666666666667  C 57.1513157894737 67.3020833333333  54.5815789473684 69.8450520833333  51.4131578947369 69.8450520833333  L 49.8934210526316 69.8450520833333  C 46.725 69.8450520833333  44.1552631578948 67.3020833333333  44 64.1666666666667  L 44 38.8736979166667  C 44.1552631578948 35.73828125  46.725 33.1953125  49.8934210526316 34  L 76.8065789473685 34  C 79.975 33.1953125  82.5447368421053 35.73828125  82 38.8736979166667  L 82 64.1666666666667  Z M 82.5263157894737 26.5690104166667  C 82.5263157894737 28.2552083333333  81.1447368421053 29.6315104166667  79.4315789473684 30  L 47.2315789473684 30  C 45.5184210526316 29.6315104166667  44.1368421052632 28.2552083333333  44.1368421052632 26.5690104166667  C 44.1368421052632 24.8736979166667  45.5276315789474 23.5065104166667  47.2315789473684 24  L 79.4315789473684 24  C 81.1447368421053 23.5065104166667  82.5263157894737 24.8828125  82.5263157894737 26.5690104166667  Z " fill-rule="nonzero" fill="#ffffff" stroke="none" transform="matrix(1 0 0 1 1544 476 )" />
  </g>
</svg>