<?xml version="1.0" encoding="utf-8"?>
<svg version="1.1" xmlns:xlink="http://www.w3.org/1999/xlink" width="59px" height="70px" xmlns="http://www.w3.org/2000/svg">
  <g transform="matrix(1 0 0 1 -1544 -933 )">
    <path d="M 58 13.04847578125  C 58.9241027141204 11.8240880078125  58.3999203553241 10.6346826660156  57.526283181713 9.8650674609375  C 56.6526459398148 9.06046975585937  55.5343902592593 8.6756621875  54.4161345104167 8.6756621875  L 54.1016251087963 8.6756621875  C 54.0317341458333 8.6756621875  53.2978788298611 8.7456271875  52.1796231493056 8.7456271875  C 50.2576211898148 8.7456271875  46.6232902280093 8.60569711914063  43.1287411921296 7.7661169140625  C 38.6207729201389 6.716641640625  33.4138948819445 1.74912541015625  31.9112388368056 0.769615205078126  C 31.1773835208333 0.314842568359375  30.2688007974537 0.0349825  29.3951635555556 0.0349825  C 28.5215263136574 0.0349825  27.6828345532407 0.314842568359375  26.8790882060185 0.769615205078125  C 26.6694152488426 0.9095452734375  21.2528642534722 6.506746640625  15.9760952523148 7.7661169140625  C 12.4815462164352 8.64067961914063  8.70743326041667 8.7456271875  6.85532233217593 8.7456271875  C 5.66717568865741 8.7456271875  4.93332037268518 8.6756621875  4.86342940972222 8.6756621875  L 4.58386548958333 8.6756621875  C 3.39571884606481 8.6756621875  2.34735412847222 9.06046975585937  1.47371681828704 9.8650674609375  C 0.530188613425926 10.6696651660156  0.00600625462963 11.8590704394531  0 13.04847578125  L 0 24.032983515625  C 0.00600625462963 64.5077461328125  27.4032705648148 69.7201399316406  28.5215262453704 69.930035  C 28.8010901655093 70  29.0457086041667 70  29.3252725243056 70  C 29.6048364444444 70  29.8494548831018 70  30.1290188032407 69.930035  C 31.3171654467593 69.7201399316406  58.8542117511574 64.5077461328125  58 24.032983515625  L 58 13.04847578125  Z M 54 23.998001015625  L 54.730643912037 23.998001015625  C 54.730643912037 32.638680703125  53.4027152743056 40.2298850488281  50.7818035486111 46.5267366210937  C 48.7200195949074 51.4592703515625  45.8544894305556 55.5872063769531  42.290049431713 58.8755621972656  C 36.0348066759259 64.6126936328125  29.6048365127315 65.73213390625  29.5349454814815 65.7671164746094  L 29.430109037037 65.7671164746094  L 29.3951635555556 65.7671164746094  L 29.3252725243056 65.7671164746094  C 29.2553815613426 65.7671164746094  22.9302478425926 64.6126937011719  16.7448960497685 58.945527265625  C 13.1455105694444 55.6571714453125  10.314925818287 51.5292354199219  8.25314193287037 46.5967016210937  C 5.63223013888889 40.2998500488281  4.26935601967593 32.7086456347656  5 23.998001015625  L 5 13.01349328125  L 4.30430156944444 12.9785107128906  L 4.37419253240741 12.9085457128906  C 4.44408349537037 12.8735632128906  4.44408349537037 12.8385807128906  4.61881097106481 12.8385807128906  L 4.75859289699074 12.8385807128906  C 5.07310229861111 12.8735632128906  5.80695761458333 12.9085457128906  6.85532233217592 12.9085457128906  C 8.95205176736111 12.9085457128906  13.0057286435185 12.7686156445313  16.9545690069444 11.7891054394531  C 20.6937364814815 10.914542734375  24.9570862465278 8.29085455078125  29.2903270428241 4.23288352539063  C 29.360218005787 4.19790102539063  29.3951634872685 4.19790102539063  29.3951635555556 4.19790102539063  C 29.4650545185185 4.19790102539063  29.56989103125 4.23288352539063  29.639781994213 4.26786609375  C 29.8494549513889 4.40779616210938  30.4085827916667 4.86256873046875  30.862874119213 5.24737629882813  C 33.4488403634259 7.31134434570313  37.7820811597222 10.8095951660156  42.1502674375 11.8240879394531  C 46.0991078009259 12.8035982128906  50.1178391956018 12.9435282128906  52.1796231493055 12.9435282128906  C 53.1930423854167 12.9435282128906  53.9268976331018 12.9085457128906  54.2414071030093 12.8735632128906  L 54.4161345104167 12.8735632128906  C 54.5209709548611 12.8735632128906  54.6258074675926 12.9085457128906  54.6607529490741 12.9435282128906  C 54.6956984305556 12.9785107128906  54.6956984305556 13.0134932128906  54 13.04847578125  L 54 23.998001015625  Z " fill-rule="nonzero" fill="#ffffff" stroke="none" transform="matrix(1 0 0 1 1544 933 )" />
  </g>
</svg>