<?xml version="1.0" encoding="utf-8"?>
<svg version="1.1" xmlns:xlink="http://www.w3.org/1999/xlink" width="33px" height="40px" xmlns="http://www.w3.org/2000/svg">
  <g transform="matrix(1 0 0 1 -1557 -948 )">
    <path d="M 26.280709675 12.9102115277778  C 25.92888560625 12.2705313888889  25.1196902 12.0573046527778  24.41604199375 12.3060691666667  C 24.169765125 12.4126825  23.92348825625 12.5548336805556  23.7475761875 12.7680604166667  L 23.7123937875 12.8035981944444  C 22.86801598125 9.072130625  20.65152423125 3.63484923611111  14.49460271875 1.18274194444445  C 13.96686658125 0.969515208333335  13.40394804375 1.04059076388889  12.91139430625 1.324893125  C 12.45402296875 1.60919541666667  12.1373813 2.10672444444445  12.0670165 2.67532902777778  C 11.85592203125 5.09189854166667  10.62453775625 11.8796157638889  7.5988506 14.3317230555556  C 4.01024490625 17.21028375  0.386456743750001 22.1144983333333  1.01974015 27.1964018055556  C 1.5826586875 31.7807763194444  5.38235885 35.6899328472222  12.24292856875 38.7817202777778  C 13.016941575 39.137098125  13.89650178125 38.8883336111111  14.38905545 38.1775778472222  C 14.8816091875 37.5023599305556  14.8112443875 36.5428396527778  14.24832585 35.9386972916667  C 14.21314345 35.9031595138889  11.081909025 32.3493808333333  11.6448275625 28.5468377083333  C 11.85592203125 26.9476372916667  12.7002998375 25.4550502777778  14.14277858125 24.104614375  C 14.63533231875 25.5972013888889  15.72598699375 27.4096285416667  17.87211394375 29.1509800694444  C 20.7922539 31.4609361805556  17.661019475 35.9742351388889  17.520289875 36.1519240277778  C 17.0981009375 36.7560663888889  17.0629185375 37.5734354861111  17.485107475 38.1775778472222  C 17.80174914375 38.675106875  18.36466768125 38.9594091666667  18.92758621875 38.9594091666667  C 19.0683158875 38.9594091666667  19.2090454875 38.9594091666667  19.3497750875 38.9238713888889  C 19.73678155625 38.8172580555555  28.95457269375 36.4362263194444  31.3469765125 29.1865178472222  C 32.895002525 24.4599922222222  31.20624684375 18.9871730555555  26.280709675 12.9102115277778  Z M 24.8030484625 16.6772169444444  C 28.0398300875 21.0839025  29.1304847625 24.8864456944444  28.1101948875 27.978233125  C 27.19545228125 30.8212560416667  24.62713639375 32.70475875  22.37546224375 33.8775056944444  C 23.00874558125 31.3187850694444  22.7272863125 28.4046865277778  20.08860569375 26.3079571527778  C 16.9573713375 23.8203120833333  17.23883060625 21.4748181944444  17.27401300625 21.2260536111111  C 17.485107475 20.5152978472222  17.20364820625 19.8045421527778  16.64072966875 19.37808875  C 16.07781113125 18.9160975  15.268615725 18.9160975  14.63533231875 19.3070131944445  C 10.80044975625 21.6525070833333  8.65432280624999 24.6021434027778  8.16176913749999 28.0137709027778  C 7.95067466874999 29.6485090972222  8.12658673749999 31.1766338888889  8.51359320624999 32.5626075694444  C 6.12118938749999 30.7501804166667  4.78425784374999 28.7956021527778  4.50279857499999 26.7344105555556  C 4.04542723749999 23.1095563194445  7.07111439374999 19.2714753472222  9.78015994999999 17.1036704166667  C 13.122488775 14.4027986111111  14.6001499875 8.8589038888889  15.19825085625 5.55388972222223  C 20.5107945625 9.14320618055556  20.61634183125 16.2863013194445  20.61634183125 16.6061413888889  C 20.61634183125 17.3168971527778  21.03853076875 17.9921150694444  21.70699650625 18.2408795833333  C 22.37546224375 18.525181875  23.11429285 18.3474929166667  23.6420289875 17.8499638888889  L 24.8030484625 16.6772169444444  Z " fill-rule="nonzero" fill="#ffffff" stroke="none" transform="matrix(1 0 0 1 1557 948 )" />
  </g>
</svg>