<?xml version="1.0" encoding="utf-8"?>
<svg version="1.1" xmlns:xlink="http://www.w3.org/1999/xlink" width="60px" height="70px" xmlns="http://www.w3.org/2000/svg">
  <g transform="matrix(1 0 0 1 -1547 -709 )">
    <path d="M 59.984375 17.8359375  C 60.0234375 16.1640625  58.734375 14.09375  57.2265625 13.390625  C 49.21875 8.765625  34.3828125 0.0312500000000004  30.0546875 0.0156250000000002  C 25.734375 0.0312500000000004  10.953125 8.765625  2.7890625 13.421875  C 1.1640625 14.3515625  -0.031249999999996 16.0078125  0.007812500000004 17.890625  C 0.140625000000003 24.7265625  1.0546875 31.4765625  4.609375 40.4375  C 12.3125 59.8671875  25.8359375 68.984375  29.625 69.9375  C 29.7578125 69.96875  29.8984375 69.984375  30.03125 69.984375  C 30.171875 69.984375  30.3203125 69.96875  30.453125 69.9296875  C 34.796875 68.78125  48.125 58.671875  55.375 40.4453125  C 58.9296875 31.515625  59.84375 24.71875  59.984375 17.8359375  Z M 54.6953125 19.4296875  C 54.5703125 25.546875  53.765625 31.0625  50.640625 38.8984375  C 44.3828125 54.6328125  33.1484375 62.96875  30.015625 64.2421875  C 26.7421875 63.015625  15.8203125 55.2109375  9.3515625 38.8984375  C 6.2265625 31.0234375  5.4296875 25.5546875  5.3046875 19.4765625  C 5.2890625 18.8828125  5.703125 18.4140625  6.09375 18.203125  C 17.2421875 11.9140625  27.5625 5.6953125  30.0546875 5.67968749999999  C 32.5546875 5.68749999999999  43.421875 12.109375  53.921875 18.171875  C 54.203125 18.3203125  54.703125 19.0859375  54.6953125 19.4296875  Z " fill-rule="nonzero" fill="#ffffff" stroke="none" transform="matrix(1 0 0 1 1547 709 )" />
  </g>
</svg>