<?xml version="1.0" encoding="utf-8"?>
<svg version="1.1" xmlns:xlink="http://www.w3.org/1999/xlink" width="18px" height="22px" xmlns="http://www.w3.org/2000/svg">
  <g transform="matrix(1 0 0 1 -1568 -724 )">
    <path d="M 4.62857142857143 2.66597222222223  C 5.07857142857143 4.57569444444445  5.45625 6.43958333333334  6.25982142857143 8.18888888888889  C 6.04285714285714 6.76041666666667  5.83392857142857 5.33958333333333  5.61696428571428 3.91875  C 5.59285714285714 3.75833333333333  5.56875 3.59791666666667  5.55267857142857 3.42986111111111  C 5.37589285714285 1.43611111111111  5.49642857142857 1.25277777777778  7.56964285714286 0.90138888888889  C 8.93571428571429 0.672222222222223  10.29375 0.771527777777779  11.6276785714286 1.20694444444445  C 12.2705357142857 1.42083333333333  12.5196428571429 1.76458333333333  12.4955357142857 2.39097222222222  C 12.4151785714286 4.16319444444444  12.0375 5.89722222222222  11.7964285714286 7.65416666666667  C 11.7723214285714 7.82986111111112  11.7482142857143 8.01319444444445  11.7723214285714 8.19652777777778  C 12.4232142857143 6.63819444444445  12.8330357142857 5.01875  13.1625 3.37638888888889  C 13.3151785714286 2.60486111111111  13.3151785714286 2.59722222222223  13.9419642857143 3.10138888888889  C 15.6294642857143 4.46875  16.6660714285714 6.1875  16.9794642857143 8.28819444444444  C 17.0276785714286 8.60138888888889  17.1482142857143 8.83055555555556  17.3330357142857 9.09791666666667  C 17.8955357142857 9.87708333333333  17.7428571428571 10.7861111111111  17.6946428571429 11.6645833333333  C 17.6866071428571 11.8708333333333  17.4616071428571 11.8708333333333  17.2848214285714 11.8708333333333  C 16.8428571428571 11.8708333333333  16.4008928571429 11.8784722222222  15.9589285714286 11.8708333333333  C 15.6133928571429 11.8631944444444  15.2839285714286 11.8479166666667  15.0589285714286 12.1916666666667  C 14.9142857142857 12.4131944444444  14.625 12.375  14.3839285714286 12  L 3.57589285714286 12  C 3.43125 12.375  3.21428571428571 12.4131944444444  3.15 12.3368055555556  C 2.49107142857143 11.61875  1.62321428571428 11.9166666666667  0.827678571428572 11.8861111111111  C 0.385714285714287 11.8708333333333  0.200892857142857 11.75625  0.233035714285717 11.3208333333333  C 0.297321428571432 10.4576388888889  0.0803571428571474 9.53333333333334  0.859821428571432 8.82291666666667  C 0.97232142857143 8.71597222222223  0.956250000000003 8.47152777777778  0.980357142857146 8.29583333333334  C 1.34196428571429 5.96597222222223  2.55535714285715 4.125  4.62857142857143 2.66597222222223  Z M 3.02946428571428 16.6680555555556  C 1.98482142857142 15.7743055555556  1.87232142857142 14.5597222222222  1.69553571428571 13.3909722222222  C 1.76785714285714 13.1236111111111  1.55892857142857 12.8104166666667  1.88035714285714 12.6652777777778  C 2.14553571428571 12.5430555555556  2.33035714285714 12.7722222222222  2.51517857142857 12.9173611111111  C 2.78035714285714 13.1236111111111  3.08571428571428 13.1465277777778  3.41517857142857 13.1465277777778  C 7.14374999999999 13.1465277777778  10.8642857142857 13.1388888888889  14.5928571428571 13.1465277777778  C 14.9785714285714 13.1465277777778  15.3241071428571 13.0854166666667  15.5973214285714 12.8180555555556  C 15.7901785714286 12.6270833333333  16.0232142857143 12.5506944444444  16.25625 12.6805555555556  C 16.4892857142857 12.8104166666667  16.3928571428571 13.0625  16.3767857142857 13.2611111111111  C 16.2321428571429 14.5138888888889  16.1116071428571 15.7743055555556  15.0348214285714 16.70625  C 14.9223214285714 16.8055555555556  14.8821428571429 16.9965277777778  14.8258928571428 17.1416666666667  C 14.1107142857143 19.0284722222222  12.7607142857143 20.4034722222222  10.9285714285714 21.3277777777778  C 9.53839285714285 22.0305555555556  8.13214285714285 21.9159722222222  6.80624999999999 21.1291666666667  C 5.13482142857142 20.14375  3.86517857142856 18.8298611111111  3.22232142857142 17.0270833333333  C 3.17410714285713 16.8972222222222  3.12589285714285 16.7520833333333  3.02946428571428 16.6680555555556  Z " fill-rule="nonzero" fill="#ffffff" stroke="none" transform="matrix(1 0 0 1 1568 724 )" />
  </g>
</svg>