<?xml version="1.0" encoding="utf-8"?>
<svg version="1.1" xmlns:xlink="http://www.w3.org/1999/xlink" width="70px" height="70px" xmlns="http://www.w3.org/2000/svg">
  <g transform="matrix(1 0 0 1 -115 -488 )">
    <path d="M 35.0864196990741 6.91358021990741  C 50.3594794325661 6.91358021990741  62.7407406597222 19.2948414470635  62.7407406597222 34.5679011805556  C 62.7407406597222 49.8409609140476  50.3594794325661 62.2222221412037  35.0864196990741 62.2222221412037  C 19.8133599972217 62.2222221412037  7.43209878317123 49.8409609634264  7.43209873842593 34.5679012615741  C 7.43209873842592 19.2948414470635  19.813359965582 6.91358021990741  35.0864196990741 6.91358021990741  Z M 69.6543209606482 34.5679012615741  C 69.6543209606482 15.4765765927898  54.1777444488769 0  35.0864197800926 0  C 15.9950949986501 0  0.518518437499996 15.4765765611501  0.518518437499996 34.5679012615741  C 0.518518437499996 53.6592259619981  15.9950949986501 69.1358025231481  35.0864196990741 69.1358025231481  C 54.1777443994981 69.1358025231481  69.6543209606482 53.6592259619981  69.6543209606482 34.5679012615741  Z " fill-rule="nonzero" fill="#ffffff" stroke="none" transform="matrix(1 0 0 1 115 488 )" />
  </g>
</svg>