<?xml version="1.0" encoding="utf-8"?>
<svg version="1.1" xmlns:xlink="http://www.w3.org/1999/xlink" width="104px" height="63px" xmlns="http://www.w3.org/2000/svg">
  <g transform="matrix(1 0 0 1 -1084 -709 )">
    <path d="M 22.69921875 56.9797697368421  C 22.69921875 54.1820723684211  20.48515625 51.9128289473684  17.753125 51.9128289473684  C 15.02109375 51.9128289473684  12.80703125 54.1820723684211  12.80703125 56.9797697368421  C 12.80703125 59.7774671052632  15.02109375 62.0467105263158  17.753125 62.0467105263158  C 20.48515625 62.0467105263158  22.69921875 59.7774671052632  22.69921875 56.9797697368421  Z M 92.14765625 56.3787828947368  C 92.14765625 53.5707236842105  89.93359375 51.3118421052632  87.2015625 51.3118421052632  C 84.46953125 51.3118421052632  82.25546875 53.5810855263158  82.25546875 56.3787828947368  C 82.25546875 59.1764802631579  84.46953125 61.4457236842105  87.2015625 61.4457236842105  C 89.93359375 61.4457236842105  92.14765625 59.1764802631579  92.14765625 56.3787828947368  Z M 79.35078125 56.3787828947368  C 79.35078125 53.5707236842105  77.13671875 51.3118421052632  74.4046875 51.3118421052632  C 71.67265625 51.3118421052632  69.45859375 53.5810855263158  69.45859375 56.3787828947368  C 69.45859375 59.1764802631579  71.67265625 61.4457236842105  74.4046875 61.4457236842105  C 77.13671875 61.4457236842105  79.35078125 59.1764802631579  79.35078125 56.3787828947368  Z M 82.29609375 38.6911184210527  C 80.4578125 39.6236842105263  78.1828125 39.7583881578948  76.28359375 39.2092105263158  L 76.45625 40.0796052631579  C 76.61875 40.8774671052632  76.903125 41.4473684210526  77.2890625 41.7582236842105  C 78 42.3177631578947  79.421875 42.328125  80.2953125 41.8618421052632  C 80.75234375 41.6131578947369  81.1078125 41.302302631579  81.40234375 40.8981907894737  C 81.72734375 40.4526315789474  82.0015625 39.7998355263158  82.23515625 38.98125  C 82.265625 38.8879934210526  82.2859375 38.784375  82.31640625 38.6807565789474  C 82.30625 38.6807565789474  82.29609375 38.6911184210527  82.29609375 38.6911184210527  Z M 102 13.8123355263158  L 12.17734375 0.849671052631578  L 12.17734375 9.65723684210526  L 70.59609375 18  L 28 18  L 28 41.6546052631579  L 26 41.6546052631579  L 26 18  L 14.7875 18  L 14.7875 13.5740131578947  L 10.8265625 13.5740131578947  L 10.8265625 18.0296052631579  L 5.81953125 18.0296052631579  L 1 32.4740131578947  L 1 56  L 11.8828125 56  C 11.8828125 53.0837171052631  14.4828125 50.4310855263158  17.6921875 50.4310855263158  C 20.9015625 50.4310855263158  23.49140625 53.0940789473684  23.49140625 56.3684210526316  L 25.33984375 56.3684210526316  L 25.33984375 52.3169407894737  L 27.98046875 52.3169407894737  L 27.98046875 56  L 68.66640625 56  C 68.64609375 56.1404605263158  68.5953125 55.9228618421053  68.5953125 55.6949013157895  C 68.5953125 52.410197368421  71.1953125 49.7575657894737  74.4046875 49.7575657894737  C 77.6140625 49.7575657894737  80.20390625 52.4205592105263  80.20390625 55.6949013157895  C 80.20390625 55.9228618421053  80.16328125 56.1404605263158  80.14296875 56.3684210526316  L 81.46328125 56.3684210526316  C 81.44296875 56.1404605263158  81.40234375 55.9228618421053  81.40234375 55.6949013157895  C 81.40234375 52.410197368421  84.00234375 49.7575657894737  87.2015625 49.7575657894737  C 90.4109375 49.7575657894737  93.0109375 52.4205592105263  93.0109375 55.6949013157895  C 93.0109375 55.9228618421053  92.9703125 56.1404605263158  92.93984375 56.3684210526316  L 102 56.3684210526316  L 102 13.8123355263158  Z M 18.31171875 3.02565789473684  C 18.98203125 3.11891447368421  19.459375 3.76134868421052  19.3578125 4.45559210526316  C 19.26640625 5.14983552631579  18.63671875 5.6264802631579  17.96640625 5.53322368421052  C 17.29609375 5.43996710526316  16.81875 4.79753289473684  16.9203125 4.10328947368421  C 17.01171875 3.40904605263158  17.64140625 2.93240131578947  18.31171875 3.02565789473684  Z M 25.10625 4.01003289473684  C 25.78671875 4.10328947368421  26.2640625 4.74572368421052  26.17265625 5.43996710526316  C 26.08125 6.13421052631579  25.4515625 6.6108552631579  24.77109375 6.51759868421052  C 24.090625 6.42434210526316  23.6234375 5.78190789473684  23.71484375 5.08766447368421  C 23.80625 4.39342105263158  24.4359375 3.91677631578947  25.10625 4.01003289473684  Z M 31.92109375 4.98404605263158  C 32.6015625 5.08766447368421  33.06875 5.71973684210526  32.97734375 6.41398026315789  C 32.8859375 7.10822368421052  32.25625 7.58486842105263  31.57578125 7.49161184210526  C 30.90546875 7.39835526315789  30.428125 6.75592105263157  30.51953125 6.06167763157894  C 30.6109375 5.36743421052631  31.240625 4.8907894736842  31.92109375 4.98404605263158  Z M 38.72578125 5.96842105263158  C 39.40625 6.06167763157894  39.88359375 6.70411184210526  39.78203125 7.39835526315789  C 39.690625 8.09259868421052  39.0609375 8.56924342105263  38.38046875 8.47598684210526  C 37.71015625 8.37236842105263  37.2328125 7.74029605263157  37.334375 7.04605263157894  C 37.42578125 6.35180921052631  38.05546875 5.8751644736842  38.72578125 5.96842105263158  Z M 45.540625 6.94243421052631  C 46.2109375 7.03569078947368  46.68828125 7.678125  46.58671875 8.37236842105263  C 46.4953125 9.06661184210526  45.865625 9.54325657894736  45.18515625 9.44999999999999  C 44.5046875 9.35674342105263  44.0375 8.71430921052631  44.1390625 8.02006578947368  C 44.23046875 7.32582236842105  44.86015625 6.84917763157894  45.540625 6.94243421052631  Z M 53.1375 8.41381578947368  C 53.3609375 8.68322368421052  53.4421875 9.0251644736842  53.39140625 9.35674342105263  C 53.3 10.0509868421053  52.6703125 10.5276315789474  51.98984375 10.434375  C 51.309375 10.3307565789474  50.8421875 9.69868421052631  50.93359375 9.00444078947368  C 51.025 8.31019736842105  51.6546875 7.82319078947368  52.325 7.92680921052631  C 52.65 7.96825657894736  52.94453125 8.1547697368421  53.1375 8.41381578947368  Z M 59.1703125 8.90082236842105  C 59.83046875 9.00444078947368  60.29765625 9.63651315789474  60.20625 10.3307565789474  C 60.165625 10.6623355263158  59.99296875 10.9628289473684  59.72890625 11.1700657894737  C 59.46484375 11.3773026315789  59.13984375 11.460197368421  58.81484375 11.4083881578947  C 58.48984375 11.3669407894737  58.1953125 11.1804276315789  58.00234375 10.9213815789474  C 57.809375 10.6519736842105  57.71796875 10.3203947368421  57.76875 9.97845394736842  C 57.86015625 9.28421052631579  58.48984375 8.80756578947368  59.1703125 8.90082236842105  Z M 65.9546875 9.87483552631578  C 66.63515625 9.97845394736841  67.10234375 10.6208881578947  67.0109375 11.3047697368421  C 66.91953125 11.9990131578947  66.28984375 12.4756578947368  65.609375 12.3824013157895  C 64.92890625 12.2891447368421  64.46171875 11.6467105263158  64.56328125 10.9524671052631  C 64.6546875 10.2582236842105  65.284375 9.78157894736841  65.9546875 9.87483552631578  Z M 20 20  L 20 32  L 4.3671875 32  L 7.23125 20  L 20 20  Z M 52 46.027302631579  L 52.13203125 46.027302631579  L 47 46.027302631579  L 47 32.1838815789474  C 46.74921875 32.2978618421053  46.54609375 32.4014802631579  46.3328125 32.5154605263158  C 45.2359375 33.0853618421053  44.2203125 33.5205592105263  43.3265625 33.8106907894737  L 41.63046875 34.3702302631579  L 41.63046875 29.7902960526316  L 42.3515625 29.489802631579  C 43.72265625 28.9199013157895  44.93125 28.2256578947369  45.946875 27.4174342105263  C 46.93203125 26.6402960526316  47.6328125 25.8942434210526  48.01875 25.2  L 48.3640625 24.5782894736842  L 52 24.5782894736842  L 52 46.027302631579  Z M 66 46.027302631579  L 66.71640625 46.027302631579  L 61 46.027302631579  L 61 32.1838815789474  C 61.33359375 32.2978618421053  61.1203125 32.4118421052632  60.9171875 32.5154605263158  C 59.8203125 33.0853618421053  58.8046875 33.5205592105263  57.9109375 33.8106907894737  L 56.21484375 34.3702302631579  L 56.21484375 29.7902960526316  L 56.9359375 29.489802631579  C 58.30703125 28.9199013157895  59.515625 28.2256578947369  60.53125 27.4174342105263  C 61.51640625 26.6402960526316  62.2171875 25.8942434210526  62.603125 25.2  L 62.9484375 24.5782894736842  L 66 24.5782894736842  L 66 46.027302631579  Z M 86.03359375 15.3251644736842  C 85.353125 15.2319078947368  84.8859375 14.5894736842105  84.97734375 13.8952302631579  C 85.07890625 13.2009868421053  85.6984375 12.7243421052632  86.37890625 12.8175986842105  C 87.059375 12.9212171052632  87.5265625 13.5532894736842  87.43515625 14.2475328947368  C 87.34375 14.9417763157895  86.7140625 15.4184210526316  86.03359375 15.3251644736842  Z M 79.22890625 14.3407894736842  C 78.5484375 14.2475328947368  78.08125 13.6050986842105  78.17265625 12.9108552631579  C 78.2640625 12.2166118421053  78.89375 11.7399671052632  79.57421875 11.8332236842105  C 80.2546875 11.9264802631579  80.721875 12.5689144736842  80.6203125 13.2631578947368  C 80.52890625 13.9574013157895  79.89921875 14.4340460526316  79.22890625 14.3407894736842  Z M 72.4140625 13.3667763157895  C 71.74375 13.2735197368421  71.2765625 12.6310855263158  71.36796875 11.9368421052632  C 71.459375 11.2425986842105  72.0890625 10.7659539473684  72.759375 10.8592105263158  C 73.43984375 10.9628289473684  73.90703125 11.5949013157895  73.815625 12.2891447368421  C 73.72421875 12.9833881578947  73.09453125 13.4600328947369  72.4140625 13.3667763157895  Z M 87.7703125 34.9608552631579  C 87.7703125 37.5513157894737  87.45546875 39.5925986842105  86.7953125 41.1779605263158  C 86.11484375 42.8358552631579  85.05859375 44.1207236842105  83.6671875 45.0118421052632  C 82.265625 45.9029605263158  80.61015625 46.3588815789474  78.7515625 46.3588815789474  C 76.75078125 46.3588815789474  75.075 45.8511513157895  73.76484375 44.8356907894737  C 72.4546875 43.8202302631579  71.6625 42.4110197368421  71.40859375 40.6391447368421  L 71.2359375 39.4993421052632  L 75.91796875 39.1159539473684  C 74.9125 38.7740131578947  74.00859375 38.2248355263158  73.20625 37.4891447368421  C 71.74375 36.1317434210526  71.00234375 34.3391447368421  71.00234375 32.1735197368421  C 71.00234375 29.9457236842105  71.77421875 28.1013157894737  73.29765625 26.7128289473684  C 74.83125 25.3139802631579  76.78125 24.5990131578947  79.0765625 24.5990131578947  C 80.721875 24.5990131578947  82.25546875 24.9927631578947  83.6265625 25.7802631578947  C 84.99765625 26.5677631578947  86.05390625 27.6972039473684  86.7546875 29.1375  C 87.43515625 30.5363486842105  87.7703125 32.4325657894737  87.7703125 34.9608552631579  Z M 94.00625 14.2786184210526  C 94.19921875 14.5583881578947  94.28046875 14.8899671052632  94.23984375 15.2215460526316  C 94.1484375 15.9157894736842  93.51875 16.3924342105263  92.8484375 16.299177631579  C 92.16796875 16.2059210526316  91.70078125 15.5634868421053  91.7921875 14.8692434210526  C 91.88359375 14.175  92.51328125 13.6983552631579  93.19375 13.7916118421053  C 93.51875 13.8330592105263  93.81328125 14.0195723684211  94.00625 14.2786184210526  Z M 76.26328125 32.2356907894737  C 76.26328125 33.1578947368421  76.5578125 33.8832236842105  77.15703125 34.4324013157895  C 78.35546875 35.5307565789474  80.32578125 35.5203947368421  81.44296875 34.453125  C 82.021875 33.9039473684211  82.29609375 33.1060855263158  82.29609375 32.0388157894737  C 82.29609375 30.9611842105263  82.0015625 30.1633223684211  81.40234375 29.5726973684211  C 80.8234375 29.0131578947369  80.19375 28.7541118421053  79.4015625 28.7541118421053  C 78.56875 28.7541118421053  77.88828125 29.0442434210526  77.2484375 29.6659539473684  C 76.578125 30.3083881578947  76.26328125 31.1476973684211  76.26328125 32.2356907894737  Z " fill-rule="nonzero" fill="#ffffff" stroke="none" transform="matrix(1 0 0 1 1084 709 )" />
  </g>
</svg>