<?xml version="1.0" encoding="utf-8"?>
<svg version="1.1" xmlns:xlink="http://www.w3.org/1999/xlink" width="85px" height="70px" xmlns="http://www.w3.org/2000/svg">
  <g transform="matrix(1 0 0 1 -108 -708 )">
    <path d="M 59.0704301706349 35.3927051404612  C 59.0704301706349 35.3927051404612  74.2563271150794 24.5273530901468  74.1872761507937 15.4949019371069  C 74.1235368095238 7.66149548008386  67.4149716468254 1.31236897274633  59.0704301706349 1.31236897274633  C 50.7205770714286 1.31236897274633  44.4422524285714 7.67734185324948  43.9482725674603 15.4949019371069  C 43.3799301190476 24.5273530901468  59.0704301706349 35.3927051404612  59.0704301706349 35.3927051404612  Z M 58.8207844285714 8.6862296687631  C 62.4751730357143 8.6862296687631  65.4337405793651 11.5491469685535  65.4337405793651 15.0776132830189  C 65.4337405793651 18.6060795303983  62.4751730357143 21.4689968301887  58.8207844285714 21.4689968301887  C 55.1663958214286 21.4689968301887  52.2025166547619 18.6060795303983  52.2025166547619 15.0776132830189  C 52.2025166547619 11.5491469685535  55.1663958214286 8.6862296687631  58.8207844285714 8.6862296687631  Z M 39.8317737698413 47.5416161006289  C 40.3576233015873 46.7862707253669  40.8197334920635 45.9939504570231  41.2234159642857 45.1752195220126  C 42.5088259007937 42.7243087966457  43.2949443531746 40.2417052578616  43.2736979285714 37.8541801593291  C 43.1834005396825 27.0839065492662  33.6065652222222 18.3525370901468  21.6766860357143 18.3525370901468  C 21.6501279880952 18.3525370901468  21.6235699404762 18.3525370901468  21.5970118928571 18.3525370901468  C 21.5651422222222 18.3525370901468  21.5385841746032 18.3525370901468  21.5120261269841 18.3525370901468  C 9.62995141269841 18.3525370901468  0 26.9254424821803  0 37.50555921174  C 0 38.0654655597484  0.0265580476190476 38.6148076142558  0.0796741428571429 39.1641496687631  C 0.143413484126984 40.1888839245283  0.345254753968254 41.2241824067086  0.669263015873016 42.2647630356394  C 1.27478675793651 44.3723349601677  2.27336965873016 46.3372892578616  3.59064926587302 48.0962402348008  C 9.71493724603175 57.2343341215933  21.6766860357143 65.2156404192872  21.6766860357143 65.2156404192872  C 21.6766860357143 65.2156404192872  33.7340439047619 56.9121239077568  39.8317737698413 47.5416161006289  Z M 21.3208081031746 43.9127891991614  C 16.4500604563492 43.9127891991614  12.4982215674603 40.0990876310273  12.4982215674603 35.3927051404612  C 12.4982215674603 30.6863227169811  16.4500604563492 26.872621081761  21.3208081031746 26.872621081761  C 26.1968673055556 26.872621081761  30.1433945714286 30.6863227169811  30.1433945714286 35.3927051404612  C 30.1433945714286 40.0990876310273  26.1968673055556 43.9127891991614  21.3208081031746 43.9127891991614  Z M 78.6330949007937 48.8304570901468  C 56.7811256428571 44.831880721174  61.0251031904762 39.6501060964361  61.0251031904762 39.6501060964361  L 56.6111541111111 39.6501060964361  C 54.2474870634921 53.1987828595388  91.9227465436508 48.2388579287212  77.2733223769841 59.7116555136268  C 64.3076789960317 69.869201509434  33.5322026349206 60.9529573165618  33.5322026349206 60.9529573165618  L 29.1235651785714 65.2156404192872  C 78.3303330634921 81.2522028008385  95.6196280674603 51.9416346834382  78.6330949007937 48.8304570901468  Z " fill-rule="nonzero" fill="#ffffff" stroke="none" transform="matrix(1 0 0 1 108 708 )" />
  </g>
</svg>