<?xml version="1.0" encoding="utf-8"?>
<svg version="1.1" xmlns:xlink="http://www.w3.org/1999/xlink" width="33px" height="39px" xmlns="http://www.w3.org/2000/svg">
  <g transform="matrix(1 0 0 1 -136 -266 )">
    <path d="M 26.280709675 12.5874562395833  C 25.92888560625 11.9637681041667  25.1196902 11.7558720364583  24.41604199375 11.9984174375  C 24.169765125 12.1023654375  23.92348825625 12.2409628385417  23.7475761875 12.44885890625  L 23.7123937875 12.4835082395833  C 22.86801598125 8.845327359375  20.65152423125 3.54397800520833  14.49460271875 1.15317339583334  C 13.96686658125 0.945277328125001  13.40394804375 1.01457599479167  12.91139430625 1.291770796875  C 12.45402296875 1.56896553125  12.1373813 2.05405633333334  12.0670165 2.60844580208333  C 11.85592203125 4.964601078125  10.62453775625 11.5826253697917  7.5988506 13.9734299791667  C 4.01024490625 16.78002665625  0.386456743750001 21.561635875  1.01974015 26.5164917604167  C 1.5826586875 30.9862569114583  5.38235885 34.7976845260417  12.24292856875 37.8121772708333  C 13.016941575 38.158670671875  13.89650178125 37.9161252708333  14.38905545 37.2231384010417  C 14.8816091875 36.5648009322917  14.8112443875 35.6292686614583  14.24832585 35.040229859375  C 14.21314345 35.0055805260417  11.081909025 31.5406463125  11.6448275625 27.833166765625  C 11.85592203125 26.273946359375  12.7002998375 24.8186740208333  14.14277858125 23.501999015625  C 14.63533231875 24.9572713541667  15.72598699375 26.724387828125  17.87211394375 28.4222055677083  C 20.7922539 30.6744127760417  17.661019475 35.0748792604167  17.520289875 35.2481259270833  C 17.0981009375 35.8371647291667  17.0629185375 36.6340995989583  17.485107475 37.2231384010417  C 17.80174914375 37.708229203125  18.36466768125 37.9854239375  18.92758621875 37.9854239375  C 19.0683158875 37.9854239375  19.2090454875 37.9854239375  19.3497750875 37.9507746041667  C 19.73678155625 37.8468266041667  28.95457269375 35.5253206614583  31.3469765125 28.4568549010417  C 32.895002525 23.8484924166667  31.20624684375 18.5124937291667  26.280709675 12.5874562395833  Z M 24.8030484625 16.2602865208333  C 28.0398300875 20.5568049375  29.1304847625 24.2642845520833  28.1101948875 27.278777296875  C 27.19545228125 30.050724640625  24.62713639375 31.88713978125  22.37546224375 33.0305680520833  C 23.00874558125 30.5358154427083  22.7272863125 27.6945693645833  20.08860569375 25.6502582239583  C 16.9573713375 23.22480428125  17.23883060625 20.9379477395833  17.27401300625 20.6954022708333  C 17.485107475 20.0024154010417  17.20364820625 19.3094285989583  16.64072966875 18.89363653125  C 16.07781113125 18.4431950625  15.268615725 18.4431950625  14.63533231875 18.8243378645833  C 10.80044975625 21.11119440625  8.65432280624999 23.9870898177083  8.16176913749999 27.3134266302083  C 7.95067466874999 28.9072963697917  8.12658673749999 30.3972180416667  8.51359320624999 31.7485423802083  C 6.12118938749999 29.98142590625  4.78425784374999 28.0757120989583  4.50279857499999 26.0660502916667  C 4.04542723749999 22.5318174114583  7.07111439374999 18.7896884635417  9.78015994999999 16.67607865625  C 13.122488775 14.0427286458333  14.6001499875 8.63743129166667  15.19825085625 5.41504247916667  C 20.5107945625 8.91462602604167  20.61634183125 15.8791437864583  20.61634183125 16.1909878541667  C 20.61634183125 16.8839747239583  21.03853076875 17.5423121927083  21.70699650625 17.78485759375  C 22.37546224375 18.062052328125  23.11429285 17.88880559375  23.6420289875 17.4037147916667  L 24.8030484625 16.2602865208333  Z " fill-rule="nonzero" fill="#ffffff" stroke="none" transform="matrix(1 0 0 1 136 266 )" />
  </g>
</svg>