<?xml version="1.0" encoding="utf-8"?>
<svg version="1.1" xmlns:xlink="http://www.w3.org/1999/xlink" width="63px" height="30px" xmlns="http://www.w3.org/2000/svg">
  <g transform="matrix(1 0 0 1 -121 -981 )">
    <path d="M 62.7393846152163 29  L 0.252 29  C 0.674153846069711 23.172266667  1.52707692299279 14.98026666675  3.40523076948317 7.47093333375  C 3.79292307717548 5.5338666675  5.18861538486779 3.9040000005  5.23169230727164 3.84426666675  C 5.41261538394231 2.69226666675  19.6624615382091 2.69226666675  19.6624615382091 2.69226666675  L 22.0230769234976 2.47040000025  C 21.68707692375 4.53546666674999  21.4286153847837 7.68426666675  22.3332307696514 10.38080000025  C 23.4963076927284 13.92213333375  25.3572307696514 17.43786666675  27.8815384612861 19.52853333375  L 28.4156923072716 10.11626666625  L 33.274769230601 10.11626666625  L 34.1104615387139 18.9397333335  C 35.8766153852885 16.43946666675  37.9356923076923 12.497066667  38.1510769234976 7.4794666665  C 38.3233846153846 3.554133333  39.3141538465745 1.76213333324999  40.1670769234976 0.934400000249997  C 46.0686153852043 1.17333333374999  53.4778461545192 2.24000000025  56.4501538465745 3.85280000025  C 59.2846153851202 5.38880000025  60.1720000004207 14.98880000025  62.7393846152163 29  Z " fill-rule="nonzero" fill="#ffffff" stroke="none" transform="matrix(1 0 0 1 121 981 )" />
  </g>
</svg>