<?xml version="1.0" encoding="utf-8"?>
<svg version="1.1" xmlns:xlink="http://www.w3.org/1999/xlink" width="40px" height="49px" xmlns="http://www.w3.org/2000/svg">
  <g transform="matrix(1 0 0 1 -131 -941 )">
    <path d="M 24.8263973068182 45.4773116530335  L 22.9990572386364 48.1628834689177  L 19.9477441075758 48.1628834689177  L 17.5084175083333 46.1487046066311  L 21.1717171719697 41.4489539299543  L 24.8263973068182 45.4773116530335  Z M 33.9372390568182 15.1371490519055  C 36.0231649825758 14.3212791329573  40.6518518515152 11.1342872635366  39.1865319863636 8.26174525728658  C 37.7298316492424 5.38070460663109  29.2482154878788 1.06339295359756  19.9908417507576 0.765940379237801  C 10.7420875424242 0.459989159725605  0.941683501515155 5.7546449858689  1.01925925909091 9.63002710068597  C 1.09683501666667 13.4969105696037  5.94962962954546 15.1626449866159  5.94962962954546 15.1626449866159  C 5.69966330000001 15.9105257458384  5.82895622878788 18.8170623312043  5.82895622878788 18.8170623304573  C 5.82895622878788 18.8170623297104  6.05306397272728 19.2164986444055  6.47542087500001 19.7774092140091  C 5.04457912424243 38.363945799375  21.525117844697 38.6783956640396  21.525117844697 38.6783956640396  C 35.8076767674242 37.2166287262043  34.6698989893939 21.9190677505945  34.5319865318182 19.7094200542835  C 34.4802693598485 18.9020487804878  34.3768350166667 18.2561517616006  34.2561616159091 17.678243902439  C 34.4371717166667 16.4289430896799  33.9372390568182 15.1371490519055  33.9372390568182 15.1371490519055  Z M 14.8277441075757 6.83397289931402  C 14.8277441075757 6.84247154446646  16.1120538719697 6.68099728955792  17.654949494697 6.80847696460366  C 17.6377104378788 6.68949593471036  17.620471380303 6.56201626041158  17.620471380303 6.43453658536585  C 17.620471380303 4.87078590794207  19.0168350166667 3.59598915972561  20.7493602689394 3.59598915972561  C 22.4818855212121 3.59598915972561  23.8782491575758 4.87078590794207  23.8782491583333 6.43453658536585  C 23.8782491583333 6.63000542013719  23.8523905727273 6.82547425490853  23.8092929295454 7.02094308967988  C 24.7402020204545 6.93595663964939  25.7486868689394 6.85946883477134  26.6623569022727 6.84247154446646  C 26.6623569022727 6.84247154446646  24.0592592590909 8.04078048780487  22.5767003371212 8.74616802126524  C 22.3525925931818 8.8906449858689  22.1198653204545 9.00112737060975  21.8526599325757 9.09461246653963  C 21.8354208757576 9.10311111169207  21.8181818181818 9.12010840125  21.7923232325757 9.12860704565549  C 21.7923232325757 9.12860704565549  21.7061279462121 9.15410298036585  21.5682154886364 9.17110027141768  C 21.309629630303 9.23908943114329  21.0338047143939 9.28158265615853  20.7493602689394 9.28158265541158  C 20.6976430969697 9.28158265541158  20.6459259257576 9.26458536585366  20.5855892257576 9.26458536585366  C 19.8960269363636 9.26458536585366  19.0168350174242 9.12860704565549  18.3100336704545 8.54220054208841  C 18.3100336704545 8.54220054208841  17.2412121212121 7.81981571832317  14.8277441075757 6.83397289931402  Z M 31.5927272727273 14.9756747969969  L 31.5841077439394 15  L 7.93212121212121 15  L 7.93212121212121 13  L 31.5927272727273 13  L 31.5927272727273 14.9756747969969  Z " fill-rule="nonzero" fill="#ffffff" stroke="none" transform="matrix(1 0 0 1 131 941 )" />
  </g>
</svg>