<?xml version="1.0" encoding="utf-8"?>
<svg version="1.1" xmlns:xlink="http://www.w3.org/1999/xlink" width="193px" height="40px" xmlns="http://www.w3.org/2000/svg">
  <defs>
    <radialGradient cx="1572.5" cy="881" r="96.5" gradientTransform="matrix(-1 0 0 -0.207253886010363 3145 1063.59067357513 )" gradientUnits="userSpaceOnUse" id="RadialGradient681">
      <stop id="Stop682" stop-color="#004959" offset="0" />
      <stop id="Stop683" stop-color="#00396e" offset="1" />
    </radialGradient>
  </defs>
  <g transform="matrix(1 0 0 1 -1476 -861 )">
    <path d="M 1476.5 881  A 19.5 19.5 0 0 1 1496 861.5 L 1649 861.5  A 19.5 19.5 0 0 1 1668.5 881 A 19.5 19.5 0 0 1 1649 900.5 L 1496 900.5  A 19.5 19.5 0 0 1 1476.5 881 Z " fill-rule="nonzero" fill="url(#RadialGradient681)" stroke="none" />
    <path d="M 1476.5 881  A 19.5 19.5 0 0 1 1496 861.5 L 1649 861.5  A 19.5 19.5 0 0 1 1668.5 881 A 19.5 19.5 0 0 1 1649 900.5 L 1496 900.5  A 19.5 19.5 0 0 1 1476.5 881 Z " stroke-width="1" stroke="#027db4" fill="none" />
  </g>
</svg>