<?xml version="1.0" encoding="utf-8"?>
<svg version="1.1" xmlns:xlink="http://www.w3.org/1999/xlink" width="264px" height="149px" xmlns="http://www.w3.org/2000/svg">
  <g transform="matrix(1 0 0 1 -601 -249 )">
    <path d="M 601 249  L 865 249  L 865 398  L 601 398  L 601 249  " fill-rule="nonzero" fill="#cccccc" stroke="none" />
    <path d="M 611 259  L 855 259  L 855 388  L 611 388  L 611 259  " fill-rule="nonzero" fill="#ffffff" stroke="none" />
    <path d="M 749.455 293.7  C 743.197 293.7  738.28 288.783  738.28 282.525  C 738.28 276.267  743.197 271.35  749.455 271.35  C 755.713 271.35  760.63 276.267  760.63 282.525  C 760.63 288.783  755.713 293.7  749.455 293.7  " fill-rule="nonzero" fill="#cccccc" stroke="none" />
    <path d="M 615 385  L 615 317.9  L 674.25 287.4  L 757.2 343.686363636364  L 804.6 305.7  L 852 343.686363636364  L 852 385  L 615 385  " fill-rule="nonzero" fill="#169bd5" stroke="none" />
  </g>
</svg>