<?xml version="1.0" encoding="utf-8"?>
<svg version="1.1" xmlns:xlink="http://www.w3.org/1999/xlink" width="18px" height="20px" xmlns="http://www.w3.org/2000/svg">
  <g transform="matrix(1 0 0 1 -487 -122 )">
    <path d="M 14.33493255 6.45510576388888  C 14.1430285125 6.13526569444444  13.7016492 6.02865232638888  13.3178410875 6.15303458333333  C 13.18350825 6.20634125  13.0491754125 6.27741684027778  12.953223375 6.38403020833333  L 12.934032975 6.40179909722222  C 12.4734632625 4.5360653125  11.2644677625 1.81742461805556  7.9061469375 0.591370972222223  C 7.6182908625 0.484757604166667  7.3112443875 0.520295381944446  7.0425787125 0.662446562500001  C 6.7931034375 0.804597708333334  6.6203898 1.05336222222222  6.582009 1.33766451388889  C 6.4668665625 2.54594927083333  5.7952024125 5.93980788194444  4.1448276 7.16586152777778  C 2.1874063125 8.605141875  0.210794587500001 11.0572491666667  0.5562219 13.5982009027778  C 0.863268375 15.8903881597222  2.9358321 17.8449664236111  6.6779610375 19.3908601388889  C 7.10014995 19.5685490625  7.5799100625 19.4441668055556  7.8485757 19.0887889236111  C 8.117241375 18.7511799652778  8.078860575 18.2714198263889  7.7718141 17.9693486458333  C 7.7526237 17.9515797569444  6.04467765 16.1746904166667  6.351724125 14.2734188541667  C 6.4668665625 13.4738186458333  6.927436275 12.7275251388889  7.7142428625 12.0523071875  C 7.9829085375 12.7986006944444  8.5778110875 13.7048142708333  9.7484257875 14.5754900347222  C 11.3412294 15.7304680902778  9.63328335 17.9871175694444  9.55652175 18.0759620138889  C 9.326236875 18.3780331944444  9.307046475 18.7867177430556  9.53733135 19.0887889236111  C 9.7100449875 19.3375534375  10.0170914625 19.4797045833333  10.3241379375 19.4797045833333  C 10.400899575 19.4797045833333  10.477661175 19.4797045833333  10.554422775 19.4619356944444  C 10.7655172125 19.4086290277778  15.7934032875 18.2181131597222  17.098350825 14.5932589236111  C 17.94272865 12.2299961111111  17.0215891875 9.49358652777777  14.33493255 6.45510576388888  Z M 13.528935525 8.33860847222222  C 15.294452775 10.54195125  15.889355325 12.4432228472222  15.332833575 13.9891165625  C 14.8338830625 15.4106280208333  13.4329834875 16.352379375  12.2047975875 16.9387528472222  C 12.5502248625 15.6593925347222  12.396701625 14.2023432638889  10.9574212875 13.1539785763889  C 9.249475275 11.9101560416667  9.40299851249999 10.7374090972222  9.4221889125 10.6130268055556  C 9.53733135 10.2576489236111  9.38380811249999 9.90227107638889  9.0767616375 9.689044375  C 8.7697151625 9.45804875  8.32833584999999 9.45804875  7.98290853749999 9.65350659722223  C 5.8911544125 10.8262535416667  4.72053971249999 12.3010717013889  4.45187407499999 14.0068854513889  C 4.33673163749999 14.8242545486111  4.43268367499999 15.5883169444444  4.64377811249999 16.2813037847222  C 3.33883057499999 15.3750902083333  2.6095951875 14.3978010763889  2.45607194999999 13.3672052777778  C 2.20659667499999 11.5547781597222  3.85697148749999 9.63573767361111  5.33463269999999 8.55183520833334  C 7.15772114999999 7.20139930555556  7.96371817499999 4.42945194444445  8.28995501249999 2.77694486111111  C 11.187706125 4.57160309027778  11.2452773625 8.14315065972223  11.2452773625 8.30307069444445  C 11.2452773625 8.65844857638889  11.4755622375 8.99605753472222  11.8401799125 9.12043979166667  C 12.2047975875 9.2625909375  12.6077961 9.17374645833334  12.895652175 8.92498194444445  L 13.528935525 8.33860847222222  Z " fill-rule="nonzero" fill="#0fe6d5" stroke="none" transform="matrix(1 0 0 1 487 122 )" />
  </g>
</svg>