<?xml version="1.0" encoding="utf-8"?>
<svg version="1.1" xmlns:xlink="http://www.w3.org/1999/xlink" width="60px" height="56px" xmlns="http://www.w3.org/2000/svg">
  <g transform="matrix(1 0 0 1 -2068 -109 )">
    <path d="M 0 12  L 30 0  L 60 12  L 60 16  L 56 16  C 56 16.5416666666667  55.7864583333333 17.0104166666667  55.359375 17.40625  C 54.9322916666667 17.8020833333333  54.4270833333333 18  53.84375 18  L 6.15625 18  C 5.57291666666667 18  5.06770833333333 17.8020833333333  4.640625 17.40625  C 4.21354166666667 17.0104166666667  4 16.5416666666667  4 16  L 0 16  L 0 12  Z M 8 44  L 8 20  L 16 20  L 16 44  L 20 44  L 20 20  L 28 20  L 28 44  L 32 44  L 32 20  L 40 20  L 40 44  L 44 44  L 44 20  L 52 20  L 52 44  L 53.84375 44  C 54.4270833333333 44  54.9322916666667 44.1979166666667  55.359375 44.59375  C 55.7864583333333 44.9895833333333  56 45.4583333333333  56 46  L 56 48  L 4 48  L 4 46  C 4 45.4583333333333  4.21354166666667 44.9895833333333  4.640625 44.59375  C 5.06770833333333 44.1979166666667  5.57291666666667 44  6.15625 44  L 8 44  Z M 2.15625 50  L 57.84375 50  C 58.4270833333333 50  58.9322916666667 50.1979166666667  59.359375 50.59375  C 59.7864583333333 50.9895833333333  60 51.4583333333333  60 52  L 60 56  L 0 56  L 0 52  C 0 51.4583333333333  0.213541666666667 50.9895833333333  0.640625 50.59375  C 1.06770833333333 50.1979166666667  1.57291666666667 50  2.15625 50  Z " fill-rule="nonzero" fill="#ffffff" stroke="none" transform="matrix(1 0 0 1 2068 109 )" />
  </g>
</svg>