<?xml version="1.0" encoding="utf-8"?>
<svg version="1.1" xmlns:xlink="http://www.w3.org/1999/xlink" width="22px" height="22px" xmlns="http://www.w3.org/2000/svg">
  <g transform="matrix(1 0 0 1 -132 -7 )">
    <path d="M 143 11  C 146.92 11  150 14.08  150 18  C 150 21.92  146.92 25  143 25  C 139.08 25  136 21.92  136 18  C 136 14.08  139.08 11  143 11  Z " fill-rule="nonzero" fill="#ffffff" stroke="none" fill-opacity="0" />
    <path d="M 143 9.5  C 147.76 9.5  151.5 13.24  151.5 18  C 151.5 22.76  147.76 26.5  143 26.5  C 138.24 26.5  134.5 22.76  134.5 18  C 134.5 13.24  138.24 9.5  143 9.5  Z " stroke-width="5" stroke="#0972bf" fill="none" />
  </g>
</svg>