<?xml version="1.0" encoding="utf-8"?>
<svg version="1.1" xmlns:xlink="http://www.w3.org/1999/xlink" width="54px" height="62px" xmlns="http://www.w3.org/2000/svg">
  <g transform="matrix(1 0 0 1 -2073 -456 )">
    <path d="M 0.85625 27.40625  C 0.64375 31.3875  3.775 34.325  7.53125 34.325  C 8.15625 34.325  8.15625 33.90625  9 33.275  L 9 21.1125  C 8.15625 20.69375  7.95 20.275  7.53125 20.275  C 3.775 20.275  0.85625 23.2125  0.85625 27.40625  Z M 44 33.69375  C 44.875 34.325  45.5 34.325  46.125 34.325  C 50.0875 34.325  53.21875 31.18125  53.21875 27.19375  C 53.21875 23.2125  49.88125 20.275  45.91875 20.275  C 45.5 20.275  44.66875 20.275  44 20.90625  L 44 33.69375  Z M 15.0375 10.63125  C 15.0375 11.05  15.45625 11.46875  15.875 12  L 36.7375 12  C 37.15625 11.46875  37.575 11.05  37.575 10.2125  C 36.95 4.55  32.15 0.15  26.30625 0.15  C 20.25625 0.15  15.45625 4.7625  15.0375 10.63125  Z M 53.0125 58.0125  C 53.0125 55.91875  51.3375 54.03125  49.25625 54  L 38 54  L 38 36.8375  L 42.1625 36.8375  C 42.58125 36.8375  42.7875 36.625  42 36.20625  L 42 18.80625  C 42.7875 18.3875  42.58125 18.175  42.1625 18.175  L 38.2 18.175  L 38.2 14.19375  C 38.2 13.775  37.99375 13.5625  37.575 14  L 15.45625 14  C 15.0375 13.35  14.83125 13.775  14.83125 14.19375  L 14.83125 18.175  L 10.86875 18.175  C 10.45 17.9625  10.03125 18.3875  10 18.80625  L 10 36.41875  C 10.03125 36.8375  10.2375 37.05  10.65625 37.05  L 15 37.05  L 15 54.03125  L 6.06875 54.03125  C 3.98125 54.03125  2.3125 55.70625  2.3125 57.80625  C 2.3125 59.9  3.98125 61.7875  6.06875 61  L 49.25625 61  C 51.34375 61.7875  53.0125 60.1125  53.0125 58.0125  Z M 31.73125 26.98125  C 31.73125 30.125  29.225 32.64375  26.1 32.64375  C 22.96875 32.64375  20.46875 30.125  20.46875 26.98125  C 20.46875 23.8375  22.975 21.31875  26.1 21.31875  C 29.23125 21.31875  31.73125 23.8375  31.73125 26.98125  Z " fill-rule="nonzero" fill="#ffffff" stroke="none" transform="matrix(1 0 0 1 2073 456 )" />
  </g>
</svg>