<?xml version="1.0" encoding="utf-8"?>
<svg version="1.1" xmlns:xlink="http://www.w3.org/1999/xlink" width="42px" height="13px" xmlns="http://www.w3.org/2000/svg">
  <g transform="matrix(1 0 0 1 -2079 -584 )">
    <path d="M 26.28125 0.568750000000001  C 25.8 0.568750000000001  25.4125 0.956250000000004  25.4125 1.43125  L 25.4125 4.65625  C 25.4125 8.94375  28.91875 12.4375  33.225 12.4375  L 40.63125 12.4375  C 41.1125 12.4375  41.5 12.05  41 11.575  L 41 1.43125  C 41.5 0.956249999999997  41.1125 0.568750000000001  40.63125 0.568750000000001  L 26.28125 0.568750000000001  Z M 15.63125 0.568750000000001  L 1.28125 0.568750000000001  C 0.800000000000001 0.568750000000001  0.4125 0.956250000000004  1 1.43125  L 1 11.575  C 0.4125 12.05  0.799999999999999 12.4375  1.28125 12.4375  L 8.6875 12.4375  C 12.99375 12.4375  16.5 8.95  16.5 4.65625  L 16.5 1.43125  C 16.5 0.956249999999997  16.1125 0.568750000000001  15.63125 0.568750000000001  Z " fill-rule="nonzero" fill="#ffffff" stroke="none" transform="matrix(1 0 0 1 2079 584 )" />
  </g>
</svg>