<?xml version="1.0" encoding="utf-8"?>
<svg version="1.1" xmlns:xlink="http://www.w3.org/1999/xlink" width="56px" height="36px" xmlns="http://www.w3.org/2000/svg">
  <g transform="matrix(1 0 0 1 -2072 -543 )">
    <path d="M 55.675 23.3  C 55.675 22.81875  55.2875 22.43125  54.80625 22.43125  L 52.76875 22.43125  C 50.5375 12.2875  42.2375 4.425  31.95 2.725  L 31.95 1.85625  C 31.95 1.38125  31.5625 0.99375  31.08125 0.99375  L 24.83125 0.99375  C 24.35 0.99375  23.9625 1.38125  23.9625 1.85625  L 23.9625 2.65  C 18.80625 3.4  14.075 5.675  10.2375 9.2375  C 6.40000000000001 12.8125  3.79375000000001 17.3625  2.68750000000001 22.43125  L 1.10625 22.43125  C 0.625 22.43125  0.2375 22.81875  0.2375 23.29375  L 0.2375 28.1375  C 0.2375 28.6125  0.625 29  1.10625 29  L 5.73125 29  C 5.75625 29.01875  5.78125 29.04375  5.8125 29.0625  C 5.99375 29.1875  6.175 29.3125  6.35625 29.43125  C 12.7625 33.675  20.23125 35.91875  27.95625 35.91875  C 35.725 35.91875  43.23125 33.65  49.6625 29.3625  C 49.825 29.25  49.99375 29.14375  50.15625 29.03125  C 50.16875 29.025  50.175 29.0125  50.1875 29.00625  L 54.80625 29.00625  C 55.2875 29.00625  55.675 28.61875  55.675 28.14375  L 55.675 23.3  Z " fill-rule="nonzero" fill="#ffffff" stroke="none" transform="matrix(1 0 0 1 2072 543 )" />
  </g>
</svg>