<?xml version="1.0" encoding="utf-8"?>
<svg version="1.1" xmlns:xlink="http://www.w3.org/1999/xlink" width="52px" height="57px" xmlns="http://www.w3.org/2000/svg">
  <g transform="matrix(1 0 0 1 -2035 -100 )">
    <path d="M 26.10625 28.9625  C 26.1 28.9625  7.23125 38.325  20.50625 56.93125  C 20.50625 56.93125  0.925000000000001 54.44375  0.925000000000001 39.13125  C 0.925000000000001 25.88125  23.84375 18.64375  20.50625 0.987499999999997  C 20.50625 0.987499999999997  37.96875 6.5625  37.2875 23.875  C 37.2875 23.875  40.03125 22.725  40.0875 18.7875  C 40.0875 18.7875  51.275 26.08125  51.275 39.13125  C 51.275 54.125  31.7 56.93125  31.7 56.93125  C 31.7 56.93125  37.2875 53.19375  37.2875 46.7625  C 37.2875 40.33125  24.9 38.4375  26.10625 28.9625  Z " fill-rule="nonzero" fill="#ffffff" stroke="none" transform="matrix(1 0 0 1 2035 100 )" />
  </g>
</svg>