<?xml version="1.0" encoding="utf-8"?>
<svg version="1.1" xmlns:xlink="http://www.w3.org/1999/xlink" width="51px" height="52px" xmlns="http://www.w3.org/2000/svg">
  <g transform="matrix(1 0 0 1 -2040 -274 )">
    <path d="M 50.75 28.6875  L 50.75 26  L 37 26  L 37 9.7125  L 38.0875 9.70625  L 38.0875 9.16875  L 32.55 6.525  L 19.09375 0.09375  L 5.63125 6.525  L 0.15625 9.1375  L 0.15625 9.70625  L 2 9.7125  L 2 25.525  L 1.1 51  L 50.75 51  L 50.75 49.45  L 49 49.45  L 49 28.6875  L 50.75 28.6875  Z M 14.88125 41.54375  L 14.88125 47.275  L 12.1125 47.275  L 12.1125 41.54375  L 14.88125 41.54375  Z M 14.88125 31.25625  L 14.88125 39.16875  L 12.1125 39.16875  L 12.1125 31.25625  L 14.88125 31.25625  Z M 20.4125 41.54375  L 20.4125 47.275  L 17.64375 47.275  L 17.64375 41.54375  L 20.4125 41.54375  Z M 20.4125 31.25625  L 20.4125 39.16875  L 17.64375 39.16875  L 17.64375 31.25625  L 20.4125 31.25625  Z M 25.95 41.54375  L 25.95 47.275  L 23.18125 47.275  L 23.18125 41.54375  L 25.95 41.54375  Z M 25.95 31.25625  L 25.95 39.16875  L 23.18125 39.16875  L 23.18125 31.25625  L 25.95 31.25625  Z M 23.5125 9.2375  C 23.5125 9.2375  27.25 14.36875  27.0125 18.1625  C 26.75 22.2875  22.5125 25.10625  22.5125 25.10625  C 22.5125 25.10625  23.7875 21.975  23.0125 19.15625  C 22.2875 16.525  19.5125 14.2  19.5125 14.2  C 19.5125 14.2  19.2 15.93125  19.0125 16.68125  C 18.725 17.83125  18.5125 18.6625  18.5125 18.6625  L 17.0125 16.18125  C 17.0125 16.18125  15.7625 18.9625  15.0125 20.64375  C 13.96875 23  15.0125 25.10625  15.0125 25.10625  C 15.0125 25.10625  11.3875 22.99375  11.0125 19.65  C 10.6375 16.29375  13.5125 11.71875  13.5125 11.71875  L 14.0125 14.2  C 14.0125 14.2  15.85625 12.16875  17.0125 9.7375  C 17.775 8.13125  17.5125 5.775  17.5125 5.775  C 17.5125 5.775  19.225 6.63125  20.5125 8.25  C 21.96875 10.0875  23.0125 13.20625  23.0125 13.20625  L 23.5125 9.2375  Z M 47 28  L 47 49.45  C 42.125 49.45  42.775 49.45625  37 49.45625  L 37 28  L 47 28  Z " fill-rule="nonzero" fill="#ffffff" stroke="none" transform="matrix(1 0 0 1 2040 274 )" />
  </g>
</svg>