<?xml version="1.0" encoding="utf-8"?>
<svg version="1.1" xmlns:xlink="http://www.w3.org/1999/xlink" width="51px" height="25px" xmlns="http://www.w3.org/2000/svg">
  <g transform="matrix(1 0 0 1 -2040 -305 )">
    <path d="M 0.137500000000003 21.8125  L 0.1375 25  L 50.75 25  L 50.75 21.80625  L 0.137500000000003 21.8125  Z M 43.43125 8.16875  L 43.43125 0.256250000000001  L 45.80625 0.256250000000001  L 45.80625 8.16875  L 43.43125 8.16875  Z M 43.43125 16.275  L 43.43125 10.54375  L 45.80625 10.54375  L 45.80625 16.275  L 43.43125 16.275  Z M 39.0875 8.16875  L 39.0875 0.256250000000001  L 41.4625 0.256250000000001  L 41.4625 8.16875  L 39.0875 8.16875  Z M 39.0875 16.275  L 39.0875 10.54375  L 41.4625 10.54375  L 41.4625 16.275  L 39.0875 16.275  Z " fill-rule="nonzero" fill="#ffffff" stroke="none" transform="matrix(1 0 0 1 2040 305 )" />
  </g>
</svg>