<?xml version="1.0" encoding="utf-8"?>
<svg version="1.1" xmlns:xlink="http://www.w3.org/1999/xlink" width="48px" height="19px" xmlns="http://www.w3.org/2000/svg">
  <g transform="matrix(1 0 0 1 -2041 -570 )">
    <path d="M 47 2.7  C 47.1 1.75  46.325 0.975000000000001  45.36875 1  L 2.55 1  C 1.59375 0.975000000000001  0.8125 1.75  1 2.70625  L 1 16.30625  C 0.8125 17.2625  1.5875 18.0375  2.55 18.0375  L 11.6875 18.0375  C 17.4375 18.0375  22.1 13.39375  22.1 7.66250000000001  L 22.1 4.66250000000001  L 25.80625 4.66250000000001  L 25.80625 7.66250000000001  C 25.80625 13.39375  30.46875 18.0375  36.21875 18.0375  L 45.3625 18.0375  C 46.31875 18.0375  47.1 17.2625  47 16.30625  L 47 2.7  Z " fill-rule="nonzero" fill="#ffffff" stroke="none" transform="matrix(1 0 0 1 2041 570 )" />
  </g>
</svg>