<?xml version="1.0" encoding="utf-8"?>
<svg version="1.1" xmlns:xlink="http://www.w3.org/1999/xlink" width="49px" height="19px" xmlns="http://www.w3.org/2000/svg">
  <g transform="matrix(1 0 0 1 -2075 -581 )">
    <path d="M 49 2.7  C 48.96875 1.27500000000001  47.8 0.106250000000003  46.36875 0.106250000000003  L 42.55 0.106250000000003  C 42.06875 0.106250000000003  41.68125 0.493750000000006  41.68125 0.96875  C 41.68125 1.44375  42.06875 1.83125  42.55 1.83125  L 46.36875 1.83125  C 46.85 1.83125  47.2375 2.21875  47 2.69374999999999  L 47 16.29375  C 47.2375 16.76875  46.85 17.15625  46.36875 17.15625  L 37.225 17.15625  C 31.9625 17.15625  27.675 12.8875  27.675 7.64375  L 27.675 4.64375  C 27.675 4.16875  27.2875 3.78125  26.80625 3.78125  L 23.1 3.78125  C 22.61875 3.78125  22.23125 4.16875  22.23125 4.64375  L 22.23125 7.64375  C 22.23125 12.8875  17.95 17.15625  12.68125 17.15625  L 3.55 17.15625  C 3.06875 17.15625  2.68125 16.76875  3 16.29375  L 3 2.7  C 2.68125 2.225  3.06875 1.83750000000001  3.55 2  L 37.91875 2  C 38.4 1.83750000000001  38.7875 1.45  38.7875 0.975000000000009  C 38.7875 0.500000000000014  38.4 0.112500000000011  37.91875 0.112500000000011  L 3.55 0.112500000000011  C 2.1125 0.112500000000011  0.943750000000001 1.27500000000001  1 2.70625000000001  L 1 16.30625  C 0.943750000000001 17.7375  2.1125 18.9  3.55 18.9  L 12.6875 18.9  C 18.90625 18.9  23.96875 13.85625  23.96875 7.66250000000001  L 23.96875 5.53125000000001  L 25.9375 5.53125000000001  L 25.9375 7.66250000000001  C 25.9375 13.8625  31 18.9  37.21875 18.9  L 46.3625 18.9  C 47.8 18.9  48.96875 17.7375  49 16.30625  L 49 2.7  Z " fill-rule="nonzero" fill="#ffffff" stroke="none" transform="matrix(1 0 0 1 2075 581 )" />
  </g>
</svg>