<?xml version="1.0" encoding="utf-8"?>
<svg version="1.1" xmlns:xlink="http://www.w3.org/1999/xlink" width="54px" height="46px" xmlns="http://www.w3.org/2000/svg">
  <g transform="matrix(1 0 0 1 -2044 -886 )">
    <path d="M 51.2820752089638 42.0659247910362  C 51.2767167180087 42.0659247910362  51.2713582563762 42.0659498609652  51.266 42.066  L 49 42.066  L 49 17.8  C 49.5219230281234 13.9754711600429  46.4245288399571 10.8780769718766  42.6 11  L 32.2 11  L 32.2 7.4  C 32.1879230281234 3.57547116004288  29.0905288399571 0.478076971876643  25.266 1  L 11.4 1  C 7.57547116004288 0.478076971876643  4.47807697187664 3.57547116004288  5 7.4  L 5 42.066  L 2.732 42.066  C 2.72663508027374 42.0659496775853  2.72126995404464 42.0659245159629  2.71590479831395 42.0659245159629  C 1.76818416760431 42.0659245159629  0.999904798313946 42.8342038852533  0.999904798313946 43.7819245159629  C 0.999904798313946 43.7879498026624  0.999936532649444 43.7939750475764  1 43.8  C 1 44.768  1.762 45.534  2.732 45  L 51.266 45  C 51.270685717602 45.5340382973392  51.2753715721432 45.5340574462486  51.2800574462486 45.5340574462486  C 52.2299872159576 45.5340574462486  53.0000574462486 44.7639872159575  53.0000574462486 43.8140574462486  C 53.0000574462486 43.8093715721429  53.0000382973392 43.8046857176022  53 43.8  C 53.0000501390348 43.7946417436236  53.0000752089638 43.7892832819915  53.0000752089638 43.7839247910362  C 53.0000752089638 42.8350995908269  52.2309004091731 42.0659247910362  51.2820752089638 42.0659247910362  Z M 28.732 7.4  L 28 10.866  L 28 42  L 8 42  L 8 7.4  C 7.934 5.494  9.492 3.934  11.4 4  L 25.266 4  C 27.174 3.934  28.732 5.494  28.732 7.4  Z M 46 17.8  L 46 42  L 32 42  L 32 15  L 42.6 15  C 44.506 14.334  46.066 15.894  46 17.8  Z M 25.264 12.6  C 25.264 11.63  24.504 10.866  23.534 11  L 13.134 11  C 12.162 10.866  11.4 11.63  11.4 12.6  C 11.4 13.57  12.162 14.332  13.132 15  L 23.532 15  C 24.502 14.332  25.264 13.57  25.264 12.6  Z M 23.5501175760975 21.265924217619  C 23.5447449616528 21.265924217619  23.5393723769012 21.2659494786919  23.534 22  L 13.134 22  C 13.1286417436236 21.2659498609652  13.1232832819915 21.2659247910362  13.1179247910362 21.2659247910362  C 12.1690995908269 21.2659247910362  11.3999247910362 22.0350995908269  11.3999247910362 22.9839247910362  C 11.3999247910362 22.9892832819913  11.3999498609652 22.9946417436238  11.4 23  C 11.4 23.97  12.162 24.734  13.132 24  L 23.532 24  C 23.5373649197263 24.7340503224147  23.5427300459554 24.734075484037  23.548095201686 24.734075484037  C 24.4958158323957 24.734075484037  25.2640952016861 23.9657961147467  25.2640952016861 23.018075484037  C 25.2640952016861 23.0120501973374  25.2640634673506 23.0060249524238  25.264 23  C 25.2640783833929 22.9933083594525  25.2641175760975 22.9866163172277  25.2641175760975 22.979924217619  C 25.2641175760975 22.033308156409  24.4967336373075 21.265924217619  23.5501175760975 21.265924217619  Z M 23.5520755731724 31.6679046862806  C 23.5460502564667 31.6679046862806  23.5400249816442 31.6679364579621  23.534 31  L 13.134 31  C 13.1279750183555 31.6679364579621  13.1219497435335 31.6679046862806  13.1159244268276 31.6679046862806  C 12.1693083656176 31.6679046862806  11.4019244268276 32.4352886250706  11.4019244268276 33.3819046862806  C 11.4019244268276 33.3872698795639  11.4019496181627 33.3926350432771  11.402 33.398  C 11.402 34.37  12.164 35.132  13.134 35  L 23.534 35  C 23.5393649197263 35.1320503224147  23.5447300459554 35.1320754840371  23.5500952016861 35.1320754840371  C 24.4978158323957 35.1320754840371  25.2660952016861 34.3637961147467  25.2660952016861 33.4160754840371  C 25.2660952016861 33.4100501973378  25.2660634673506 33.4040249524234  25.266 33.398  C 25.2660503818373 33.3926350432771  25.2660755731724 33.387269879564  25.2660755731724 33.3819046862806  C 25.2660755731724 32.4352886250706  24.4986916343824 31.6679046862806  23.5520755731724 31.6679046862806  Z M 40.8840953137194 21.2659244268276  C 40.8787301204359 21.2659244268276  40.8733649567231 21.2659496181627  40.868 21.266  L 37.4 21.266  C 37.3946475937248 21.265949970396  37.3892949828656 21.2659249551842  37.3839423427791 21.2659249551842  C 36.4351171425698 21.2659249551842  35.6659423427791 22.0350997549749  35.6659423427791 22.9839249551842  C 35.6659423427791 22.9886166958364  35.665961562014 22.9933084168057  35.666 22.998  C 35.6659617026608 23.0026857176016  35.6659425537514 23.0073715721436  35.6659425537514 23.0120574462486  C 35.6659425537514 23.9619872159575  36.4360127840425 24.7320574462486  37.3859425537514 24.7320574462486  C 37.3906284278566 24.7320574462486  37.3953142823983 24.7320382973392  37.4 24.732  L 40.866 24.732  C 40.8713649197263 24.7320503224147  40.8767300459554 24.7320754840371  40.8820952016861 24.7320754840371  C 41.8298158323957 24.7320754840371  42.5980952016861 23.9637961147467  42.5980952016861 23.0160754840371  C 42.5980952016861 23.0100501973378  42.5980634673506 23.0040249524234  42.598 22.998  C 42.5980635420379 22.9919750183559  42.5980953137194 22.9859497435331  42.5980953137194 22.9799244268276  C 42.5980953137194 22.0333083656176  41.8307113749294 21.2659244268276  40.8840953137194 21.2659244268276  Z M 40.8860956370404 31.6679043629596  C 40.8800636316648 31.6679043629596  40.8740316684112 31.6679362424183  40.868 31.668  L 37.4 31.668  C 37.3939809121938 31.6679366561572  37.3879615327505 31.6679049835781  37.3819421116436 31.6679049835781  C 36.434221480934 31.6679049835781  35.6659421116436 32.4361843528685  35.6659421116436 33.3839049835781  C 35.6659421116436 33.3886033818222  35.6659614079252 33.3933017602538  35.666 33.398  C 35.666 34.37  36.43 35.132  37.4 35.132  L 40.866 35.132  C 40.8713649197263 35.1320503224147  40.8767300459554 35.1320754840371  40.8820952016861 35.1320754840371  C 41.8298158323957 35.1320754840371  42.5980952016861 34.3637961147467  42.5980952016861 33.4160754840371  C 42.5980952016861 33.4100501973378  42.5980634673506 33.4040249524234  42.598 33.398  C 42.5980637575817 33.3919683315892  42.5980956370404 33.3859363683348  42.5980956370404 33.3799043629596  C 42.5980956370404 32.4343928712493  41.8316071287507 31.6679043629596  40.8860956370404 31.6679043629596  Z " fill-rule="nonzero" fill="#ffffff" stroke="none" transform="matrix(1 0 0 1 2044 886 )" />
  </g>
</svg>