<?xml version="1.0" encoding="utf-8"?>
<svg version="1.1" xmlns:xlink="http://www.w3.org/1999/xlink" width="64px" height="38px" xmlns="http://www.w3.org/2000/svg">
  <g transform="matrix(1 0 0 1 -2033 -628 )">
    <path d="M 13.96875 34.36875  C 13.96875 32.68125  12.60625 31.3125  10.925 31.3125  C 9.24375 31.3125  7.88125 32.68125  7.88125 34.36875  C 7.88125 36.05625  9.24375 37.425  10.925 37.425  C 12.60625 37.425  13.96875 36.05625  13.96875 34.36875  Z M 56.70625 34.00625  C 56.70625 32.3125  55.34375 30.95  53.6625 30.95  C 51.98125 30.95  50.61875 32.31875  50.61875 34.00625  C 50.61875 35.69375  51.98125 37.0625  53.6625 37.0625  C 55.34375 37.0625  56.70625 35.69375  56.70625 34.00625  Z M 48.83125 34.00625  C 48.83125 32.3125  47.46875 30.95  45.7875 30.95  C 44.10625 30.95  42.74375 32.31875  42.74375 34.00625  C 42.74375 35.69375  44.10625 37.0625  45.7875 37.0625  C 47.46875 37.0625  48.83125 35.69375  48.83125 34.00625  Z M 50.64375 23.3375  C 49.5125 23.9  48.1125 23.98125  46.94375 23.65  L 47.05 24.175  C 47.15 24.65625  47.325 25  47.5625 25.1875  C 48 25.525  48.875 25.53125  49.4125 25.25  C 49.69375 25.1  49.9125 24.9125  50.09375 24.66875  C 50.29375 24.4  50.4625 24.00625  50.60625 23.5125  C 50.625 23.45625  50.6375 23.39375  50.65625 23.33125  C 50.65 23.33125  50.64375 23.3375  50.64375 23.3375  Z M 63 8.33125  L 7.49375 0.512499999999999  L 7.49375 5.825  L 43.44375 11  L 18 11  L 18 25.125  L 16 25.125  L 16 10.875  L 9.1 10.875  L 9.1 8.1875  L 6.6625 8.1875  L 6.6625 10.875  L 3.58125 10.875  L 1 19.5875  L 1 34  L 7.3125 34  C 7.3125 32.01875  8.9125 30.41875  10.8875 30.41875  C 12.8625 30.41875  14.45625 32.025  14.45625 34  L 15.59375 34  L 15.59375 31.55625  L 17.21875 31.55625  L 17.21875 34  L 42.25625 34  C 42.24375 33.8625  42.2125 33.73125  42.2125 33.59375  C 42.2125 31.6125  43.8125 30.0125  45.7875 30.0125  C 47.7625 30.0125  49.35625 31.61875  49.35625 33.59375  C 49.35625 33.73125  49.33125 33.8625  49.31875 34  L 50.13125 34  C 50.11875 33.8625  50.09375 33.73125  50.09375 33.59375  C 50.09375 31.6125  51.69375 30.0125  53.6625 30.0125  C 55.6375 30.0125  57.2375 31.61875  57.2375 33.59375  C 57.2375 33.73125  57.2125 33.8625  57.19375 34  L 63 34  L 63 8.33125  Z M 11.26875 1.825  C 11.68125 1.88125  11.975 2.26875  11.9125 2.6875  C 11.85625 3.10625  11.46875 3.39375  11.05625 3.3375  C 10.64375 3.28125  10.35 2.89375  10.4125 2.475  C 10.46875 2.05625  10.85625 1.76875  11.26875 1.825  Z M 15.45 2.41875  C 15.86875 2.475  16.1625 2.8625  16.10625 3.28125  C 16.05 3.7  15.6625 3.9875  15.24375 3.93125  C 14.825 3.875  14.5375 3.4875  14.59375 3.06875  C 14.65 2.65  15.0375 2.3625  15.45 2.41875  Z M 19.64375 3.00625  C 20.0625 3.06875  20.35 3.45  20.29375 3.86875  C 20.2375 4.2875  19.85 4.575  19.43125 4.51875  C 19.01875 4.4625  18.725 4.075  18.78125 3.65625  C 18.8375 3.2375  19.225 2.95  19.64375 3.00625  Z M 23.83125 3.6  C 24.25 3.65625  24.54375 4.04375  24.48125 4.4625  C 24.425 4.88125  24.0375 5.16875  23.61875 5.1125  C 23.20625 5.05  22.9125 4.66875  22.975 4.25  C 23.03125 3.83125  23.41875 3.54375  23.83125 3.6  Z M 28.025 4.1875  C 28.4375 4.24375  28.73125 4.63125  28.66875 5.05  C 28.6125 5.46875  28.225 5.75625  27.80625 5.7  C 27.3875 5.64375  27.1 5.25624999999999  27.1625 4.8375  C 27.21875 4.41875  27.60625 4.13124999999999  28.025 4.1875  Z M 32.7 5.075  C 32.8375 5.2375  32.8875 5.44374999999999  32.85625 5.64375  C 32.8 6.0625  32.4125 6.35  31.99375 6.29375  C 31.575 6.23125  31.2875 5.84999999999999  31.34375 5.43125  C 31.4 5.0125  31.7875 4.71875  32.2 4.78125  C 32.4 4.80625  32.58125 4.91875  32.7 5.075  Z M 36.4125 5.36875  C 36.81875 5.43125  37.10625 5.8125  37.05 6.23125  C 37.025 6.43125  36.91875 6.6125  36.75625 6.7375  C 36.59375 6.8625  36.39375 6.9125  36.19375 6.88125  C 35.99375 6.85625  35.8125 6.74375  35.69375 6.5875  C 35.575 6.425  35.51875 6.225  35.55 6.01875  C 35.60625 5.6  35.99375 5.3125  36.4125 5.36875  Z M 40.5875 5.95624999999999  C 41.00625 6.01874999999999  41.29375 6.40624999999999  41.2375 6.81874999999999  C 41.18125 7.23749999999999  40.79375 7.525  40.375 7.46874999999999  C 39.95625 7.41249999999999  39.66875 7.02499999999999  39.73125 6.60624999999999  C 39.7875 6.18749999999999  40.175 5.89999999999999  40.5875 5.95624999999999  Z M 12.18125 11.9375  L 12.18125 19.34375  L 2.6875 19.34375  L 4.45 11.9375  L 12.18125 11.9375  Z M 32 27.7625  L 32.08125 27.7625  L 28.89375 27.7625  L 28.89375 19.4125  C 28.76875 19.48125  28.64375 19.54375  28.5125 19.6125  C 27.8375 19.95625  27.2125 20.21875  26.6625 20.39375  L 25.61875 20.73125  L 25.61875 17.96875  L 26.0625 17.7875  C 26.90625 17.44375  27.65 17.025  28.275 16.5375  C 28.88125 16.06875  29.3125 15.61875  29.55 15.2  L 29.7625 14.825  L 32 14.825  L 32 27.7625  Z M 41 27.7625  L 41.05625 27.7625  L 37.86875 27.7625  L 37.86875 19.4125  C 37.74375 19.48125  37.6125 19.55  37.4875 19.6125  C 36.8125 19.95625  36.1875 20.21875  35.6375 20.39375  L 34.59375 20.73125  L 34.59375 17.96875  L 35.0375 17.7875  C 35.88125 17.44375  36.625 17.025  37.25 16.5375  C 37.85625 16.06875  38.2875 15.61875  38.525 15.2  L 38.7375 14.825  L 41 14.825  L 41 27.7625  Z M 52.94375 9.24375  C 52.525 9.1875  52.2375 8.8  52.29375 8.38125  C 52.35625 7.9625  52.7375 7.675  53.15625 7.73125  C 53.575 7.79375  53.8625 8.175  53.80625 8.59375  C 53.75 9.0125  53.3625 9.3  52.94375 9.24375  Z M 48.75625 8.65  C 48.3375 8.59375  48.05 8.20625  48.10625 7.7875  C 48.1625 7.36875  48.55 7.08125  48.96875 7.1375  C 49.3875 7.19375  49.675 7.58125  49.6125 8  C 49.55625 8.41875  49.16875 8.70625  48.75625 8.65  Z M 44.5625 8.0625  C 44.15 8.00625000000001  43.8625 7.61875  43.91875 7.2  C 43.975 6.78125  44.3625 6.49375  44.775 6.55  C 45.19375 6.6125  45.48125 6.99375000000001  45.425 7.41250000000001  C 45.36875 7.83125  44.98125 8.11875000000001  44.5625 8.0625  Z M 54.0125 21.0875  C 54.0125 22.65  53.81875 23.88125  53.4125 24.8375  C 52.99375 25.8375  52.34375 26.6125  51.4875 27.15  C 50.625 27.6875  49.60625 27.9625  48.4625 27.9625  C 47.23125 27.9625  46.2 27.65625  45.39375 27.04375  C 44.5875 26.43125  44.1 25.58125  43.94375 24.5125  L 43.8375 23.825  L 46.71875 23.59375  C 46.1 23.3875  45.54375 23.05625  45.05 22.6125  C 44.15 21.79375  43.69375 20.7125  43.69375 19.40625  C 43.69375 18.0625  44.16875 16.95  45.10625 16.1125  C 46.05 15.26875  47.25 14.8375  48.6625 14.8375  C 49.675 14.8375  50.61875 15.075  51.4625 15.55  C 52.30625 16.025  52.95625 16.70625  53.3875 17.575  C 53.80625 18.41875  54.0125 19.5625  54.0125 21.0875  Z M 57.85 8.6125  C 57.96875 8.78125  58.01875 8.98125  57.99375 9.18125000000001  C 57.9375 9.60000000000001  57.55 9.88750000000001  57.1375 9.83125  C 56.71875 9.77500000000001  56.43125 9.3875  56.4875 8.96875  C 56.54375 8.55  56.93125 8.2625  57.35 8.31875000000001  C 57.55 8.34375  57.73125 8.45625  57.85 8.6125  Z M 46.93125 19.44375  C 46.93125 20  47.1125 20.4375  47.48125 20.76875  C 48.21875 21.43125  49.43125 21.425  50.11875 20.78125  C 50.475 20.45  50.64375 19.96875  50.64375 19.325  C 50.64375 18.675  50.4625 18.19375  50.09375 17.8375  C 49.7375 17.5  49.35 17.34375  48.8625 17.34375  C 48.35 17.34375  47.93125 17.51875  47.5375 17.89375  C 47.125 18.28125  46.93125 18.7875  46.93125 19.44375  Z " fill-rule="nonzero" fill="#ffffff" stroke="none" transform="matrix(1 0 0 1 2033 628 )" />
  </g>
</svg>