<?xml version="1.0" encoding="utf-8"?>
<svg version="1.1" xmlns:xlink="http://www.w3.org/1999/xlink" width="186px" height="40px" xmlns="http://www.w3.org/2000/svg">
  <g transform="matrix(1 0 0 1 -1790 -880 )">
    <path d="M 1790.5 900  A 19.5 19.5 0 0 1 1810 880.5 L 1956 880.5  A 19.5 19.5 0 0 1 1975.5 900 A 19.5 19.5 0 0 1 1956 919.5 L 1810 919.5  A 19.5 19.5 0 0 1 1790.5 900 Z " fill-rule="nonzero" fill="#02a7f0" stroke="none" />
    <path d="M 1790.5 900  A 19.5 19.5 0 0 1 1810 880.5 L 1956 880.5  A 19.5 19.5 0 0 1 1975.5 900 A 19.5 19.5 0 0 1 1956 919.5 L 1810 919.5  A 19.5 19.5 0 0 1 1790.5 900 Z " stroke-width="1" stroke="#027db4" fill="none" />
  </g>
</svg>