<?xml version="1.0" encoding="utf-8"?>
<svg version="1.1" xmlns:xlink="http://www.w3.org/1999/xlink" width="335px" height="335px" xmlns="http://www.w3.org/2000/svg">
  <g transform="matrix(1 0 0 1 -228 -311 )">
    <path d="M 395.5 312  C 488.74 312  562 385.26  562 478.5  C 562 571.74  488.74 645  395.5 645  C 302.26 645  229 571.74  229 478.5  C 229 385.26  302.26 312  395.5 312  Z " fill-rule="nonzero" fill="#ec808d" stroke="none" fill-opacity="0.313725490196078" />
    <path d="M 395.5 312  C 488.74 312  562 385.26  562 478.5  C 562 571.74  488.74 645  395.5 645  C 302.26 645  229 571.74  229 478.5  C 229 385.26  302.26 312  395.5 312  Z " stroke-width="2" stroke="#d9001b" fill="none" />
  </g>
</svg>