<?xml version="1.0" encoding="utf-8"?>
<svg version="1.1" xmlns:xlink="http://www.w3.org/1999/xlink" width="95px" height="20px" xmlns="http://www.w3.org/2000/svg">
  <g transform="matrix(1 0 0 1 -2135 -102 )">
    <path d="M 2135.5 112  A 9.5 9.5 0 0 1 2145 102.5 L 2220 102.5  A 9.5 9.5 0 0 1 2229.5 112 A 9.5 9.5 0 0 1 2220 121.5 L 2145 121.5  A 9.5 9.5 0 0 1 2135.5 112 Z " fill-rule="nonzero" fill="#02a7f0" stroke="none" />
    <path d="M 2135.5 112  A 9.5 9.5 0 0 1 2145 102.5 L 2220 102.5  A 9.5 9.5 0 0 1 2229.5 112 A 9.5 9.5 0 0 1 2220 121.5 L 2145 121.5  A 9.5 9.5 0 0 1 2135.5 112 Z " stroke-width="1" stroke="#027db4" fill="none" />
  </g>
</svg>