<?xml version="1.0" encoding="utf-8"?>
<svg version="1.1" xmlns:xlink="http://www.w3.org/1999/xlink" width="60px" height="20px" xmlns="http://www.w3.org/2000/svg">
  <g transform="matrix(1 0 0 1 -2024 -75 )">
    <path d="M 2024.5 85  A 9.5 9.5 0 0 1 2034 75.5 L 2074 75.5  A 9.5 9.5 0 0 1 2083.5 85 A 9.5 9.5 0 0 1 2074 94.5 L 2034 94.5  A 9.5 9.5 0 0 1 2024.5 85 Z " fill-rule="nonzero" fill="#02a7f0" stroke="none" />
    <path d="M 2024.5 85  A 9.5 9.5 0 0 1 2034 75.5 L 2074 75.5  A 9.5 9.5 0 0 1 2083.5 85 A 9.5 9.5 0 0 1 2074 94.5 L 2034 94.5  A 9.5 9.5 0 0 1 2024.5 85 Z " stroke-width="1" stroke="#027db4" fill="none" />
  </g>
</svg>