<?xml version="1.0" encoding="utf-8"?>
<svg version="1.1" xmlns:xlink="http://www.w3.org/1999/xlink" width="60px" height="20px" xmlns="http://www.w3.org/2000/svg">
  <defs>
    <radialGradient cx="2054" cy="85" r="30" gradientTransform="matrix(-1 0 0 -0.333333333333333 4108 113.333333333333 )" gradientUnits="userSpaceOnUse" id="RadialGradient147">
      <stop id="Stop148" stop-color="#004959" offset="0" />
      <stop id="Stop149" stop-color="#00396e" offset="1" />
    </radialGradient>
  </defs>
  <g transform="matrix(1 0 0 1 -2024 -75 )">
    <path d="M 2024.5 85  A 9.5 9.5 0 0 1 2034 75.5 L 2074 75.5  A 9.5 9.5 0 0 1 2083.5 85 A 9.5 9.5 0 0 1 2074 94.5 L 2034 94.5  A 9.5 9.5 0 0 1 2024.5 85 Z " fill-rule="nonzero" fill="url(#RadialGradient147)" stroke="none" />
    <path d="M 2024.5 85  A 9.5 9.5 0 0 1 2034 75.5 L 2074 75.5  A 9.5 9.5 0 0 1 2083.5 85 A 9.5 9.5 0 0 1 2074 94.5 L 2034 94.5  A 9.5 9.5 0 0 1 2024.5 85 Z " stroke-width="1" stroke="#027db4" fill="none" />
  </g>
</svg>