<?xml version="1.0" encoding="utf-8"?>
<svg version="1.1" xmlns:xlink="http://www.w3.org/1999/xlink" width="40px" height="40px" xmlns="http://www.w3.org/2000/svg">
  <defs>
    <filter x="431px" y="175px" width="40px" height="40px" filterUnits="userSpaceOnUse" id="filter437">
      <feOffset dx="1" dy="1" in="SourceAlpha" result="shadowOffsetInner" />
      <feGaussianBlur stdDeviation="2.5" in="shadowOffsetInner" result="shadowGaussian" />
      <feComposite in2="shadowGaussian" operator="atop" in="SourceAlpha" result="shadowComposite" />
      <feColorMatrix type="matrix" values="0 0 0 0 0  0 0 0 0 0  0 0 0 0 0  0 0 0 0.698039215686274 0  " in="shadowComposite" />
    </filter>
    <g id="widget438">
      <path d="M 450 179  C 458.4 179  465 185.6  465 194  C 465 202.4  458.4 209  450 209  C 441.6 209  435 202.4  435 194  C 435 185.6  441.6 179  450 179  Z " fill-rule="nonzero" fill="#70b603" stroke="none" />
      <path d="M 450 179.5  C 458.12 179.5  464.5 185.88  464.5 194  C 464.5 202.12  458.12 208.5  450 208.5  C 441.88 208.5  435.5 202.12  435.5 194  C 435.5 185.88  441.88 179.5  450 179.5  Z " stroke-width="1" stroke="#ffffff" fill="none" />
    </g>
  </defs>
  <g transform="matrix(1 0 0 1 -431 -175 )">
    <use xlink:href="#widget438" filter="url(#filter437)" />
    <use xlink:href="#widget438" />
  </g>
</svg>