<?xml version="1.0" encoding="utf-8"?>
<svg version="1.1" xmlns:xlink="http://www.w3.org/1999/xlink" width="4px" height="4px" xmlns="http://www.w3.org/2000/svg">
  <g transform="matrix(1 0 0 1 -248 -13 )">
    <path d="M 250 13  C 251.12 13  252 13.88  252 15  C 252 16.12  251.12 17  250 17  C 248.88 17  248 16.12  248 15  C 248 13.88  248.88 13  250 13  Z " fill-rule="nonzero" fill="#ffffff" stroke="none" fill-opacity="0" />
    <path d="M 250 13.5  C 250.84 13.5  251.5 14.16  251.5 15  C 251.5 15.84  250.84 16.5  250 16.5  C 249.16 16.5  248.5 15.84  248.5 15  C 248.5 14.16  249.16 13.5  250 13.5  Z " stroke-width="1" stroke="#02a7f0" fill="none" />
  </g>
</svg>