<?xml version="1.0" encoding="utf-8"?>
<svg version="1.1" xmlns:xlink="http://www.w3.org/1999/xlink" width="186px" height="40px" xmlns="http://www.w3.org/2000/svg">
  <defs>
    <radialGradient cx="1786" cy="951" r="93" gradientTransform="matrix(-1 0 0 -0.21505376344086 3572 1155.51612903226 )" gradientUnits="userSpaceOnUse" id="RadialGradient106">
      <stop id="Stop107" stop-color="#004959" offset="0" />
      <stop id="Stop108" stop-color="#00396e" offset="1" />
    </radialGradient>
  </defs>
  <g transform="matrix(1 0 0 1 -1693 -931 )">
    <path d="M 1693.5 951  A 19.5 19.5 0 0 1 1713 931.5 L 1859 931.5  A 19.5 19.5 0 0 1 1878.5 951 A 19.5 19.5 0 0 1 1859 970.5 L 1713 970.5  A 19.5 19.5 0 0 1 1693.5 951 Z " fill-rule="nonzero" fill="url(#RadialGradient106)" stroke="none" />
    <path d="M 1693.5 951  A 19.5 19.5 0 0 1 1713 931.5 L 1859 931.5  A 19.5 19.5 0 0 1 1878.5 951 A 19.5 19.5 0 0 1 1859 970.5 L 1713 970.5  A 19.5 19.5 0 0 1 1693.5 951 Z " stroke-width="1" stroke="#027db4" fill="none" />
  </g>
</svg>