<?xml version="1.0" encoding="utf-8"?>
<svg version="1.1" xmlns:xlink="http://www.w3.org/1999/xlink" width="226px" height="226px" xmlns="http://www.w3.org/2000/svg">
  <g transform="matrix(1 0 0 1 -878 -321 )">
    <path d="M 991 322  C 1053.72 322  1103 371.28  1103 434  C 1103 496.72  1053.72 546  991 546  C 928.28 546  879 496.72  879 434  C 879 371.28  928.28 322  991 322  Z " fill-rule="nonzero" fill="#ec808d" stroke="none" fill-opacity="0.313725490196078" />
    <path d="M 991 322  C 1053.72 322  1103 371.28  1103 434  C 1103 496.72  1053.72 546  991 546  C 928.28 546  879 496.72  879 434  C 879 371.28  928.28 322  991 322  Z " stroke-width="2" stroke="#d9001b" fill="none" />
  </g>
</svg>