<?xml version="1.0" encoding="utf-8"?>
<svg version="1.1" xmlns:xlink="http://www.w3.org/1999/xlink" width="25px" height="32px" xmlns="http://www.w3.org/2000/svg">
  <g transform="matrix(1 0 0 1 -831 -116 )">
    <path d="M 1.13636363636364 0  L 23.8636363636364 0  C 24.1714015151515 0  24.4377367424242 0.113095238095241  24.6626420454545 0.339285714285715  C 24.8875473484849 0.565476190476186  25 0.833333333333332  25 1.14285714285714  L 25 30.8571428571429  C 25 31.1666666666667  24.8875473484849 31.4345238095238  24.6626420454545 31.6607142857143  C 24.4377367424242 31.8869047619048  24.1714015151515 32  23.8636363636364 32  L 1.13636363636364 32  C 0.828598484848485 32  0.562263257575758 31.8869047619048  0.337357954545455 31.6607142857143  C 0.112452651515152 31.4345238095238  0 31.1666666666667  0 30.8571428571429  L 0 1.14285714285714  C 0 0.833333333333332  0.112452651515152 0.565476190476186  0.337357954545455 0.339285714285715  C 0.562263257575758 0.113095238095241  0.828598484848485 0  1.13636363636364 0  Z M 9.25071022727273 4.73214285714286  C 9.14417613636364 4.83928571428572  9.09090909090909 4.97619047619047  9.09090909090909 5.14285714285714  L 9.09090909090909 6.28571428571428  C 9.09090909090909 6.45238095238095  9.14417613636364 6.58928571428572  9.25071022727273 6.69642857142857  C 9.35724431818182 6.80357142857143  9.49337121212121 6.85714285714286  9.65909090909091 6.85714285714286  L 10.7954545454545 6.85714285714286  C 10.9611742424242 6.85714285714286  11.0973011363636 6.80357142857143  11.2038352272727 6.69642857142857  C 11.3103693181818 6.58928571428572  11.3636363636364 6.45238095238095  11.3636363636364 6.28571428571428  L 11.3636363636364 5.14285714285714  C 11.3636363636364 4.97619047619047  11.3103693181818 4.83928571428572  11.2038352272727 4.73214285714286  C 11.0973011363636 4.625  10.9611742424242 4.57142857142857  10.7954545454545 4.57142857142857  L 9.65909090909091 4.57142857142857  C 9.49337121212121 4.57142857142857  9.35724431818182 4.625  9.25071022727273 4.73214285714286  Z M 9.25071022727273 9.30357142857143  C 9.14417613636364 9.41071428571428  9.09090909090909 9.54761904761904  9.09090909090909 9.71428571428572  L 9.09090909090909 10.8571428571429  C 9.09090909090909 11.0238095238095  9.14417613636364 11.1607142857143  9.25071022727273 11.2678571428571  C 9.35724431818182 11.375  9.49337121212121 11.4285714285714  9.65909090909091 11.4285714285714  L 10.7954545454545 11.4285714285714  C 10.9611742424242 11.4285714285714  11.0973011363636 11.375  11.2038352272727 11.2678571428571  C 11.3103693181818 11.1607142857143  11.3636363636364 11.0238095238095  11.3636363636364 10.8571428571429  L 11.3636363636364 9.71428571428572  C 11.3636363636364 9.54761904761904  11.3103693181818 9.41071428571428  11.2038352272727 9.30357142857143  C 11.0973011363636 9.19642857142857  10.9611742424242 9.14285714285714  10.7954545454545 9.14285714285714  L 9.65909090909091 9.14285714285714  C 9.49337121212121 9.14285714285714  9.35724431818182 9.19642857142857  9.25071022727273 9.30357142857143  Z M 9.25071022727273 13.875  C 9.14417613636364 13.9821428571429  9.09090909090909 14.1190476190476  9.09090909090909 14.2857142857143  L 9.09090909090909 15.4285714285714  C 9.09090909090909 15.5952380952381  9.14417613636364 15.7321428571429  9.25071022727273 15.8392857142857  C 9.35724431818182 15.9464285714286  9.49337121212121 16  9.65909090909091 16  L 10.7954545454545 16  C 10.9611742424242 16  11.0973011363636 15.9464285714286  11.2038352272727 15.8392857142857  C 11.3103693181818 15.7321428571429  11.3636363636364 15.5952380952381  11.3636363636364 15.4285714285714  L 11.3636363636364 14.2857142857143  C 11.3636363636364 14.1190476190476  11.3103693181818 13.9821428571429  11.2038352272727 13.875  C 11.0973011363636 13.7678571428571  10.9611742424242 13.7142857142857  10.7954545454545 13.7142857142857  L 9.65909090909091 13.7142857142857  C 9.49337121212121 13.7142857142857  9.35724431818182 13.7678571428571  9.25071022727273 13.875  Z M 9.25071022727273 18.4464285714286  C 9.14417613636364 18.5535714285714  9.09090909090909 18.6904761904762  9.09090909090909 18.8571428571429  L 9.09090909090909 20  C 9.09090909090909 20.1666666666667  9.14417613636364 20.3035714285714  9.25071022727273 20.4107142857143  C 9.35724431818182 20.5178571428571  9.49337121212121 20.5714285714286  9.65909090909091 20.5714285714286  L 10.7954545454545 20.5714285714286  C 10.9611742424242 20.5714285714286  11.0973011363636 20.5178571428571  11.2038352272727 20.4107142857143  C 11.3103693181818 20.3035714285714  11.3636363636364 20.1666666666667  11.3636363636364 20  L 11.3636363636364 18.8571428571429  C 11.3636363636364 18.6904761904762  11.3103693181818 18.5535714285714  11.2038352272727 18.4464285714286  C 11.0973011363636 18.3392857142857  10.9611742424242 18.2857142857143  10.7954545454545 18.2857142857143  L 9.65909090909091 18.2857142857143  C 9.49337121212121 18.2857142857143  9.35724431818182 18.3392857142857  9.25071022727273 18.4464285714286  Z M 6.65838068181818 24.9821428571429  C 6.76491477272727 24.875  6.81818181818182 24.7380952380952  6.81818181818182 24.5714285714286  L 6.81818181818182 23.4285714285714  C 6.81818181818182 23.2619047619048  6.76491477272727 23.125  6.65838068181818 23.0178571428571  C 6.55184659090909 22.9107142857143  6.4157196969697 22.8571428571429  6.25 22.8571428571429  L 5.11363636363636 22.8571428571429  C 4.94791666666667 22.8571428571429  4.81178977272727 22.9107142857143  4.70525568181818 23.0178571428571  C 4.59872159090909 23.125  4.54545454545455 23.2619047619048  4.54545454545455 23.4285714285714  L 4.54545454545455 24.5714285714286  C 4.54545454545455 24.7380952380952  4.59872159090909 24.875  4.70525568181818 24.9821428571429  C 4.81178977272727 25.0892857142857  4.94791666666667 25.1428571428571  5.11363636363636 25.1428571428571  L 6.25 25.1428571428571  C 6.4157196969697 25.1428571428571  6.55184659090909 25.0892857142857  6.65838068181818 24.9821428571429  Z M 6.65838068181818 20.4107142857143  C 6.76491477272727 20.3035714285714  6.81818181818182 20.1666666666667  6.81818181818182 20  L 6.81818181818182 18.8571428571429  C 6.81818181818182 18.6904761904762  6.76491477272727 18.5535714285714  6.65838068181818 18.4464285714286  C 6.55184659090909 18.3392857142857  6.4157196969697 18.2857142857143  6.25 18.2857142857143  L 5.11363636363636 18.2857142857143  C 4.94791666666667 18.2857142857143  4.81178977272727 18.3392857142857  4.70525568181818 18.4464285714286  C 4.59872159090909 18.5535714285714  4.54545454545455 18.6904761904762  4.54545454545455 18.8571428571429  L 4.54545454545455 20  C 4.54545454545455 20.1666666666667  4.59872159090909 20.3035714285714  4.70525568181818 20.4107142857143  C 4.81178977272727 20.5178571428571  4.94791666666667 20.5714285714286  5.11363636363636 20.5714285714286  L 6.25 20.5714285714286  C 6.4157196969697 20.5714285714286  6.55184659090909 20.5178571428571  6.65838068181818 20.4107142857143  Z M 6.65838068181818 15.8392857142857  C 6.76491477272727 15.7321428571429  6.81818181818182 15.5952380952381  6.81818181818182 15.4285714285714  L 6.81818181818182 14.2857142857143  C 6.81818181818182 14.1190476190476  6.76491477272727 13.9821428571429  6.65838068181818 13.875  C 6.55184659090909 13.7678571428571  6.4157196969697 13.7142857142857  6.25 13.7142857142857  L 5.11363636363636 13.7142857142857  C 4.94791666666667 13.7142857142857  4.81178977272727 13.7678571428571  4.70525568181818 13.875  C 4.59872159090909 13.9821428571429  4.54545454545455 14.1190476190476  4.54545454545455 14.2857142857143  L 4.54545454545455 15.4285714285714  C 4.54545454545455 15.5952380952381  4.59872159090909 15.7321428571429  4.70525568181818 15.8392857142857  C 4.81178977272727 15.9464285714286  4.94791666666667 16  5.11363636363636 16  L 6.25 16  C 6.4157196969697 16  6.55184659090909 15.9464285714286  6.65838068181818 15.8392857142857  Z M 6.65838068181818 11.2678571428571  C 6.76491477272727 11.1607142857143  6.81818181818182 11.0238095238095  6.81818181818182 10.8571428571429  L 6.81818181818182 9.71428571428572  C 6.81818181818182 9.54761904761904  6.76491477272727 9.41071428571428  6.65838068181818 9.30357142857143  C 6.55184659090909 9.19642857142857  6.4157196969697 9.14285714285714  6.25 9.14285714285714  L 5.11363636363636 9.14285714285714  C 4.94791666666667 9.14285714285714  4.81178977272727 9.19642857142857  4.70525568181818 9.30357142857143  C 4.59872159090909 9.41071428571428  4.54545454545455 9.54761904761904  4.54545454545455 9.71428571428572  L 4.54545454545455 10.8571428571429  C 4.54545454545455 11.0238095238095  4.59872159090909 11.1607142857143  4.70525568181818 11.2678571428571  C 4.81178977272727 11.375  4.94791666666667 11.4285714285714  5.11363636363636 11.4285714285714  L 6.25 11.4285714285714  C 6.4157196969697 11.4285714285714  6.55184659090909 11.375  6.65838068181818 11.2678571428571  Z M 6.65838068181818 6.69642857142857  C 6.76491477272727 6.58928571428572  6.81818181818182 6.45238095238095  6.81818181818182 6.28571428571428  L 6.81818181818182 5.14285714285714  C 6.81818181818182 4.97619047619047  6.76491477272727 4.83928571428572  6.65838068181818 4.73214285714286  C 6.55184659090909 4.625  6.4157196969697 4.57142857142857  6.25 4.57142857142857  L 5.11363636363636 4.57142857142857  C 4.94791666666667 4.57142857142857  4.81178977272727 4.625  4.70525568181818 4.73214285714286  C 4.59872159090909 4.83928571428572  4.54545454545455 4.97619047619047  4.54545454545455 5.14285714285714  L 4.54545454545455 6.28571428571428  C 4.54545454545455 6.45238095238095  4.59872159090909 6.58928571428572  4.70525568181818 6.69642857142857  C 4.81178977272727 6.80357142857143  4.94791666666667 6.85714285714286  5.11363636363636 6.85714285714286  L 6.25 6.85714285714286  C 6.4157196969697 6.85714285714286  6.55184659090909 6.80357142857143  6.65838068181818 6.69642857142857  Z M 15.7492897727273 29.5535714285714  C 15.8558238636364 29.4464285714286  15.9090909090909 29.3095238095238  15.9090909090909 29.1428571428571  L 15.9090909090909 25.7142857142857  C 15.9090909090909 25.5476190476191  15.8558238636364 25.4107142857143  15.7492897727273 25.3035714285714  C 15.6427556818182 25.1964285714286  15.5066287878788 25.1428571428571  15.3409090909091 25.1428571428571  L 9.65909090909091 25.1428571428571  C 9.49337121212121 25.1428571428571  9.35724431818182 25.1964285714286  9.25071022727273 25.3035714285714  C 9.14417613636364 25.4107142857143  9.09090909090909 25.5476190476191  9.09090909090909 25.7142857142857  L 9.09090909090909 29.1428571428571  C 9.09090909090909 29.3095238095238  9.14417613636364 29.4464285714286  9.25071022727273 29.5535714285714  C 9.35724431818182 29.6607142857143  9.49337121212121 29.7142857142857  9.65909090909091 29.7142857142857  L 15.3409090909091 29.7142857142857  C 15.5066287878788 29.7142857142857  15.6427556818182 29.6607142857143  15.7492897727273 29.5535714285714  Z M 15.7492897727273 20.4107142857143  C 15.8558238636364 20.3035714285714  15.9090909090909 20.1666666666667  15.9090909090909 20  L 15.9090909090909 18.8571428571429  C 15.9090909090909 18.6904761904762  15.8558238636364 18.5535714285714  15.7492897727273 18.4464285714286  C 15.6427556818182 18.3392857142857  15.5066287878788 18.2857142857143  15.3409090909091 18.2857142857143  L 14.2045454545455 18.2857142857143  C 14.0388257575758 18.2857142857143  13.9026988636364 18.3392857142857  13.7961647727273 18.4464285714286  C 13.6896306818182 18.5535714285714  13.6363636363636 18.6904761904762  13.6363636363636 18.8571428571429  L 13.6363636363636 20  C 13.6363636363636 20.1666666666667  13.6896306818182 20.3035714285714  13.7961647727273 20.4107142857143  C 13.9026988636364 20.5178571428571  14.0388257575758 20.5714285714286  14.2045454545455 20.5714285714286  L 15.3409090909091 20.5714285714286  C 15.5066287878788 20.5714285714286  15.6427556818182 20.5178571428571  15.7492897727273 20.4107142857143  Z M 15.7492897727273 15.8392857142857  C 15.8558238636364 15.7321428571429  15.9090909090909 15.5952380952381  15.9090909090909 15.4285714285714  L 15.9090909090909 14.2857142857143  C 15.9090909090909 14.1190476190476  15.8558238636364 13.9821428571429  15.7492897727273 13.875  C 15.6427556818182 13.7678571428571  15.5066287878788 13.7142857142857  15.3409090909091 13.7142857142857  L 14.2045454545455 13.7142857142857  C 14.0388257575758 13.7142857142857  13.9026988636364 13.7678571428571  13.7961647727273 13.875  C 13.6896306818182 13.9821428571429  13.6363636363636 14.1190476190476  13.6363636363636 14.2857142857143  L 13.6363636363636 15.4285714285714  C 13.6363636363636 15.5952380952381  13.6896306818182 15.7321428571429  13.7961647727273 15.8392857142857  C 13.9026988636364 15.9464285714286  14.0388257575758 16  14.2045454545455 16  L 15.3409090909091 16  C 15.5066287878788 16  15.6427556818182 15.9464285714286  15.7492897727273 15.8392857142857  Z M 15.7492897727273 11.2678571428571  C 15.8558238636364 11.1607142857143  15.9090909090909 11.0238095238095  15.9090909090909 10.8571428571429  L 15.9090909090909 9.71428571428572  C 15.9090909090909 9.54761904761904  15.8558238636364 9.41071428571428  15.7492897727273 9.30357142857143  C 15.6427556818182 9.19642857142857  15.5066287878788 9.14285714285714  15.3409090909091 9.14285714285714  L 14.2045454545455 9.14285714285714  C 14.0388257575758 9.14285714285714  13.9026988636364 9.19642857142857  13.7961647727273 9.30357142857143  C 13.6896306818182 9.41071428571428  13.6363636363636 9.54761904761904  13.6363636363636 9.71428571428572  L 13.6363636363636 10.8571428571429  C 13.6363636363636 11.0238095238095  13.6896306818182 11.1607142857143  13.7961647727273 11.2678571428571  C 13.9026988636364 11.375  14.0388257575758 11.4285714285714  14.2045454545455 11.4285714285714  L 15.3409090909091 11.4285714285714  C 15.5066287878788 11.4285714285714  15.6427556818182 11.375  15.7492897727273 11.2678571428571  Z M 15.7492897727273 6.69642857142857  C 15.8558238636364 6.58928571428572  15.9090909090909 6.45238095238095  15.9090909090909 6.28571428571428  L 15.9090909090909 5.14285714285714  C 15.9090909090909 4.97619047619047  15.8558238636364 4.83928571428572  15.7492897727273 4.73214285714286  C 15.6427556818182 4.625  15.5066287878788 4.57142857142857  15.3409090909091 4.57142857142857  L 14.2045454545455 4.57142857142857  C 14.0388257575758 4.57142857142857  13.9026988636364 4.625  13.7961647727273 4.73214285714286  C 13.6896306818182 4.83928571428572  13.6363636363636 4.97619047619047  13.6363636363636 5.14285714285714  L 13.6363636363636 6.28571428571428  C 13.6363636363636 6.45238095238095  13.6896306818182 6.58928571428572  13.7961647727273 6.69642857142857  C 13.9026988636364 6.80357142857143  14.0388257575758 6.85714285714286  14.2045454545455 6.85714285714286  L 15.3409090909091 6.85714285714286  C 15.5066287878788 6.85714285714286  15.6427556818182 6.80357142857143  15.7492897727273 6.69642857142857  Z M 20.2947443181818 24.9821428571429  C 20.4012784090909 24.875  20.4545454545455 24.7380952380952  20.4545454545455 24.5714285714286  L 20.4545454545455 23.4285714285714  C 20.4545454545455 23.2619047619048  20.4012784090909 23.125  20.2947443181818 23.0178571428571  C 20.1882102272727 22.9107142857143  20.0520833333333 22.8571428571429  19.8863636363636 22.8571428571429  L 18.75 22.8571428571429  C 18.5842803030303 22.8571428571429  18.4481534090909 22.9107142857143  18.3416193181818 23.0178571428571  C 18.2350852272727 23.125  18.1818181818182 23.2619047619048  18.1818181818182 23.4285714285714  L 18.1818181818182 24.5714285714286  C 18.1818181818182 24.7380952380952  18.2350852272727 24.875  18.3416193181818 24.9821428571429  C 18.4481534090909 25.0892857142857  18.5842803030303 25.1428571428571  18.75 25.1428571428571  L 19.8863636363636 25.1428571428571  C 20.0520833333333 25.1428571428571  20.1882102272727 25.0892857142857  20.2947443181818 24.9821428571429  Z M 20.2947443181818 20.4107142857143  C 20.4012784090909 20.3035714285714  20.4545454545455 20.1666666666667  20.4545454545455 20  L 20.4545454545455 18.8571428571429  C 20.4545454545455 18.6904761904762  20.4012784090909 18.5535714285714  20.2947443181818 18.4464285714286  C 20.1882102272727 18.3392857142857  20.0520833333333 18.2857142857143  19.8863636363636 18.2857142857143  L 18.75 18.2857142857143  C 18.5842803030303 18.2857142857143  18.4481534090909 18.3392857142857  18.3416193181818 18.4464285714286  C 18.2350852272727 18.5535714285714  18.1818181818182 18.6904761904762  18.1818181818182 18.8571428571429  L 18.1818181818182 20  C 18.1818181818182 20.1666666666667  18.2350852272727 20.3035714285714  18.3416193181818 20.4107142857143  C 18.4481534090909 20.5178571428571  18.5842803030303 20.5714285714286  18.75 20.5714285714286  L 19.8863636363636 20.5714285714286  C 20.0520833333333 20.5714285714286  20.1882102272727 20.5178571428571  20.2947443181818 20.4107142857143  Z M 20.2947443181818 15.8392857142857  C 20.4012784090909 15.7321428571429  20.4545454545455 15.5952380952381  20.4545454545455 15.4285714285714  L 20.4545454545455 14.2857142857143  C 20.4545454545455 14.1190476190476  20.4012784090909 13.9821428571429  20.2947443181818 13.875  C 20.1882102272727 13.7678571428571  20.0520833333333 13.7142857142857  19.8863636363636 13.7142857142857  L 18.75 13.7142857142857  C 18.5842803030303 13.7142857142857  18.4481534090909 13.7678571428571  18.3416193181818 13.875  C 18.2350852272727 13.9821428571429  18.1818181818182 14.1190476190476  18.1818181818182 14.2857142857143  L 18.1818181818182 15.4285714285714  C 18.1818181818182 15.5952380952381  18.2350852272727 15.7321428571429  18.3416193181818 15.8392857142857  C 18.4481534090909 15.9464285714286  18.5842803030303 16  18.75 16  L 19.8863636363636 16  C 20.0520833333333 16  20.1882102272727 15.9464285714286  20.2947443181818 15.8392857142857  Z M 20.2947443181818 11.2678571428571  C 20.4012784090909 11.1607142857143  20.4545454545455 11.0238095238095  20.4545454545455 10.8571428571429  L 20.4545454545455 9.71428571428572  C 20.4545454545455 9.54761904761904  20.4012784090909 9.41071428571428  20.2947443181818 9.30357142857143  C 20.1882102272727 9.19642857142857  20.0520833333333 9.14285714285714  19.8863636363636 9.14285714285714  L 18.75 9.14285714285714  C 18.5842803030303 9.14285714285714  18.4481534090909 9.19642857142857  18.3416193181818 9.30357142857143  C 18.2350852272727 9.41071428571428  18.1818181818182 9.54761904761904  18.1818181818182 9.71428571428572  L 18.1818181818182 10.8571428571429  C 18.1818181818182 11.0238095238095  18.2350852272727 11.1607142857143  18.3416193181818 11.2678571428571  C 18.4481534090909 11.375  18.5842803030303 11.4285714285714  18.75 11.4285714285714  L 19.8863636363636 11.4285714285714  C 20.0520833333333 11.4285714285714  20.1882102272727 11.375  20.2947443181818 11.2678571428571  Z M 20.2947443181818 6.69642857142857  C 20.4012784090909 6.58928571428572  20.4545454545455 6.45238095238095  20.4545454545455 6.28571428571428  L 20.4545454545455 5.14285714285714  C 20.4545454545455 4.97619047619047  20.4012784090909 4.83928571428572  20.2947443181818 4.73214285714286  C 20.1882102272727 4.625  20.0520833333333 4.57142857142857  19.8863636363636 4.57142857142857  L 18.75 4.57142857142857  C 18.5842803030303 4.57142857142857  18.4481534090909 4.625  18.3416193181818 4.73214285714286  C 18.2350852272727 4.83928571428572  18.1818181818182 4.97619047619047  18.1818181818182 5.14285714285714  L 18.1818181818182 6.28571428571428  C 18.1818181818182 6.45238095238095  18.2350852272727 6.58928571428572  18.3416193181818 6.69642857142857  C 18.4481534090909 6.80357142857143  18.5842803030303 6.85714285714286  18.75 6.85714285714286  L 19.8863636363636 6.85714285714286  C 20.0520833333333 6.85714285714286  20.1882102272727 6.80357142857143  20.2947443181818 6.69642857142857  Z " fill-rule="nonzero" fill="#0fe6d5" stroke="none" transform="matrix(1 0 0 1 831 116 )" />
  </g>
</svg>