<?xml version="1.0" encoding="utf-8"?>
<svg version="1.1" xmlns:xlink="http://www.w3.org/1999/xlink" width="15px" height="27px" xmlns="http://www.w3.org/2000/svg">
  <g transform="matrix(1 0 0 1 -14 -470 )">
    <path d="M 13.1375 0.0810314336817178  C 13.6302873723697 0.0810314336817178  14.1027099478015 0.28325554680355  14.45 0.642857142857143  C 15.0982424404019 1.37033265072536  15.0982424404019 2.4868102064175  14.45 3.21428571428571  L 4.45 13.5  L 14.45 23.7857142857143  C 14.5907479715815 24.0596832169304  14.6643187844865 24.3648615702881  14.6643187844865 24.6747278926147  C 14.6643187844865 25.7256468737212  13.8360455716734 26.5775850354718  12.8143187844865 26.5775850354718  C 12.5130598600023 26.5775850354718  12.2163586831267 26.501912199341  11.95 26.3571428571429  L 0.549999999999999 14.8628571428571  C 0.207066260819705 14.4955396248948  0.0107711800004728 14.0091357103453  0 13.5  C 0.00431274907557455 12.9970354300151  0.2020569509073 12.5162858899774  0.55 12.1628571428571  L 11.825 0.642857142857143  C 12.1722900521985 0.283255546803548  12.6447126276303 0.0810314336817178  13.1375 0.0810314336817178  Z " fill-rule="nonzero" fill="#ffffff" stroke="none" transform="matrix(1 0 0 1 14 470 )" />
  </g>
</svg>